<svg width="20" height="20" viewBox="0 0 20 20" fill="none" xmlns="http://www.w3.org/2000/svg">
<path d="M17.4003 2.58234C16.7892 1.97123 16.0539 1.66595 15.1945 1.6665H4.78866C3.92866 1.6665 3.19338 1.97178 2.58283 2.58234C1.97172 3.19345 1.66644 3.92873 1.66699 4.78817V15.194C1.66699 16.054 1.97227 16.7893 2.58283 17.3998C3.19394 18.0109 3.92922 18.3162 4.78866 18.3157H7.21699C7.37533 18.3157 7.49449 18.3101 7.57449 18.299C7.66767 18.2806 7.75175 18.2309 7.81283 18.1582C7.89227 18.0748 7.93199 17.954 7.93199 17.7957L7.92616 17.0582C7.92283 16.5882 7.92116 16.2159 7.92116 15.9415L7.67116 15.9848C7.51283 16.0137 7.31255 16.0265 7.07033 16.0232C6.81758 16.0183 6.56564 15.993 6.31699 15.9473C6.05208 15.8993 5.80274 15.7878 5.59033 15.6223C5.36737 15.4537 5.20109 15.2212 5.11366 14.9557L5.00533 14.7057C4.91367 14.5087 4.79898 14.3232 4.66366 14.1532C4.5081 13.9509 4.35088 13.8137 4.19199 13.7415L4.11699 13.6873C4.06491 13.6496 4.01737 13.606 3.97533 13.5573C3.93516 13.5121 3.90227 13.461 3.87783 13.4057C3.85616 13.3546 3.87422 13.3129 3.93199 13.2807C3.98977 13.2473 4.09477 13.2309 4.24699 13.2315L4.46366 13.2648C4.6081 13.2932 4.78672 13.3796 4.99949 13.524C5.21454 13.6706 5.39418 13.8634 5.52533 14.0882C5.69199 14.3837 5.89255 14.6096 6.12699 14.7657C6.36199 14.9212 6.59866 14.999 6.83699 14.999C7.07533 14.999 7.28144 14.9809 7.45533 14.9448C7.62373 14.9099 7.78738 14.8551 7.94283 14.7815C8.00783 14.2976 8.18477 13.9254 8.47366 13.6648C8.09901 13.6278 7.72768 13.5626 7.36283 13.4698C7.00678 13.3722 6.66439 13.2302 6.34366 13.0473C6.00803 12.8646 5.71158 12.6177 5.47116 12.3207C5.24005 12.0318 5.05033 11.6526 4.90199 11.1832C4.75422 10.7132 4.68033 10.1709 4.68033 9.5565C4.68033 8.68262 4.9656 7.93817 5.53616 7.32317C5.26949 6.66595 5.29477 5.92928 5.61199 5.11317C5.82199 5.04762 6.13283 5.09623 6.54449 5.259C6.95616 5.42178 7.25783 5.56067 7.44949 5.67567C7.64116 5.79234 7.79477 5.89012 7.91033 5.969C8.58774 5.78012 9.28791 5.68535 9.99116 5.68734C10.7067 5.68734 11.4006 5.78123 12.0728 5.969L12.4845 5.709C12.8012 5.51889 13.1352 5.35929 13.482 5.23234C13.8648 5.08789 14.1575 5.04817 14.3603 5.11317C14.6853 5.92984 14.7139 6.66678 14.4462 7.324C15.0173 7.93789 15.3028 8.68234 15.3028 9.55734C15.3028 10.1718 15.2287 10.7154 15.0803 11.1882C14.9325 11.6615 14.7412 12.0409 14.5062 12.3265C14.2608 12.619 13.9633 12.8635 13.6287 13.0473C13.2787 13.2423 12.9389 13.3832 12.6095 13.4698C12.2447 13.5629 11.8733 13.6284 11.4987 13.6657C11.8737 13.9907 12.0614 14.5034 12.062 15.204V17.7957C12.062 17.9179 12.08 18.0171 12.1162 18.0932C12.133 18.1297 12.157 18.1625 12.1868 18.1895C12.2166 18.2166 12.2515 18.2374 12.2895 18.2507C12.3689 18.2796 12.4395 18.2973 12.5012 18.304C12.5628 18.3118 12.6512 18.3154 12.7662 18.3148H15.1945C16.0545 18.3148 16.7898 18.0096 17.4003 17.399C18.0109 16.7884 18.3162 16.0532 18.3162 15.1932V4.78817C18.3162 3.92817 18.0114 3.19289 17.4003 2.58234Z" fill="#BCBCBC"/>
</svg>
