<svg width="14" height="13" viewBox="0 0 14 13" fill="none" xmlns="http://www.w3.org/2000/svg">
<path fill-rule="evenodd" clip-rule="evenodd" d="M7.09213 3.58V4.99417C7.38828 4.54306 7.79647 4.17658 8.27677 3.93059C8.75707 3.6846 9.293 3.56753 9.83213 3.59083C12.7113 3.59083 13.3338 5.39083 13.3338 7.7325V12.5H10.6671V8.27333C10.6671 7.265 10.4638 5.96833 8.8938 5.96833C7.37129 5.96833 7.11129 7.06583 7.11129 8.19833V12.5H4.45296V3.58H7.09213ZM2.66713 1.33833C2.6668 1.6025 2.58849 1.8607 2.44203 2.08054C2.29556 2.30039 2.08745 2.47211 1.84379 2.57417C1.60023 2.6754 1.33206 2.70188 1.07341 2.65024C0.81475 2.5986 0.577307 2.47117 0.391295 2.28417C0.204933 2.09705 0.0780571 1.85901 0.0266219 1.59997C-0.0248134 1.34094 0.00148881 1.07248 0.10222 0.828356C0.202952 0.584231 0.373616 0.375339 0.592751 0.227949C0.811886 0.0805594 1.06971 0.001252 1.33379 0C1.50931 -1.23408e-06 1.6831 0.0346513 1.8452 0.10197C2.00729 0.169289 2.1545 0.267949 2.27838 0.39229C2.40225 0.516632 2.50036 0.664208 2.56707 0.826553C2.63378 0.988898 2.66779 1.16282 2.66713 1.33833Z" fill="#BCBCBC"/>
<path d="M2.66667 3.59082H0V12.5H2.66667V3.59082Z" fill="#BCBCBC"/>
</svg>
