<svg width="20" height="20" viewBox="0 0 20 20" fill="none" xmlns="http://www.w3.org/2000/svg">
<path d="M6.66699 5C7.99307 5 9.26484 5.52678 10.2025 6.46447C11.1402 7.40215 11.667 8.67392 11.667 10C11.667 11.3261 11.1402 12.5979 10.2025 13.5355C9.26484 14.4732 7.99307 15 6.66699 15C5.34091 15 4.06914 14.4732 3.13146 13.5355C2.19378 12.5979 1.66699 11.3261 1.66699 10C1.66699 8.67392 2.19378 7.40215 3.13146 6.46447C4.06914 5.52678 5.34091 5 6.66699 5ZM14.167 5.83333C15.417 5.83333 16.2503 7.69917 16.2503 10C16.2503 12.3008 15.417 14.1667 14.167 14.1667C12.917 14.1667 12.0837 12.3008 12.0837 10C12.0837 7.69917 12.917 5.83333 14.167 5.83333ZM17.5003 6.25C17.817 6.25 18.0937 6.93917 18.2337 8.12167L18.2728 8.49083L18.2887 8.68667L18.3137 9.09833L18.322 9.31417L18.332 9.765L18.3337 10L18.332 10.235L18.322 10.6858L18.3137 10.9025L18.2887 11.3133L18.272 11.5092L18.2345 11.8783C18.0937 13.0617 17.8178 13.75 17.5003 13.75C17.1837 13.75 16.907 13.0608 16.767 11.8783L16.7278 11.5092L16.712 11.3133L16.687 10.9017L16.6787 10.6858L16.6687 10.235V9.765L16.6787 9.31417L16.687 9.0975L16.712 8.68667L16.7287 8.49083L16.7662 8.12167C16.907 6.93833 17.1828 6.25 17.5003 6.25Z" fill="#BCBCBC"/>
</svg>
