<svg width="20" height="20" viewBox="0 0 20 20" fill="none" xmlns="http://www.w3.org/2000/svg">
<path d="M10.0003 1.6665C5.40033 1.6665 1.66699 5.39984 1.66699 9.99984C1.66699 14.5998 5.40033 18.3332 10.0003 18.3332C14.6003 18.3332 18.3337 14.5998 18.3337 9.99984C18.3337 5.39984 14.6003 1.6665 10.0003 1.6665ZM13.867 7.33317C13.742 8.64984 13.2003 11.8498 12.9253 13.3248C12.8087 13.9498 12.5753 14.1582 12.3587 14.1832C11.8753 14.2248 11.5087 13.8665 11.042 13.5582C10.3087 13.0748 9.89199 12.7748 9.18366 12.3082C8.35866 11.7665 8.89199 11.4665 9.36699 10.9832C9.49199 10.8582 11.6253 8.9165 11.667 8.7415C11.6728 8.715 11.672 8.68748 11.6647 8.66134C11.6575 8.6352 11.644 8.61123 11.6253 8.5915C11.5753 8.54984 11.5087 8.5665 11.4503 8.57484C11.3753 8.5915 10.2087 9.3665 7.93366 10.8998C7.60033 11.1248 7.30032 11.2415 7.03366 11.2332C6.73366 11.2248 6.16699 11.0665 5.74199 10.9248C5.21699 10.7582 4.80866 10.6665 4.84199 10.3748C4.85866 10.2248 5.06699 10.0748 5.45866 9.9165C7.89199 8.85817 9.50866 8.15817 10.317 7.82484C12.6337 6.85817 13.1087 6.6915 13.4253 6.6915C13.492 6.6915 13.6503 6.70817 13.7503 6.7915C13.8337 6.85817 13.8587 6.94984 13.867 7.0165C13.8587 7.0665 13.8753 7.2165 13.867 7.33317Z" fill="#BCBCBC"/>
</svg>
