<svg width="483" height="374" viewBox="0 0 483 374" fill="none" xmlns="http://www.w3.org/2000/svg">
<g clip-path="url(#clip0_337_5991)">
<path d="M122 0.25H344C352.698 0.25 359.75 7.30152 359.75 16V230.75H106.25V16C106.25 7.30152 113.302 0.25 122 0.25Z" fill="url(#paint0_linear_337_5991)" fill-opacity="0.16" stroke="url(#paint1_linear_337_5991)" stroke-width="0.5"/>
<path d="M121 16.1582C122.657 16.1582 124 14.8151 124 13.1582C124 11.5013 122.657 10.1582 121 10.1582C119.343 10.1582 118 11.5013 118 13.1582C118 14.8151 119.343 16.1582 121 16.1582Z" fill="white"/>
<path d="M133 16.1582C134.657 16.1582 136 14.8151 136 13.1582C136 11.5013 134.657 10.1582 133 10.1582C131.343 10.1582 130 11.5013 130 13.1582C130 14.8151 131.343 16.1582 133 16.1582Z" fill="white"/>
<path d="M145 16.1582C146.657 16.1582 148 14.8151 148 13.1582C148 11.5013 146.657 10.1582 145 10.1582C143.343 10.1582 142 11.5013 142 13.1582C142 14.8151 143.343 16.1582 145 16.1582Z" fill="white"/>
<path d="M346.083 36.4668H123.083" stroke="white" stroke-width="0.5" stroke-dasharray="1 1"/>
<path d="M346.083 56.4668H123.083" stroke="white" stroke-width="0.5" stroke-dasharray="1 1"/>
<path d="M346.083 76.4668H123.083" stroke="white" stroke-width="0.5" stroke-dasharray="1 1"/>
<path d="M346.083 96.4668H123.083" stroke="white" stroke-width="0.5" stroke-dasharray="1 1"/>
<path d="M346.083 116.467H123.083" stroke="white" stroke-width="0.5" stroke-dasharray="1 1"/>
<path d="M346.083 136.467H123.083" stroke="white" stroke-width="0.5" stroke-dasharray="1 1"/>
<path d="M205.149 61.8399L161.349 117.093C160.631 117.999 159.264 118.024 158.514 117.144L147.539 104.272C146.815 103.422 145.506 103.411 144.767 104.247L127.407 123.881C126.359 125.066 127.2 126.932 128.782 126.932H336.441C337.454 126.932 338.276 126.111 338.276 125.097V35.2229C338.276 33.4263 335.962 32.6993 334.935 34.1732L305.232 76.785C304.64 77.6336 303.465 77.8261 302.633 77.2105L290.522 68.2421C289.702 67.6355 288.546 67.8125 287.946 68.6363L262.582 103.443C261.84 104.461 260.318 104.447 259.595 103.416L244.234 81.5148C243.89 81.0249 243.33 80.7332 242.731 80.7332H222.702C222.115 80.7332 221.563 80.4521 221.217 79.9771L208.072 61.9006C207.358 60.9183 205.904 60.888 205.149 61.8399Z" fill="url(#paint2_linear_337_5991)" fill-opacity="0.5"/>
<path d="M338.276 29.3794L305.232 76.785C304.64 77.6336 303.465 77.8261 302.633 77.2105L290.522 68.2421C289.702 67.6355 288.546 67.8125 287.946 68.6363L262.582 103.443C261.84 104.461 260.318 104.447 259.595 103.416L244.234 81.5148C243.89 81.0249 243.33 80.7332 242.731 80.7332H222.702C222.115 80.7332 221.563 80.4521 221.217 79.9771L208.072 61.9006C207.358 60.9183 205.904 60.888 205.149 61.8399L161.349 117.093C160.631 117.999 159.264 118.024 158.514 117.144L147.539 104.272C146.815 103.422 145.506 103.411 144.767 104.247L124.708 126.932" stroke="#D0DADD" stroke-width="0.5"/>
<path d="M206.191 63.324C207.252 63.324 208.113 62.5227 208.113 61.5343C208.113 60.5459 207.252 59.7446 206.191 59.7446C205.13 59.7446 204.269 60.5459 204.269 61.5343C204.269 62.5227 205.13 63.324 206.191 63.324Z" fill="#CEDDE0"/>
<path d="M145.961 108.477C149.382 108.477 152.156 105.893 152.156 102.707C152.156 99.5206 149.382 96.9375 145.961 96.9375C142.54 96.9375 139.766 99.5206 139.766 102.707C139.766 105.893 142.54 108.477 145.961 108.477Z" fill="#01EF67" fill-opacity="0.1"/>
<path d="M261.431 109.428C264.852 109.428 267.626 106.845 267.626 103.658C267.626 100.472 264.852 97.8887 261.431 97.8887C258.01 97.8887 255.236 100.472 255.236 103.658C255.236 106.845 258.01 109.428 261.431 109.428Z" fill="#01EF67" fill-opacity="0.1"/>
<path d="M145.961 104.279C146.894 104.279 147.65 103.575 147.65 102.706C147.65 101.837 146.894 101.132 145.961 101.132C145.028 101.132 144.272 101.837 144.272 102.706C144.272 103.575 145.028 104.279 145.961 104.279Z" fill="#01EF67"/>
<path d="M261.431 105.231C262.364 105.231 263.12 104.527 263.12 103.658C263.12 102.789 262.364 102.084 261.431 102.084C260.498 102.084 259.742 102.789 259.742 103.658C259.742 104.527 260.498 105.231 261.431 105.231Z" fill="#01EF67"/>
<path d="M289.689 69.8064C290.75 69.8064 291.611 69.0052 291.611 68.0167C291.611 67.0283 290.75 66.2271 289.689 66.2271C288.628 66.2271 287.767 67.0283 287.767 68.0167C287.767 69.0052 288.628 69.8064 289.689 69.8064Z" fill="#CEDDE0"/>
<path d="M337.078 31.5794C338.139 31.5794 339 30.7781 339 29.7897C339 28.8013 338.139 28 337.078 28C336.017 28 335.156 28.8013 335.156 29.7897C335.156 30.7781 336.017 31.5794 337.078 31.5794Z" fill="#CEDDE0"/>
<g filter="url(#filter0_f_337_5991)">
<path d="M61 315.118H32C27.5817 315.118 24 318.7 24 323.118V341.176C24 345.595 27.5817 349.176 32 349.176H61C65.4183 349.176 69 345.595 69 341.176V323.118C69 318.7 65.4183 315.118 61 315.118Z" fill="#EDC240" fill-opacity="0.34"/>
</g>
<path d="M68.6 262.288H13.4C7.79431 262.288 3.25 266.832 3.25 272.438V327.768C3.25 333.374 7.79431 337.918 13.4 337.918H68.6C74.2057 337.918 78.75 333.374 78.75 327.768V272.438C78.75 266.832 74.2057 262.288 68.6 262.288Z" fill="#EDC240" stroke="white" stroke-width="0.5"/>
<path d="M16 318.596C16 306.17 26.0736 296.096 38.5 296.096C50.9264 296.096 61 306.17 61 318.596V322.14H16V318.596Z" fill="url(#paint3_linear_337_5991)"/>
<path d="M38 296.096C44.0751 296.096 49 291.162 49 285.077C49 278.991 44.0751 274.058 38 274.058C31.9249 274.058 27 278.991 27 285.077C27 291.162 31.9249 296.096 38 296.096Z" fill="url(#paint4_linear_337_5991)"/>
<path d="M58.4971 313.125C58.7732 313.125 58.9971 313.349 58.9971 313.625V317.159L62.6104 317.14C62.8869 317.138 63.1126 317.361 63.1143 317.638C63.1158 317.914 62.8928 318.14 62.6162 318.142L58.9971 318.161V321.641C58.997 321.917 58.7731 322.141 58.4971 322.141C58.221 322.141 57.9972 321.917 57.9971 321.641V318.167L54.5039 318.188C54.2273 318.189 54.0016 317.966 54 317.689C53.9985 317.413 54.2215 317.187 54.4981 317.186L57.9971 317.165V313.625C57.9971 313.349 58.221 313.125 58.4971 313.125Z" fill="#EDC240"/>
<g filter="url(#filter1_f_337_5991)">
<path d="M451 312.528H422C417.582 312.528 414 316.11 414 320.528V338.586C414 343.004 417.582 346.586 422 346.586H451C455.418 346.586 459 343.004 459 338.586V320.528C459 316.11 455.418 312.528 451 312.528Z" fill="#EDC240" fill-opacity="0.34"/>
</g>
<path d="M463.6 265.698H408.4C402.794 265.698 398.25 270.243 398.25 275.848V331.178C398.25 336.784 402.794 341.328 408.4 341.328H463.6C469.206 341.328 473.75 336.784 473.75 331.178V275.848C473.75 270.243 469.206 265.698 463.6 265.698Z" fill="#EDC240" stroke="white" stroke-width="0.5"/>
<path d="M411 322.006C411 309.579 421.074 299.506 433.5 299.506C445.926 299.506 456 309.579 456 322.006V325.55H411V322.006Z" fill="url(#paint5_linear_337_5991)"/>
<path d="M433 299.506C439.075 299.506 444 294.573 444 288.487C444 282.402 439.075 277.468 433 277.468C426.925 277.468 422 282.402 422 288.487C422 294.573 426.925 299.506 433 299.506Z" fill="url(#paint6_linear_337_5991)"/>
<path d="M453.497 316.535C453.773 316.535 453.997 316.759 453.997 317.035V320.569L457.61 320.55C457.887 320.548 458.113 320.771 458.114 321.048C458.116 321.324 457.893 321.55 457.616 321.552L453.997 321.571V325.051C453.997 325.327 453.773 325.551 453.497 325.551C453.221 325.55 452.997 325.327 452.997 325.051V321.577L449.504 321.597C449.227 321.599 449.002 321.376 449 321.099C448.999 320.823 449.222 320.597 449.498 320.595L452.997 320.575V317.035C452.997 316.759 453.221 316.535 453.497 316.535Z" fill="#EDC240"/>
<path d="M260.6 122.25H205.4C199.794 122.25 195.25 126.794 195.25 132.4V187.73C195.25 193.336 199.794 197.88 205.4 197.88H260.6C266.206 197.88 270.75 193.336 270.75 187.73V132.4C270.75 126.794 266.206 122.25 260.6 122.25Z" fill="#EDC240" stroke="white" stroke-width="0.5"/>
<path d="M250.497 173.087C250.773 173.087 250.997 173.311 250.997 173.587V177.122L254.61 177.102C254.887 177.1 255.113 177.323 255.114 177.6C255.116 177.876 254.893 178.102 254.616 178.104L250.997 178.123V181.603C250.997 181.879 250.773 182.103 250.497 182.103C250.221 182.103 249.997 181.879 249.997 181.603V178.129L246.504 178.15C246.227 178.151 246.002 177.928 246 177.652C245.999 177.375 246.222 177.15 246.498 177.149L249.997 177.128V173.587C249.997 173.311 250.221 173.087 250.497 173.087Z" fill="#EDC240"/>
<mask id="mask0_337_5991" style="mask-type:luminance" maskUnits="userSpaceOnUse" x="214" y="134" width="35" height="49">
<path d="M249 134.021H214V182.103H249V134.021Z" fill="white"/>
</mask>
<g mask="url(#mask0_337_5991)">
<path d="M225.962 134.061C224.612 134.278 222.687 134.488 221.847 135.907C220.761 137.745 222.936 138.073 223.78 139.002C225.086 140.442 223.581 141.058 224.797 143.014C225.423 144.024 226.378 145.317 227.128 146.12C228.311 145.623 228.999 145.254 230.327 145.177C231.717 145.096 232.683 145.682 233.997 145.829C235.34 145.98 236.755 146.415 237.02 144.867C237.215 143.725 236.795 142.528 237.534 141.345C238.366 140.015 241.66 137.97 240.371 135.715C239.068 133.431 235.829 135.115 234.388 135.874C233.27 136.463 232.054 136.489 230.867 136.109C229.079 135.535 228.047 133.722 225.955 134.061H225.962Z" fill="url(#paint7_linear_337_5991)"/>
<path d="M248.939 170.555C247.003 154.495 236.011 144.993 236.011 144.993H226.991C226.991 144.993 216.002 154.495 214.062 170.555C214.062 170.555 212.01 182.121 231.501 182.103C250.992 182.121 248.939 170.555 248.939 170.555Z" fill="url(#paint8_linear_337_5991)"/>
<path d="M226.994 139.621C226.994 139.621 227.052 139.698 227.142 139.842C227.233 139.986 227.356 140.188 227.486 140.439C227.62 140.689 227.761 140.988 227.899 141.312C227.967 141.474 228.036 141.644 228.101 141.817C228.17 141.99 228.232 142.167 228.293 142.344C228.351 142.521 228.412 142.701 228.463 142.878C228.517 143.055 228.564 143.232 228.612 143.401C228.702 143.744 228.771 144.064 228.818 144.348C228.865 144.628 228.894 144.868 228.908 145.037C228.923 145.206 228.926 145.306 228.926 145.306C228.926 145.306 228.865 145.229 228.778 145.085C228.688 144.945 228.564 144.739 228.431 144.488C228.297 144.237 228.155 143.939 228.018 143.615C227.949 143.453 227.88 143.283 227.815 143.11C227.746 142.937 227.689 142.76 227.627 142.583C227.569 142.406 227.508 142.226 227.457 142.049C227.403 141.872 227.356 141.695 227.312 141.526C227.222 141.183 227.153 140.863 227.106 140.579C227.055 140.299 227.026 140.059 227.012 139.89C226.997 139.72 226.994 139.625 226.994 139.625V139.621Z" fill="white"/>
<path d="M234.707 139.514C234.707 139.514 234.718 139.613 234.725 139.783C234.732 139.952 234.736 140.192 234.725 140.476C234.714 140.759 234.689 141.091 234.645 141.441C234.624 141.618 234.598 141.798 234.569 141.979C234.54 142.163 234.504 142.347 234.472 142.531C234.435 142.716 234.395 142.9 234.352 143.08C234.312 143.261 234.265 143.438 234.218 143.607C234.124 143.946 234.023 144.263 233.925 144.528C233.827 144.797 233.733 145.015 233.661 145.17C233.592 145.324 233.541 145.409 233.541 145.409C233.541 145.409 233.53 145.31 233.523 145.14C233.516 144.971 233.512 144.731 233.523 144.447C233.534 144.164 233.559 143.832 233.603 143.482C233.625 143.309 233.65 143.125 233.679 142.944C233.708 142.76 233.744 142.576 233.777 142.391C233.816 142.207 233.853 142.023 233.896 141.842C233.939 141.662 233.983 141.485 234.03 141.316C234.124 140.977 234.225 140.66 234.323 140.395C234.421 140.126 234.515 139.908 234.587 139.753C234.66 139.599 234.707 139.514 234.707 139.514Z" fill="white"/>
<path d="M232.521 140.52C232.521 140.52 232.55 140.593 232.589 140.726C232.629 140.859 232.68 141.047 232.727 141.275C232.774 141.504 232.817 141.765 232.85 142.053C232.883 142.336 232.904 142.642 232.915 142.944C232.937 143.552 232.901 144.164 232.835 144.621C232.803 144.849 232.767 145.041 232.734 145.177C232.705 145.31 232.68 145.387 232.68 145.387C232.68 145.387 232.651 145.313 232.611 145.181C232.571 145.048 232.521 144.86 232.474 144.632C232.379 144.178 232.307 143.571 232.289 142.963C232.282 142.657 232.282 142.355 232.296 142.067C232.311 141.78 232.336 141.515 232.369 141.286C232.401 141.058 232.437 140.866 232.47 140.73C232.502 140.593 232.528 140.52 232.528 140.52H232.521Z" fill="white"/>
<path d="M231.174 139.308C231.174 139.308 231.207 139.4 231.243 139.562C231.286 139.724 231.337 139.956 231.38 140.232C231.427 140.509 231.467 140.833 231.496 141.179C231.525 141.526 231.543 141.898 231.551 142.266C231.551 142.45 231.551 142.638 231.551 142.819C231.551 142.999 231.54 143.18 231.529 143.353C231.507 143.7 231.475 144.024 231.435 144.304C231.395 144.584 231.351 144.816 231.312 144.978C231.275 145.14 231.246 145.232 231.246 145.232C231.246 145.232 231.214 145.14 231.174 144.978C231.134 144.816 231.08 144.587 231.037 144.307C230.99 144.031 230.95 143.707 230.921 143.361C230.906 143.187 230.892 143.007 230.885 142.826C230.874 142.646 230.874 142.458 230.866 142.274C230.866 141.901 230.87 141.533 230.892 141.183C230.914 140.837 230.946 140.512 230.986 140.232C231.026 139.952 231.069 139.72 231.109 139.558C231.145 139.396 231.174 139.304 231.174 139.304V139.308Z" fill="white"/>
<path d="M229.469 140.542C229.469 140.542 229.502 140.616 229.545 140.748C229.589 140.881 229.647 141.069 229.701 141.297C229.755 141.526 229.806 141.795 229.849 142.078C229.893 142.366 229.922 142.672 229.944 142.981C229.951 143.136 229.962 143.291 229.962 143.442C229.965 143.593 229.965 143.744 229.962 143.887C229.958 144.179 229.94 144.451 229.915 144.683C229.889 144.915 229.857 145.111 229.828 145.251C229.799 145.387 229.777 145.468 229.777 145.468C229.777 145.468 229.744 145.394 229.701 145.262C229.658 145.129 229.6 144.941 229.545 144.713C229.491 144.484 229.44 144.219 229.397 143.932C229.375 143.788 229.357 143.641 229.343 143.49C229.325 143.338 229.317 143.184 229.303 143.029C229.285 142.72 229.278 142.414 229.281 142.123C229.285 141.832 229.303 141.559 229.328 141.327C229.354 141.095 229.386 140.899 229.411 140.759C229.437 140.623 229.462 140.542 229.462 140.542H229.469Z" fill="white"/>
<g style="mix-blend-mode:multiply" opacity="0.5">
<path d="M226.563 146.124C226.563 146.124 222.585 153.537 221.55 160.633C221.55 160.633 221.637 163.551 224.058 160.95C224.058 160.95 226.617 153.452 227.128 146.127H226.567L226.563 146.124Z" fill="white"/>
</g>
<g style="mix-blend-mode:multiply" opacity="0.5">
<path d="M230.664 145.907C230.664 145.907 228.449 154.049 229.024 161.197C229.024 161.197 229.763 164.016 231.536 160.924C231.536 160.924 232.35 153.032 231.21 145.778L230.664 145.907Z" fill="white"/>
</g>
<g style="mix-blend-mode:multiply" opacity="0.5">
<path d="M233.969 145.704C233.969 145.704 234.305 154.145 237.002 160.773C237.002 160.773 238.551 163.227 239.311 159.731C239.311 159.731 237.715 151.964 234.454 145.409L233.972 145.704H233.969Z" fill="white"/>
</g>
<path d="M237.874 145.42C237.874 145.807 237.566 146.124 237.182 146.124H225.89C225.51 146.124 225.198 145.807 225.198 145.42C225.198 145.033 225.51 144.716 225.89 144.716H237.182C237.566 144.716 237.874 145.029 237.874 145.42Z" fill="#222222"/>
<path d="M238.185 144.013C238.185 144.399 237.877 144.716 237.494 144.716H225.51C225.13 144.716 224.818 144.403 224.818 144.013C224.818 143.626 225.13 143.309 225.51 143.309H237.494C237.874 143.309 238.185 143.626 238.185 144.013Z" fill="#222222"/>
</g>
<path d="M248.372 261.49H216.614C211.008 261.49 206.464 266.035 206.464 271.64V303.488C206.464 309.094 211.008 313.638 216.614 313.638H248.372C253.977 313.638 258.522 309.094 258.522 303.488V271.64C258.522 266.035 253.977 261.49 248.372 261.49Z" fill="#EDC240" stroke="white" stroke-width="0.5"/>
<path d="M215.204 300.353C215.204 291.759 222.17 284.793 230.764 284.793C239.357 284.793 246.324 291.759 246.324 300.353V302.804H215.204V300.353Z" fill="url(#paint9_linear_337_5991)"/>
<path d="M230.418 284.793C234.619 284.793 238.025 281.381 238.025 277.173C238.025 272.964 234.619 269.553 230.418 269.553C226.217 269.553 222.811 272.964 222.811 277.173C222.811 281.381 226.217 284.793 230.418 284.793Z" fill="url(#paint10_linear_337_5991)"/>
<path d="M244.593 296.569C244.784 296.57 244.939 296.724 244.939 296.915V299.359L247.438 299.346C247.629 299.345 247.785 299.499 247.786 299.69C247.787 299.882 247.633 300.038 247.442 300.039L244.939 300.053V302.458C244.939 302.649 244.784 302.804 244.593 302.804C244.402 302.804 244.248 302.649 244.248 302.458V300.057L241.832 300.07C241.64 300.071 241.484 299.918 241.483 299.727C241.482 299.535 241.636 299.379 241.828 299.378L244.248 299.363V296.915C244.248 296.724 244.402 296.569 244.593 296.569Z" fill="#EDC240"/>
<path d="M44 251L42.5566 248.5H45.4434L44 251ZM44 248.75H43.75V170H44H44.25V248.75H44ZM52 162V161.75H126.967V162V162.25H52V162ZM126.967 162V161.75H188V162V162.25H126.967V162ZM44 170H43.75C43.75 165.444 47.4437 161.75 52 161.75V162V162.25C47.7198 162.25 44.25 165.72 44.25 170H44Z" fill="url(#paint11_linear_337_5991)"/>
<path d="M233 255L234.443 252.5H231.557L233 255ZM233 252.75H233.25V226.768H233H232.75V252.75H233ZM233 226.768H233.25V206H233H232.75V226.768H233Z" fill="url(#paint12_linear_337_5991)"/>
<path d="M439 257L440.443 254.5H437.557L439 257ZM439 254.75H439.25V176H439H438.75V254.75H439ZM431 168V167.75H350.272V168V168.25H431V168ZM350.272 168V167.75H285V168V168.25H350.272V168ZM439 176H439.25C439.25 171.444 435.556 167.75 431 167.75V168V168.25C435.28 168.25 438.75 171.72 438.75 176H439Z" fill="url(#paint13_linear_337_5991)"/>
<path opacity="0.6" d="M231.912 165.546L223 160.272L231.912 155L240.83 160.272L231.912 165.546Z" fill="#F7C132"/>
<path opacity="0.7" d="M231.912 176.087L223 170.815V160.272L231.912 165.546V176.087Z" fill="#F7C132"/>
<path d="M231.912 176.087V165.546L240.83 160.272V170.815L231.912 176.087Z" fill="#F7C132"/>
</g>
<defs>
<filter id="filter0_f_337_5991" x="0" y="291.118" width="93" height="82.0581" filterUnits="userSpaceOnUse" color-interpolation-filters="sRGB">
<feFlood flood-opacity="0" result="BackgroundImageFix"/>
<feBlend mode="normal" in="SourceGraphic" in2="BackgroundImageFix" result="shape"/>
<feGaussianBlur stdDeviation="12" result="effect1_foregroundBlur_337_5991"/>
</filter>
<filter id="filter1_f_337_5991" x="390" y="288.528" width="93" height="82.0581" filterUnits="userSpaceOnUse" color-interpolation-filters="sRGB">
<feFlood flood-opacity="0" result="BackgroundImageFix"/>
<feBlend mode="normal" in="SourceGraphic" in2="BackgroundImageFix" result="shape"/>
<feGaussianBlur stdDeviation="12" result="effect1_foregroundBlur_337_5991"/>
</filter>
<linearGradient id="paint0_linear_337_5991" x1="233" y1="5.01672e-09" x2="233" y2="231" gradientUnits="userSpaceOnUse">
<stop offset="0.180793" stop-color="white"/>
<stop offset="1" stop-color="white"/>
</linearGradient>
<linearGradient id="paint1_linear_337_5991" x1="233" y1="5.01672e-09" x2="233" y2="231" gradientUnits="userSpaceOnUse">
<stop stop-color="#959CA3"/>
<stop offset="0.951923" stop-color="#0C141B"/>
</linearGradient>
<linearGradient id="paint2_linear_337_5991" x1="231.492" y1="29.3794" x2="231.492" y2="126.932" gradientUnits="userSpaceOnUse">
<stop offset="0.0769231" stop-color="#FEFEFE"/>
<stop offset="0.807692" stop-color="#707070"/>
</linearGradient>
<linearGradient id="paint3_linear_337_5991" x1="38.5" y1="296.096" x2="38.5" y2="322.14" gradientUnits="userSpaceOnUse">
<stop offset="0.0769231" stop-color="#232D36"/>
<stop offset="0.807692" stop-color="#12191F"/>
</linearGradient>
<linearGradient id="paint4_linear_337_5991" x1="38" y1="274.058" x2="38" y2="296.096" gradientUnits="userSpaceOnUse">
<stop offset="0.0769231" stop-color="#232D36"/>
<stop offset="0.807692" stop-color="#12191F"/>
</linearGradient>
<linearGradient id="paint5_linear_337_5991" x1="433.5" y1="299.506" x2="433.5" y2="325.55" gradientUnits="userSpaceOnUse">
<stop offset="0.0769231" stop-color="#232D36"/>
<stop offset="0.807692" stop-color="#12191F"/>
</linearGradient>
<linearGradient id="paint6_linear_337_5991" x1="433" y1="277.468" x2="433" y2="299.506" gradientUnits="userSpaceOnUse">
<stop offset="0.0769231" stop-color="#232D36"/>
<stop offset="0.807692" stop-color="#12191F"/>
</linearGradient>
<linearGradient id="paint7_linear_337_5991" x1="231.108" y1="134.019" x2="231.108" y2="146.12" gradientUnits="userSpaceOnUse">
<stop offset="0.0769231" stop-color="#232D36"/>
<stop offset="0.807692" stop-color="#12191F"/>
</linearGradient>
<linearGradient id="paint8_linear_337_5991" x1="231.501" y1="144.993" x2="231.501" y2="182.103" gradientUnits="userSpaceOnUse">
<stop offset="0.0769231" stop-color="#232D36"/>
<stop offset="0.807692" stop-color="#12191F"/>
</linearGradient>
<linearGradient id="paint9_linear_337_5991" x1="230.764" y1="284.793" x2="230.764" y2="302.804" gradientUnits="userSpaceOnUse">
<stop offset="0.0769231" stop-color="#232D36"/>
<stop offset="0.807692" stop-color="#12191F"/>
</linearGradient>
<linearGradient id="paint10_linear_337_5991" x1="230.418" y1="269.553" x2="230.418" y2="284.793" gradientUnits="userSpaceOnUse">
<stop offset="0.0769231" stop-color="#232D36"/>
<stop offset="0.807692" stop-color="#12191F"/>
</linearGradient>
<linearGradient id="paint11_linear_337_5991" x1="163.205" y1="186.403" x2="45.4754" y2="192.762" gradientUnits="userSpaceOnUse">
<stop offset="0.0553971" stop-color="#12191F"/>
<stop offset="0.759615" stop-color="#959CA3"/>
</linearGradient>
<linearGradient id="paint12_linear_337_5991" x1="224.5" y1="214.437" x2="222.386" y2="254.503" gradientUnits="userSpaceOnUse">
<stop offset="0.0553971" stop-color="#12191F"/>
<stop offset="0.759615" stop-color="#959CA3"/>
</linearGradient>
<linearGradient id="paint13_linear_337_5991" x1="311.517" y1="192.403" x2="437.37" y2="199.673" gradientUnits="userSpaceOnUse">
<stop offset="0.0553971" stop-color="white"/>
<stop offset="0.759615" stop-color="#959CA3"/>
</linearGradient>
<clipPath id="clip0_337_5991">
<rect width="483" height="374" fill="white"/>
</clipPath>
</defs>
</svg>
