<svg width="623" height="545" viewBox="0 0 623 545" fill="none" xmlns="http://www.w3.org/2000/svg">
<mask id="mask0_337_11826" style="mask-type:luminance" maskUnits="userSpaceOnUse" x="4" y="314" width="611" height="231">
<path d="M614 314.831H4V544.813H614V314.831Z" fill="white"/>
</mask>
<g mask="url(#mask0_337_11826)">
<g opacity="0.1">
<path fill-rule="evenodd" clip-rule="evenodd" d="M589.975 445.015L360.955 531.36C346.941 536.643 328.108 539.388 309 539.388C289.892 539.388 271.06 536.643 257.045 531.36L208.133 512.919L200.379 515.848L255.113 536.484C284.751 547.657 333.249 547.657 362.887 536.484L591.907 450.138C606.995 444.45 614 437.137 614 429.822C614 424.25 609.621 418.678 601.102 413.824C599.953 414.993 598.269 416.155 595.903 417.253C599.718 419.168 602.617 421.141 604.675 423.06C607.695 425.875 608.524 428.183 608.524 429.822C608.524 431.576 607.719 433.885 604.84 436.619C601.917 439.395 597.122 442.32 589.975 445.015ZM195.193 508.04L61.0461 457.465C59.9287 458.307 59.5035 459.201 59.5035 460.093C59.5035 461.516 61.1202 462.939 63.8145 464.157L103.142 478.985C104.185 479.378 105.112 479.797 105.927 480.238L187.438 510.969L195.193 508.04ZM42.6048 456.363C43.6352 455.048 45.3002 453.725 47.8117 452.474L28.0575 445.027C21.1771 442.334 16.3459 439.402 13.3247 436.585C10.3044 433.769 9.47576 431.462 9.47576 429.822C9.47576 428.183 10.3044 425.875 13.3247 423.06C16.3459 420.243 21.1769 417.311 28.057 414.618L257.045 328.285C271.06 323.001 289.892 320.257 309 320.257C328.108 320.257 346.941 323.001 360.955 328.285L369.087 331.351C372.24 330.453 375.72 329.792 379.356 329.37L362.887 323.161C333.249 311.987 284.751 311.987 255.113 323.161L26.0936 409.506C11.5442 415.194 4 422.509 4 429.822C4 437.137 11.5442 444.45 26.0936 450.138L42.6048 456.363ZM526.033 384.67L442.862 353.313C441.693 353.006 440.581 352.657 439.539 352.264L400.069 337.383C395.286 335.579 388.047 335.231 382.315 336.338L583.175 412.065C584.43 411.184 584.901 410.243 584.901 409.302C584.901 407.881 583.823 406.458 580.59 405.443L527.008 385.241C526.564 385.073 526.239 384.878 526.033 384.67Z" fill="#E4C28A"/>
<path d="M580.59 405.443L557.958 396.91L527.008 385.241C525.352 384.617 525.352 383.605 527.008 382.979L533.923 380.373C534.042 380.328 534.413 380.25 534.583 380.25C534.633 380.25 534.806 380.243 534.842 380.229L580.59 362.982C583.823 361.762 584.901 360.34 584.901 358.918C584.901 357.496 583.284 356.074 580.59 354.855L534.787 337.586C528.859 335.351 519.159 335.351 513.232 337.586L489.521 346.525L473.903 352.317C464.351 355.859 449.012 355.835 439.539 352.264L424.318 346.525L400.069 337.383C394.142 335.147 384.442 335.147 378.514 337.383L332.71 354.652C329.477 355.871 328.4 357.293 328.4 358.715C328.4 360.137 330.016 361.559 332.71 362.778L378.514 380.048C384.466 382.292 384.466 385.93 378.514 388.174L205.008 453.589C195.479 457.181 180.03 457.181 170.501 453.589L156.5 448.311L131.174 438.762C125.246 436.527 115.546 436.527 109.619 438.762L63.8151 456.03C60.5819 457.249 59.5042 458.672 59.5042 460.093C59.5042 461.516 61.1207 462.939 63.8151 464.157L89.1419 473.706L103.142 478.985C112.671 482.577 112.671 488.402 103.142 491.994L95.6075 494.835L63.8151 506.821C60.5819 508.04 59.5042 509.463 59.5042 510.885C59.5042 512.307 61.1207 513.73 63.8151 514.948L109.619 532.217C115.546 534.452 125.246 534.452 131.174 532.217L162.966 520.23L439.397 415.82C448.923 412.221 464.385 412.219 473.919 415.814L490.599 422.103L513.232 430.635C519.159 432.87 528.859 432.87 534.787 430.635L580.59 413.366C583.823 412.148 584.901 410.725 584.901 409.302C584.901 407.881 583.823 406.458 580.59 405.443Z" fill="white" fill-opacity="0.4"/>
<path d="M467.236 363.291L467.238 363.292L513.024 380.351C514.334 380.944 515.348 381.573 516.027 382.202C516.713 382.837 516.996 383.413 516.996 383.907C516.996 384.969 516.218 386.259 513.039 387.458L467.236 404.727C464.352 405.814 460.516 406.368 456.651 406.368C452.787 406.368 448.951 405.814 446.067 404.727L400.28 387.464C398.969 386.87 397.955 386.241 397.276 385.613C396.588 384.977 396.307 384.401 396.307 383.907C396.307 382.846 397.083 381.556 400.263 380.356H400.264L446.065 363.292L446.067 363.291C448.951 362.203 452.787 361.649 456.651 361.649C460.516 361.649 464.352 362.203 467.236 363.291Z" fill="black" stroke="black" stroke-width="1.09515"/>
</g>
</g>
<mask id="mask1_337_11826" style="mask-type:luminance" maskUnits="userSpaceOnUse" x="4" y="288" width="611" height="231">
<path d="M614 288.548H4V518.53H614V288.548Z" fill="white"/>
</mask>
<g mask="url(#mask1_337_11826)">
<g opacity="0.2">
<path fill-rule="evenodd" clip-rule="evenodd" d="M589.975 418.732L360.955 505.077C346.941 510.36 328.108 513.104 309 513.104C289.892 513.104 271.06 510.36 257.045 505.077L208.133 486.635L200.379 489.564L255.113 510.2C284.751 521.374 333.249 521.374 362.887 510.2L591.907 423.855C606.995 418.167 614 410.853 614 403.539C614 397.966 609.621 392.394 601.102 387.541C599.953 388.709 598.269 389.871 595.903 390.97C599.718 392.884 602.617 394.857 604.675 396.776C607.695 399.592 608.524 401.899 608.524 403.539C608.524 405.292 607.719 407.602 604.84 410.335C601.917 413.111 597.122 416.036 589.975 418.732ZM195.193 481.757L61.0461 431.181C59.9287 432.023 59.5035 432.917 59.5035 433.81C59.5035 435.232 61.1202 436.655 63.8145 437.874L103.142 452.701C104.185 453.094 105.112 453.514 105.927 453.954L187.438 484.685L195.193 481.757ZM42.6048 430.08C43.6352 428.764 45.3002 427.441 47.8117 426.191L28.0575 418.744C21.1771 416.051 16.3459 413.118 13.3247 410.301C10.3044 407.485 9.47576 405.178 9.47576 403.539C9.47576 401.899 10.3044 399.592 13.3247 396.776C16.3459 393.959 21.1769 391.028 28.057 388.335L257.045 302.002C271.06 296.717 289.892 293.973 309 293.973C328.108 293.973 346.941 296.717 360.955 302.002L369.087 305.067C372.24 304.169 375.72 303.508 379.356 303.087L362.887 296.877C333.249 285.703 284.751 285.703 255.113 296.877L26.0936 383.222C11.5442 388.911 4 396.225 4 403.539C4 410.853 11.5442 418.167 26.0936 423.855L42.6048 430.08ZM526.033 358.387L442.862 327.029C441.693 326.722 440.581 326.373 439.539 325.98L400.069 311.099C395.286 309.295 388.047 308.947 382.315 310.054L583.175 385.782C584.43 384.9 584.901 383.959 584.901 383.019C584.901 381.597 583.823 380.175 580.59 379.159L527.008 358.957C526.564 358.79 526.239 358.595 526.033 358.387Z" fill="#E4C28A"/>
<path d="M580.59 379.159L557.958 370.626L527.008 358.957C525.352 358.333 525.352 357.321 527.008 356.696L533.923 354.089C534.042 354.044 534.413 353.967 534.583 353.967C534.633 353.967 534.806 353.959 534.842 353.946L580.59 336.698C583.823 335.478 584.901 334.057 584.901 332.634C584.901 331.213 583.284 329.79 580.59 328.571L534.787 311.303C528.859 309.068 519.159 309.068 513.232 311.303L489.521 320.241L473.903 326.034C464.351 329.575 449.012 329.551 439.539 325.98L424.318 320.241L400.069 311.099C394.142 308.864 384.442 308.864 378.514 311.099L332.71 328.368C329.477 329.587 328.4 331.009 328.4 332.431C328.4 333.853 330.016 335.276 332.71 336.494L378.514 353.764C384.466 356.008 384.466 359.646 378.514 361.89L205.008 427.306C195.479 430.898 180.03 430.898 170.501 427.306L156.5 422.027L131.174 412.478C125.246 410.243 115.546 410.243 109.619 412.478L63.8151 429.747C60.5819 430.966 59.5042 432.388 59.5042 433.81C59.5042 435.232 61.1207 436.655 63.8151 437.874L89.1419 447.423L103.142 452.701C112.671 456.293 112.671 462.118 103.142 465.71L95.6075 468.551L63.8151 480.538C60.5819 481.757 59.5042 483.179 59.5042 484.602C59.5042 486.023 61.1207 487.446 63.8151 488.665L109.619 505.933C115.546 508.168 125.246 508.168 131.174 505.933L162.966 493.947L439.397 389.536C448.923 385.937 464.385 385.935 473.919 389.531L490.599 395.819L513.232 404.351C519.159 406.586 528.859 406.586 534.787 404.351L580.59 387.083C583.823 385.864 584.901 384.441 584.901 383.019C584.901 381.597 583.823 380.175 580.59 379.159Z" fill="white" fill-opacity="0.6"/>
<path d="M467.236 337.007L467.238 337.008L513.024 354.067C514.334 354.661 515.348 355.289 516.027 355.918C516.713 356.553 516.996 357.129 516.996 357.623C516.996 358.686 516.218 359.976 513.039 361.175L467.236 378.443C464.352 379.531 460.516 380.085 456.651 380.085C452.787 380.085 448.951 379.531 446.067 378.443L400.28 361.18C398.969 360.587 397.955 359.957 397.276 359.329C396.588 358.693 396.307 358.117 396.307 357.623C396.307 356.562 397.083 355.272 400.263 354.073H400.264L446.065 337.008L446.067 337.007C448.951 335.919 452.787 335.365 456.651 335.365C460.516 335.365 464.352 335.919 467.236 337.007Z" fill="black" stroke="black" stroke-width="1.09515"/>
</g>
</g>
<g filter="url(#filter0_dd_337_11826)">
<mask id="mask2_337_11826" style="mask-type:luminance" maskUnits="userSpaceOnUse" x="4" y="265" width="611" height="231">
<path d="M614 265.549H4V495.531H614V265.549Z" fill="white"/>
</mask>
<g mask="url(#mask2_337_11826)">
<path fill-rule="evenodd" clip-rule="evenodd" d="M589.975 395.733L360.955 482.079C346.941 487.362 328.108 490.106 309 490.106C289.892 490.106 271.06 487.362 257.045 482.079L208.133 463.637L200.379 466.566L255.113 487.202C284.751 498.376 333.249 498.376 362.887 487.202L591.907 400.857C606.995 395.168 614 387.855 614 380.54C614 374.968 609.621 369.396 601.102 364.542C599.953 365.711 598.269 366.873 595.903 367.971C599.718 369.886 602.617 371.859 604.675 373.778C607.695 376.593 608.524 378.901 608.524 380.54C608.524 382.294 607.719 384.603 604.84 387.337C601.917 390.113 597.122 393.038 589.975 395.733ZM195.193 458.758L61.0461 408.183C59.9287 409.025 59.5035 409.919 59.5035 410.812C59.5035 412.234 61.1202 413.657 63.8145 414.876L103.142 429.703C104.185 430.096 105.112 430.516 105.926 430.956L187.438 461.687L195.193 458.758ZM42.6048 407.081C43.6352 405.766 45.3002 404.443 47.8117 403.193L28.0575 395.746C21.1771 393.053 16.3459 390.12 13.3247 387.303C10.3044 384.487 9.47576 382.18 9.47576 380.54C9.47576 378.901 10.3044 376.593 13.3247 373.778C16.3459 370.961 21.1769 368.029 28.057 365.336L257.045 279.003C271.06 273.719 289.892 270.975 309 270.975C328.108 270.975 346.941 273.719 360.955 279.003L369.087 282.069C372.24 281.171 375.72 280.51 379.356 280.089L362.887 273.879C333.249 262.705 284.751 262.705 255.113 273.879L26.0936 360.224C11.5442 365.912 4 373.227 4 380.54C4 387.855 11.5442 395.168 26.0936 400.857L42.6048 407.081ZM526.033 335.388L442.862 304.031C441.693 303.724 440.581 303.375 439.539 302.982L400.069 288.101C395.286 286.297 388.047 285.949 382.315 287.056L583.175 362.784C584.43 361.902 584.901 360.961 584.901 360.021C584.901 358.599 583.823 357.176 580.59 356.161L527.008 335.959C526.564 335.791 526.239 335.596 526.033 335.388Z" fill="#E4C28A"/>
<path d="M467.428 355.957L513.233 338.688C516.466 337.469 517.544 336.048 517.544 334.625C517.544 333.203 515.927 331.781 513.233 330.562L467.428 313.496C461.501 311.261 451.802 311.261 445.873 313.496L400.07 330.562C396.837 331.781 395.759 333.203 395.759 334.625C395.759 336.048 397.376 337.469 400.07 338.688L445.873 355.957C451.802 358.193 461.501 358.193 467.428 355.957Z" fill="#1C1C1E"/>
</g>
</g>
<path d="M471.374 337.486C474.311 326.327 469.709 310.999 461.092 303.246C456.785 299.369 452.28 298.132 448.507 299.237L444.522 300.449C440.734 301.56 437.656 305.039 436.2 310.62C433.265 321.776 437.867 337.103 446.48 344.857C450.784 348.732 455.29 349.968 459.06 348.87L459.071 348.859L463.056 347.647C466.838 346.533 469.908 343.057 471.374 337.486Z" fill="#FFEF5F" stroke="black" stroke-width="0.536625" stroke-linecap="round" stroke-linejoin="round"/>
<path d="M439.403 314.034C439.527 312.472 439.788 310.925 440.182 309.409C443.118 298.253 452.483 295.495 461.093 303.247C469.704 310.997 474.313 326.327 471.375 337.486C469.91 343.057 466.84 346.534 463.053 347.656C459.819 348.607 456.067 347.833 452.36 345.169C451.704 344.696 451.074 344.187 450.473 343.644C449.179 342.469 447.998 341.172 446.949 339.772C444.922 337.054 443.279 334.069 442.069 330.903C441.601 329.705 441.193 328.482 440.839 327.245C440.038 324.463 439.546 321.6 439.368 318.711" stroke="black" stroke-width="0.536625" stroke-linecap="round" stroke-linejoin="round"/>
<path d="M460.831 303.641C452.44 296.092 443.333 298.787 440.459 309.645C440.073 311.122 439.82 312.63 439.701 314.152C439.701 314.152 439.664 317.601 439.78 319.085C439.981 321.896 440.462 324.68 441.215 327.395C441.553 328.598 441.952 329.787 442.413 330.96C443.594 334.048 445.195 336.958 447.172 339.608C448.195 340.973 449.346 342.236 450.61 343.382C451.194 343.91 451.807 344.406 452.445 344.867C456.061 347.46 459.722 348.222 462.864 347.292" stroke="#E0F9FF" stroke-width="0.536625" stroke-linecap="round" stroke-linejoin="round"/>
<path d="M451.907 339.612C445.191 333.29 441.472 320.921 443.615 311.996C445.757 303.07 452.922 300.96 459.648 307.276C466.375 313.59 470.083 325.967 467.944 334.897C466.868 339.367 464.541 342.128 461.652 342.973C458.737 343.826 455.276 342.784 451.907 339.612Z" stroke="black" stroke-width="0.536625" stroke-linecap="round" stroke-linejoin="round"/>
<path d="M460.486 342.857C463.322 342.018 465.597 339.323 466.642 334.959C468.734 326.223 465.102 314.126 458.526 307.938C454.367 304.02 450.028 303.421 446.873 305.722C450.141 302.563 455.003 302.904 459.649 307.277C466.369 313.604 470.084 325.969 467.946 334.899C467.704 335.938 467.36 336.95 466.919 337.923C465.678 340.62 463.826 342.333 461.653 342.976C460.559 343.283 459.408 343.337 458.29 343.13C459.034 343.159 459.776 343.067 460.49 342.857H460.486Z" fill="black" stroke="black" stroke-width="0.536625" stroke-linecap="round" stroke-linejoin="round"/>
<path fill-rule="evenodd" clip-rule="evenodd" d="M448.704 327.435L457.835 329.623L460.757 334.862L448.704 327.435Z" fill="white"/>
<path fill-rule="evenodd" clip-rule="evenodd" d="M462.771 324.535L457.761 329.735L460.586 334.8L462.771 324.535Z" fill="white"/>
<path fill-rule="evenodd" clip-rule="evenodd" d="M447.782 326.224L456.885 328.363L453.17 321.7L447.782 326.224Z" fill="white"/>
<path fill-rule="evenodd" clip-rule="evenodd" d="M461.755 323.043L456.789 328.318L453.073 321.655L461.755 323.043Z" fill="white"/>
<path fill-rule="evenodd" clip-rule="evenodd" d="M448.161 325.816L453.536 321.269L449.252 313.587L448.161 325.816Z" fill="white"/>
<path fill-rule="evenodd" clip-rule="evenodd" d="M461.905 322.988L453.21 321.577L448.927 313.896L461.905 322.988Z" fill="white"/>
<path fill-rule="evenodd" clip-rule="evenodd" d="M449.05 313.592C449.191 313.56 449.357 313.598 449.489 313.691L462.119 322.528C462.21 322.593 462.274 322.675 462.306 322.761C462.316 322.774 462.326 322.789 462.335 322.803C462.416 322.934 462.41 323.077 462.32 323.173L457.498 328.336C457.411 328.43 457.256 328.465 457.097 328.425L448.218 326.316C448.053 326.277 447.907 326.168 447.84 326.032C447.833 326.018 447.826 326.003 447.822 325.989C447.76 325.91 447.728 325.82 447.735 325.733L448.807 313.842C448.818 313.719 448.91 313.622 449.05 313.592ZM449.119 325.807L456.892 327.654L461.115 323.134L453.702 321.933L449.119 325.807ZM460.417 322.192L449.641 314.651L448.727 324.796L453.065 321.132C453.146 321.062 453.27 321.034 453.402 321.056L460.417 322.192ZM448.506 327.013C448.565 326.861 448.758 326.789 448.967 326.841L457.631 328.981L462.258 323.878C462.37 323.756 462.59 323.735 462.787 323.83C462.984 323.925 463.105 324.11 463.075 324.274L461.208 334.737C461.188 334.851 461.098 334.935 460.968 334.965C460.838 334.993 460.683 334.963 460.555 334.882L448.722 327.473C448.538 327.357 448.448 327.165 448.506 327.013ZM450.969 328.06L460.416 333.975L461.907 325.622L458.242 329.663C458.155 329.759 457.997 329.794 457.833 329.754L450.969 328.06Z" fill="#2A2A2A"/>
<path d="M473.304 320.069L441.28 333.113C435.664 335.4 432.966 341.807 435.254 347.424C437.542 353.04 443.949 355.738 449.565 353.451L481.587 340.407C487.203 338.12 489.902 331.713 487.615 326.096C485.327 320.48 478.92 317.782 473.304 320.069Z" fill="url(#paint0_linear_337_11826)"/>
<path d="M473.304 320.069L441.28 333.113C435.664 335.4 432.966 341.807 435.254 347.424C437.542 353.04 443.949 355.738 449.565 353.451L481.587 340.407C487.203 338.12 489.902 331.713 487.615 326.096C485.327 320.48 478.92 317.782 473.304 320.069Z" fill="url(#paint1_linear_337_11826)"/>
<path d="M473.304 320.069L441.28 333.113C435.664 335.4 432.966 341.807 435.254 347.424C437.542 353.04 443.949 355.738 449.565 353.451L481.587 340.407C487.203 338.12 489.902 331.713 487.615 326.096C485.327 320.48 478.92 317.782 473.304 320.069Z" fill="url(#paint2_linear_337_11826)"/>
<path d="M473.304 320.069L441.28 333.113C435.664 335.4 432.966 341.807 435.254 347.424C437.542 353.04 443.949 355.738 449.565 353.451L481.587 340.407C487.203 338.12 489.902 331.713 487.615 326.096C485.327 320.48 478.92 317.782 473.304 320.069Z" fill="url(#paint3_linear_337_11826)"/>
<path d="M26.1754 270.119C26.9058 269.099 28.3125 268.852 29.3458 269.549L29.3455 269.55L29.4043 269.593L43.9693 280.091C45.005 280.84 45.2408 282.287 44.4968 283.326L34.0216 297.907C33.2911 298.927 31.8843 299.175 30.851 298.477L30.8513 298.476L30.7925 298.434L16.2275 287.935C15.192 287.186 14.9561 285.74 15.7001 284.7L26.1754 270.119ZM30.793 298.437C30.793 298.437 30.7939 298.437 30.7962 298.439L30.793 298.437ZM29.4006 269.587L29.404 269.589C29.404 269.589 29.403 269.589 29.4006 269.587Z" fill="#C3F53A" stroke="black" stroke-width="0.219031"/>
<path d="M16.5942 288L17.4295 288.611C28.5813 296.336 40.4383 287.866 45.0682 282.524C41.9656 286.905 35.4318 296.104 34.1177 297.856C32.8035 299.609 31.3798 298.952 30.8322 298.404L17.4295 288.611C17.1506 288.417 16.8721 288.215 16.5942 288Z" fill="#FACC15"/>
<path fill-rule="evenodd" clip-rule="evenodd" d="M23.4347 285.928L30.9277 288.921L31.8615 294.646L23.4347 285.928Z" fill="#78A7FF"/>
<path fill-rule="evenodd" clip-rule="evenodd" d="M37.135 283.693L30.9275 288.921L31.8612 294.646L37.135 283.693Z" fill="#D1ADFF"/>
<path fill-rule="evenodd" clip-rule="evenodd" d="M23.2101 284.554L30.6868 287.447L29.5128 280.247L23.2101 284.554Z" fill="#78A7FF"/>
<path fill-rule="evenodd" clip-rule="evenodd" d="M36.9114 282.319L30.6877 287.447L29.5137 280.247L36.9114 282.319Z" fill="#D1ADFF"/>
<path fill-rule="evenodd" clip-rule="evenodd" d="M23.2058 284.53L29.5078 280.22L28.163 271.975L23.2058 284.53Z" fill="#D1ADFF"/>
<path fill-rule="evenodd" clip-rule="evenodd" d="M36.9072 282.296L29.5086 280.22L28.1639 271.974L36.9072 282.296Z" fill="#89FEF7"/>
<path d="M36.9002 283.692C36.9898 283.615 37.1173 283.706 37.086 283.811L37.0788 283.83L31.9268 294.641C31.8954 294.707 31.8132 294.725 31.7563 294.685L31.7401 294.672L23.4208 286.057C23.339 285.973 23.4203 285.839 23.5268 285.863L23.546 285.869L30.8787 288.802L36.9002 283.692ZM36.6385 284.216L30.975 289.023C30.9479 289.046 30.9122 289.055 30.8781 289.048L30.8581 289.041L23.9607 286.284L31.7902 294.39L36.6385 284.216ZM28.0557 272.103C28.0851 272.029 28.1774 272.009 28.2357 272.057L28.2508 272.071L36.8231 282.236C36.8559 282.274 36.8575 282.322 36.8398 282.36C36.8783 282.4 36.8838 282.467 36.8459 282.513L36.8297 282.53L30.7385 287.579C30.7118 287.601 30.6768 287.61 30.6434 287.603L30.6237 287.598L23.2437 284.745C23.1773 284.719 23.1537 284.644 23.1804 284.587C23.1596 284.566 23.1467 284.536 23.1482 284.503L23.151 284.483L23.1567 284.465L28.0557 272.103ZM29.5275 280.516L23.5316 284.608L30.6433 287.358L36.5129 282.491L29.5275 280.516ZM28.1991 272.368L23.51 284.2L29.4213 280.166C29.4382 280.154 29.4576 280.148 29.4775 280.147H29.4974L29.5173 280.15L36.4038 282.097L28.1991 272.368Z" fill="black"/>
<path d="M30.7927 298.437C30.7927 298.437 30.7936 298.438 30.7957 298.439L30.7927 298.437Z" fill="black"/>
<path d="M488.051 266.875C488.051 266.875 488.051 266.876 488.053 266.877L488.051 266.875Z" fill="black"/>
<path d="M197.433 243.713C197.924 243.025 198.872 242.86 199.567 243.329L199.606 243.358L209.415 250.427C210.112 250.932 210.271 251.906 209.771 252.606L202.716 262.426C202.224 263.113 201.277 263.279 200.581 262.809V262.808L200.542 262.78L190.734 255.71C190.036 255.206 189.877 254.232 190.379 253.532L197.433 243.713ZM200.542 262.782C200.542 262.782 200.543 262.782 200.544 262.784L200.542 262.782ZM199.604 243.355L199.606 243.356L199.604 243.355Z" fill="#C3F53A" stroke="black" stroke-width="0.219031"/>
<path d="M190.982 255.754L191.544 256.165C199.055 261.368 207.038 255.664 210.156 252.067C208.067 255.016 203.667 261.211 202.782 262.391C201.898 263.571 200.938 263.129 200.57 262.76L191.544 256.165C191.357 256.035 191.169 255.898 190.982 255.754Z" fill="#FACC15"/>
<path fill-rule="evenodd" clip-rule="evenodd" d="M195.587 254.358L200.633 256.374L201.261 260.23L195.587 254.358Z" fill="#78A7FF"/>
<path fill-rule="evenodd" clip-rule="evenodd" d="M204.814 252.853L200.634 256.374L201.262 260.23L204.814 252.853Z" fill="#D1ADFF"/>
<path fill-rule="evenodd" clip-rule="evenodd" d="M195.436 253.433L200.472 255.382L199.681 250.534L195.436 253.433Z" fill="#78A7FF"/>
<path fill-rule="evenodd" clip-rule="evenodd" d="M204.664 251.929L200.473 255.382L199.682 250.534L204.664 251.929Z" fill="#D1ADFF"/>
<path fill-rule="evenodd" clip-rule="evenodd" d="M195.434 253.417L199.678 250.515L198.773 244.962L195.434 253.417Z" fill="#D1ADFF"/>
<path fill-rule="evenodd" clip-rule="evenodd" d="M204.66 251.913L199.678 250.514L198.772 244.962L204.66 251.913Z" fill="#89FEF7"/>
<path d="M204.656 252.852C204.716 252.802 204.802 252.862 204.781 252.933L204.777 252.946L201.307 260.226C201.285 260.271 201.231 260.283 201.192 260.255L201.181 260.247L195.578 254.446C195.524 254.389 195.578 254.299 195.651 254.315L195.663 254.319L200.601 256.293L204.656 252.852ZM204.48 253.206L200.665 256.443C200.648 256.458 200.624 256.464 200.601 256.46L200.587 256.455L195.942 254.598L201.215 260.057L204.48 253.206ZM198.7 245.049C198.719 244.999 198.782 244.985 198.821 245.017L198.831 245.027L204.604 251.872C204.626 251.898 204.628 251.93 204.616 251.956C204.641 251.983 204.645 252.028 204.619 252.059L204.608 252.07L200.507 255.471C200.489 255.486 200.465 255.491 200.443 255.487L200.429 255.484L195.459 253.562C195.415 253.544 195.399 253.494 195.418 253.456C195.403 253.441 195.395 253.422 195.396 253.399L195.397 253.386L195.401 253.373L198.7 245.049ZM199.691 250.713L195.654 253.47L200.442 255.322L204.396 252.044L199.691 250.713ZM198.797 245.227L195.639 253.195L199.62 250.478C199.631 250.47 199.644 250.466 199.658 250.465L199.671 250.466L199.684 250.468L204.322 251.779L198.797 245.227Z" fill="black"/>
<path d="M200.544 262.782C200.544 262.782 200.545 262.782 200.546 262.784L200.544 262.782Z" fill="black"/>
<path d="M22.3577 85.8988C22.756 85.3423 23.5232 85.2078 24.0867 85.588L24.1186 85.6118L32.0616 91.337C32.6264 91.7455 32.755 92.5342 32.3492 93.101L26.6366 101.053C26.2381 101.609 25.471 101.744 24.9075 101.364L24.9076 101.363L24.8756 101.34L16.9325 95.615C16.3679 95.2065 16.2392 94.4177 16.6449 93.8509L22.3577 85.8988ZM24.8758 101.342L24.8776 101.343L24.8758 101.342ZM24.1165 85.6088L24.1184 85.6101L24.1165 85.6088Z" fill="#C3F53A" stroke="black" stroke-width="0.219031"/>
<path d="M17.1311 95.6501L17.5867 95.9829C23.6684 100.196 30.1345 95.5772 32.6595 92.6636C30.9675 95.0526 27.4043 100.069 26.6876 101.025C25.971 101.981 25.1945 101.623 24.8958 101.324L17.5867 95.9829C17.4346 95.8776 17.2827 95.7668 17.1311 95.6501Z" fill="#FACC15"/>
<path fill-rule="evenodd" clip-rule="evenodd" d="M20.8615 94.5195L24.9478 96.1519L25.457 99.2746L20.8615 94.5195Z" fill="#78A7FF"/>
<path fill-rule="evenodd" clip-rule="evenodd" d="M28.3322 93.3013L24.9469 96.1521L25.4561 99.2748L28.3322 93.3013Z" fill="#D1ADFF"/>
<path fill-rule="evenodd" clip-rule="evenodd" d="M20.7396 93.7705L24.8171 95.3488L24.1768 91.4225L20.7396 93.7705Z" fill="#78A7FF"/>
<path fill-rule="evenodd" clip-rule="evenodd" d="M28.2113 92.5518L24.8171 95.3485L24.1769 91.4222L28.2113 92.5518Z" fill="#D1ADFF"/>
<path fill-rule="evenodd" clip-rule="evenodd" d="M20.7374 93.7576L24.1742 91.4067L23.4409 86.9098L20.7374 93.7576Z" fill="#D1ADFF"/>
<path fill-rule="evenodd" clip-rule="evenodd" d="M28.2092 92.5395L24.1744 91.407L23.441 86.9101L28.2092 92.5395Z" fill="#89FEF7"/>
<path d="M28.205 93.2999C28.2539 93.2585 28.3234 93.308 28.3063 93.3653L28.3024 93.3755L25.4928 99.2711C25.4756 99.3071 25.4308 99.3175 25.3998 99.2954L25.391 99.2877L20.854 94.5901C20.8095 94.544 20.8537 94.471 20.9118 94.4843L20.9223 94.4876L24.9212 96.0865L28.205 93.2999ZM28.0623 93.5863L24.9737 96.2074C24.9589 96.2199 24.9394 96.2248 24.9209 96.2211L24.9099 96.2178L21.1485 94.7137L25.4182 99.1348L28.0623 93.5863ZM23.3816 86.9803C23.3977 86.9397 23.448 86.9284 23.4798 86.9548L23.4881 86.9629L28.163 92.5062C28.1808 92.5274 28.1817 92.5531 28.1721 92.5737C28.1931 92.5958 28.196 92.6321 28.1754 92.6573L28.1666 92.6662L24.8448 95.4202C24.8301 95.4323 24.811 95.437 24.7929 95.4335L24.7821 95.4304L20.7574 93.8744C20.7212 93.8604 20.7084 93.8197 20.7229 93.7884C20.7115 93.7766 20.7044 93.7604 20.7054 93.7426L20.7068 93.7317L20.71 93.7216L23.3816 86.9803ZM24.1843 91.5678L20.9145 93.7998L24.7927 95.2993L27.9938 92.6454L24.1843 91.5678ZM23.4598 87.1245L20.9026 93.5769L24.1265 91.3772C24.1357 91.371 24.1462 91.3673 24.157 91.3665L24.168 91.3666L24.1788 91.3687L27.9343 92.4303L23.4598 87.1245Z" fill="black"/>
<path d="M140.88 104.199C141.277 103.643 142.045 103.508 142.608 103.888L142.64 103.913L150.583 109.637C151.148 110.045 151.277 110.835 150.871 111.401L145.159 119.353C144.76 119.909 143.992 120.044 143.429 119.664L143.398 119.641L135.455 113.916C134.889 113.507 134.761 112.718 135.167 112.151L140.88 104.199ZM143.398 119.641C143.398 119.641 143.398 119.642 143.4 119.643L143.398 119.641ZM142.639 103.909L142.64 103.91C142.64 103.91 142.64 103.91 142.639 103.909Z" fill="#C3F53A"/>
<path d="M143.398 119.641L143.429 119.664C143.992 120.044 144.76 119.909 145.159 119.353L150.871 111.401C151.277 110.835 151.148 110.045 150.583 109.637L142.64 103.913L142.608 103.888C142.045 103.508 141.277 103.643 140.88 104.199L135.167 112.151C134.761 112.718 134.889 113.507 135.455 113.916L143.398 119.641ZM143.398 119.641C143.398 119.641 143.398 119.642 143.4 119.643L143.398 119.641ZM142.639 103.909L142.64 103.91C142.64 103.91 142.64 103.91 142.639 103.909Z" stroke="black" stroke-width="0.219031"/>
<path d="M135.656 113.951L136.112 114.284C142.193 118.497 148.659 113.877 151.184 110.964C149.492 113.353 145.929 118.37 145.212 119.326C144.495 120.281 143.719 119.922 143.421 119.625L136.112 114.284C135.959 114.178 135.807 114.067 135.656 113.951Z" fill="#FACC15"/>
<path fill-rule="evenodd" clip-rule="evenodd" d="M139.384 112.82L143.471 114.452L143.98 117.576L139.384 112.82Z" fill="#78A7FF"/>
<path fill-rule="evenodd" clip-rule="evenodd" d="M146.854 111.602L143.469 114.452L143.978 117.576L146.854 111.602Z" fill="#D1ADFF"/>
<path fill-rule="evenodd" clip-rule="evenodd" d="M139.262 112.071L143.34 113.65L142.699 109.723L139.262 112.071Z" fill="#78A7FF"/>
<path fill-rule="evenodd" clip-rule="evenodd" d="M146.733 110.853L143.339 113.65L142.699 109.722L146.733 110.853Z" fill="#D1ADFF"/>
<path fill-rule="evenodd" clip-rule="evenodd" d="M139.26 112.058L142.697 109.707L141.964 105.21L139.26 112.058Z" fill="#D1ADFF"/>
<path fill-rule="evenodd" clip-rule="evenodd" d="M146.731 110.841L142.697 109.707L141.963 105.21L146.731 110.841Z" fill="#89FEF7"/>
<path d="M146.727 111.6C146.776 111.559 146.845 111.608 146.829 111.666L146.825 111.676L144.015 117.571C143.998 117.607 143.953 117.618 143.922 117.596L143.914 117.589L139.376 112.891C139.331 112.845 139.376 112.771 139.434 112.785L139.444 112.789L143.444 114.388L146.727 111.6ZM146.585 111.887L143.496 114.508C143.481 114.52 143.462 114.526 143.444 114.521L143.433 114.518L139.671 113.014L143.941 117.435L146.585 111.887ZM141.904 105.281C141.92 105.24 141.971 105.229 142.003 105.255L142.01 105.264L146.685 110.806C146.703 110.828 146.704 110.854 146.694 110.874C146.716 110.896 146.718 110.932 146.697 110.958L146.689 110.966L143.367 113.721C143.353 113.733 143.333 113.737 143.316 113.734L143.305 113.731L139.28 112.175C139.244 112.161 139.231 112.121 139.245 112.089C139.234 112.077 139.227 112.061 139.227 112.043L139.23 112.032L139.233 112.022L141.904 105.281ZM142.707 109.868L139.437 112.101L143.316 113.6L146.517 110.946L142.707 109.868ZM141.983 105.425L139.426 111.878L142.649 109.677C142.659 109.672 142.668 109.667 142.679 109.667H142.69L142.701 109.67L146.457 110.731L141.983 105.425Z" fill="black"/>
<path d="M150.984 182.86C151.224 182.525 151.686 182.444 152.026 182.673H152.025L152.045 182.687L156.832 186.137C157.171 186.383 157.249 186.858 157.005 187.2L153.563 191.991C153.322 192.328 152.86 192.409 152.52 192.179L152.502 192.164L147.715 188.715C147.374 188.468 147.298 187.993 147.542 187.652L150.984 182.86Z" fill="#C3F53A"/>
<path d="M152.502 192.165L152.503 192.167M152.044 182.686H152.045M150.984 182.86C151.224 182.525 151.686 182.444 152.026 182.673H152.025L152.045 182.687L156.832 186.137C157.171 186.383 157.249 186.858 157.005 187.2L153.563 191.991C153.322 192.328 152.86 192.409 152.52 192.179L152.502 192.164L147.715 188.715C147.374 188.468 147.298 187.993 147.542 187.652L150.984 182.86Z" stroke="black" stroke-width="0.219031"/>
<path d="M147.835 188.736L148.11 188.937C151.775 191.475 155.671 188.693 157.193 186.937C156.174 188.376 154.026 191.399 153.595 191.975C153.162 192.551 152.695 192.335 152.515 192.156L148.11 188.937C148.018 188.873 147.927 188.807 147.835 188.736Z" fill="#FACC15"/>
<path fill-rule="evenodd" clip-rule="evenodd" d="M150.083 188.055L152.544 189.039L152.851 190.92L150.083 188.055Z" fill="#78A7FF"/>
<path fill-rule="evenodd" clip-rule="evenodd" d="M154.586 187.32L152.546 189.039L152.853 190.92L154.586 187.32Z" fill="#D1ADFF"/>
<path fill-rule="evenodd" clip-rule="evenodd" d="M150.008 187.603L152.464 188.555L152.079 186.189L150.008 187.603Z" fill="#78A7FF"/>
<path fill-rule="evenodd" clip-rule="evenodd" d="M154.513 186.869L152.468 188.555L152.081 186.188L154.513 186.869Z" fill="#D1ADFF"/>
<path fill-rule="evenodd" clip-rule="evenodd" d="M150.008 187.595L152.079 186.179L151.637 183.47L150.008 187.595Z" fill="#D1ADFF"/>
<path fill-rule="evenodd" clip-rule="evenodd" d="M154.51 186.862L152.079 186.179L151.638 183.47L154.51 186.862Z" fill="#89FEF7"/>
<path d="M154.508 187.32C154.538 187.295 154.579 187.325 154.569 187.36L154.567 187.365L152.874 190.918C152.863 190.94 152.837 190.946 152.818 190.933L152.813 190.928L150.079 188.098C150.052 188.069 150.078 188.026 150.113 188.033L150.12 188.036L152.529 188.999L154.508 187.32ZM154.423 187.492L152.561 189.073C152.552 189.079 152.54 189.082 152.529 189.08L152.523 189.078L150.257 188.172L152.829 190.836L154.423 187.492ZM151.602 183.513C151.611 183.487 151.642 183.481 151.661 183.496L151.666 183.502L154.483 186.842C154.494 186.855 154.494 186.87 154.488 186.882C154.502 186.895 154.503 186.917 154.491 186.933L154.485 186.938L152.483 188.597C152.474 188.605 152.463 188.608 152.453 188.606L152.446 188.604L150.02 187.666C149.998 187.658 149.991 187.634 149.999 187.615C149.993 187.607 149.988 187.597 149.99 187.587L149.991 187.58L149.992 187.574L151.602 183.513ZM152.086 186.277L150.115 187.622L152.453 188.525L154.381 186.926L152.086 186.277ZM151.649 183.599L150.108 187.487L152.051 186.162C152.056 186.157 152.063 186.155 152.069 186.155H152.076L152.082 186.156L154.345 186.796L151.649 183.599Z" fill="black"/>
<path d="M79.7967 171.372C80.0368 171.037 80.4991 170.956 80.8386 171.184L80.8385 171.186L80.8578 171.199L85.6441 174.65C85.9845 174.895 86.0619 175.37 85.8175 175.712L82.3751 180.504C82.135 180.839 81.6727 180.92 81.3332 180.692L81.314 180.677L76.5277 177.226C76.1873 176.981 76.1098 176.506 76.3544 176.164L79.7967 171.372Z" fill="#C3F53A"/>
<path d="M80.8578 171.199L80.8385 171.186L80.8386 171.184C80.4991 170.956 80.0368 171.037 79.7967 171.372L76.3544 176.164C76.1098 176.506 76.1873 176.981 76.5277 177.226L81.314 180.677L81.3332 180.692C81.6727 180.92 82.135 180.839 82.3751 180.504L85.8175 175.712C86.0619 175.37 85.9845 174.895 85.6441 174.65L80.8578 171.199ZM80.8578 171.199L80.8566 171.198" stroke="black" stroke-width="0.219031"/>
<path d="M76.6479 177.248L76.9225 177.449C80.5872 179.987 84.4835 177.205 86.005 175.449C84.9855 176.888 82.8384 179.912 82.4065 180.487C81.9747 181.063 81.5068 180.847 81.3269 180.667L76.9225 177.449C76.8308 177.385 76.7393 177.318 76.6479 177.248Z" fill="#FACC15"/>
<path fill-rule="evenodd" clip-rule="evenodd" d="M78.8939 176.567L81.3563 177.551L81.6631 179.432L78.8939 176.567Z" fill="#78A7FF"/>
<path fill-rule="evenodd" clip-rule="evenodd" d="M83.3979 175.833L81.358 177.551L81.6648 179.432L83.3979 175.833Z" fill="#D1ADFF"/>
<path fill-rule="evenodd" clip-rule="evenodd" d="M78.8212 176.116L81.2781 177.067L80.8923 174.701L78.8212 176.116Z" fill="#78A7FF"/>
<path fill-rule="evenodd" clip-rule="evenodd" d="M83.3227 175.381L81.2775 177.067L80.8917 174.701L83.3227 175.381Z" fill="#D1ADFF"/>
<path fill-rule="evenodd" clip-rule="evenodd" d="M78.8191 176.108L80.89 174.691L80.4481 171.982L78.8191 176.108Z" fill="#D1ADFF"/>
<path fill-rule="evenodd" clip-rule="evenodd" d="M83.3222 175.373L80.8909 174.691L80.449 171.982L83.3222 175.373Z" fill="#89FEF7"/>
<path d="M83.3211 175.832C83.3505 175.807 83.3925 175.837 83.3822 175.872L83.3798 175.878L81.6868 179.431C81.6764 179.452 81.6494 179.458 81.6307 179.445L81.6255 179.441L78.8915 176.61C78.8647 176.582 78.8914 176.538 78.9263 176.546L78.9327 176.547L81.3424 177.511L83.3211 175.832ZM83.2351 176.005L81.374 177.584C81.365 177.592 81.3533 177.594 81.3421 177.592L81.3356 177.59L79.0689 176.684L81.6419 179.348L83.2351 176.005ZM80.4147 172.024C80.4243 171.999 80.4546 171.993 80.4738 172.009L80.4787 172.013L83.2958 175.354C83.3065 175.367 83.3071 175.382 83.3012 175.394C83.314 175.408 83.3157 175.43 83.3032 175.445L83.298 175.45L81.2962 177.11C81.2875 177.117 81.276 177.12 81.265 177.118L81.2586 177.116L78.8334 176.178C78.8116 176.17 78.8038 176.145 78.8125 176.127C78.8056 176.119 78.8014 176.109 78.8019 176.099L78.8029 176.093L78.8048 176.086L80.4147 172.024ZM80.8983 174.789L78.928 176.133L81.2649 177.037L83.1938 175.438L80.8983 174.789ZM80.4617 172.111L78.9209 175.999L80.8634 174.674C80.8689 174.67 80.8754 174.668 80.8818 174.667H80.8884L80.895 174.668L83.158 175.309L80.4617 172.111Z" fill="black"/>
<path d="M35.2381 224.602C35.3801 224.39 35.657 224.341 35.862 224.489L35.8736 224.498L38.7653 226.716C38.9709 226.874 39.0202 227.176 38.8755 227.392L36.8383 230.414C36.6963 230.625 36.4194 230.674 36.2143 230.526L36.2027 230.518L33.3111 228.299C33.1054 228.141 33.0561 227.839 33.2009 227.623L35.2381 224.602ZM36.2027 230.518C36.2027 230.518 36.203 230.518 36.2035 230.519L36.2027 230.518ZM35.8729 224.497L35.8736 224.498C35.8736 224.498 35.8734 224.498 35.8729 224.497Z" fill="#C3F53A"/>
<path d="M35.8736 224.498L35.862 224.489C35.657 224.341 35.3801 224.39 35.2381 224.602L33.2009 227.623C33.0561 227.839 33.1054 228.141 33.3111 228.299L36.2027 230.518M35.8736 224.498L38.7653 226.716C38.9709 226.874 39.0202 227.176 38.8755 227.392L36.8383 230.414C36.6963 230.625 36.4194 230.674 36.2143 230.526L36.2027 230.518M35.8736 224.498L35.8729 224.497C35.8734 224.498 35.8736 224.498 35.8736 224.498ZM36.2027 230.518C36.2027 230.518 36.203 230.518 36.2035 230.519L36.2027 230.518Z" stroke="black" stroke-width="0.219031"/>
<path d="M33.3831 228.313L33.5489 228.442C35.7624 230.075 38.0837 228.332 38.9863 227.226C38.383 228.133 37.1125 230.04 36.8568 230.404C36.6011 230.766 36.3191 230.626 36.2101 230.511L33.5489 228.442C33.4936 228.402 33.4383 228.359 33.3831 228.313Z" fill="#FACC15"/>
<path fill-rule="evenodd" clip-rule="evenodd" d="M34.7263 227.894L36.2093 228.533L36.4044 229.729L34.7263 227.894Z" fill="#78A7FF"/>
<path fill-rule="evenodd" clip-rule="evenodd" d="M37.4245 227.454L36.2107 228.533L36.4057 229.729L37.4245 227.454Z" fill="#D1ADFF"/>
<path fill-rule="evenodd" clip-rule="evenodd" d="M34.6792 227.607L36.1589 228.226L35.9135 226.721L34.6792 227.607Z" fill="#78A7FF"/>
<path fill-rule="evenodd" clip-rule="evenodd" d="M37.3759 227.168L36.1588 228.226L35.9135 226.721L37.3759 227.168Z" fill="#D1ADFF"/>
<path fill-rule="evenodd" clip-rule="evenodd" d="M34.6792 227.602L35.9133 226.715L35.6324 224.993L34.6792 227.602Z" fill="#D1ADFF"/>
<path fill-rule="evenodd" clip-rule="evenodd" d="M37.3768 227.162L35.9142 226.715L35.6332 224.993L37.3768 227.162Z" fill="#89FEF7"/>
<path d="M37.3782 227.453C37.3958 227.438 37.4211 227.457 37.4151 227.479L37.4137 227.483L36.4188 229.728C36.4126 229.742 36.3965 229.745 36.3853 229.737L36.382 229.735L34.7252 227.921C34.709 227.903 34.7248 227.876 34.7458 227.88L34.7495 227.883L36.2009 228.508L37.3782 227.453ZM37.3276 227.563L36.2203 228.554C36.215 228.559 36.208 228.561 36.2013 228.559L36.1973 228.558L34.8322 227.969L36.3913 229.675L37.3276 227.563ZM35.6123 225.019C35.618 225.003 35.6361 224.999 35.6477 225.01L35.6506 225.013L37.3603 227.15C37.3667 227.158 37.3672 227.168 37.3638 227.175C37.3714 227.184 37.3727 227.198 37.3653 227.208L37.3621 227.211L36.1709 228.253C36.1657 228.257 36.1588 228.259 36.1522 228.258L36.1484 228.256L34.6879 227.647C34.6747 227.642 34.6699 227.626 34.6751 227.614C34.6709 227.61 34.6683 227.603 34.6686 227.597L34.669 227.592L34.6701 227.588L35.6123 225.019ZM35.9186 226.777L34.7444 227.619L36.1518 228.207L37.2996 227.203L35.9186 226.777ZM35.6411 225.075L34.7394 227.533L35.897 226.704C35.9003 226.701 35.9042 226.7 35.908 226.7H35.9119L35.9159 226.701L37.2774 227.12L35.6411 225.075Z" fill="black"/>
<path d="M7.8593 140.275C8.00134 140.064 8.27819 140.014 8.4832 140.162L8.49481 140.171L11.3866 142.39C11.5921 142.547 11.6414 142.85 11.4967 143.065L9.45953 146.087C9.31749 146.298 9.04064 146.348 8.83551 146.2L8.82391 146.191L5.93226 143.972C5.7266 143.814 5.67731 143.512 5.82209 143.296L7.8593 140.275ZM8.82391 146.191C8.82391 146.191 8.82423 146.191 8.82467 146.192L8.82391 146.191Z" fill="#C3F53A"/>
<path d="M8.49481 140.171L8.4832 140.162C8.27819 140.014 8.00134 140.064 7.8593 140.275L5.82209 143.296C5.67731 143.512 5.7266 143.814 5.93226 143.972L8.82391 146.191M8.49481 140.171L11.3866 142.39C11.5921 142.547 11.6414 142.85 11.4967 143.065L9.45953 146.087C9.31749 146.298 9.04064 146.348 8.83551 146.2L8.82391 146.191M8.49481 140.171L8.49416 140.17M8.82391 146.191C8.82391 146.191 8.82423 146.191 8.82467 146.192L8.82391 146.191Z" stroke="black" stroke-width="0.219031"/>
<path d="M6.00427 143.986L6.17008 144.116C8.3836 145.748 10.7049 144.005 11.6075 142.899C11.0042 143.807 9.73371 145.713 9.47799 146.076C9.22227 146.439 8.94027 146.299 8.8313 146.184L6.17008 144.116C6.11477 144.075 6.05947 144.031 6.00427 143.986Z" fill="#FACC15"/>
<path fill-rule="evenodd" clip-rule="evenodd" d="M7.34753 143.567L8.83048 144.206L9.02564 145.402L7.34753 143.567Z" fill="#78A7FF"/>
<path fill-rule="evenodd" clip-rule="evenodd" d="M10.0457 143.128L8.83191 144.206L9.02696 145.402L10.0457 143.128Z" fill="#D1ADFF"/>
<path fill-rule="evenodd" clip-rule="evenodd" d="M7.30042 143.28L8.78008 143.899L8.53476 142.394L7.30042 143.28Z" fill="#78A7FF"/>
<path fill-rule="evenodd" clip-rule="evenodd" d="M9.99713 142.841L8.77998 143.899L8.53467 142.394L9.99713 142.841Z" fill="#D1ADFF"/>
<path fill-rule="evenodd" clip-rule="evenodd" d="M7.30042 143.276L8.53454 142.389L8.25364 140.666L7.30042 143.276Z" fill="#D1ADFF"/>
<path fill-rule="evenodd" clip-rule="evenodd" d="M9.99799 142.835L8.53541 142.389L8.25439 140.666L9.99799 142.835Z" fill="#89FEF7"/>
<path d="M9.99945 143.127C10.017 143.111 10.0423 143.13 10.0364 143.152L10.0349 143.156L9.03999 145.401C9.03385 145.415 9.01776 145.419 9.00648 145.41L9.00319 145.408L7.34644 143.594C7.33023 143.577 7.34601 143.549 7.36703 143.554L7.37075 143.556L8.82216 144.181L9.99945 143.127ZM9.94885 143.236L8.84154 144.227C8.83618 144.233 8.82917 144.234 8.82249 144.233L8.81855 144.232L7.45344 143.642L9.0125 145.349L9.94885 143.236ZM8.23352 140.692C8.23921 140.677 8.25728 140.672 8.26889 140.683L8.27185 140.686L9.98149 142.823C9.98795 142.831 9.98839 142.841 9.98499 142.848C9.99266 142.857 9.99386 142.871 9.98653 142.881L9.98335 142.885L8.79215 143.926C8.7869 143.93 8.78 143.933 8.77343 143.93L8.76959 143.929L7.3091 143.32C7.29596 143.315 7.29114 143.3 7.29629 143.288C7.29212 143.283 7.28949 143.277 7.28982 143.27L7.29026 143.266L7.29136 143.261L8.23352 140.692ZM8.53983 142.45L7.36561 143.292L8.77299 143.88L9.92082 142.876L8.53983 142.45ZM8.26232 140.748L7.36057 143.207L8.51826 142.376C8.52154 142.374 8.52537 142.373 8.52921 142.373H8.53315L8.53709 142.374L9.89859 142.793L8.26232 140.748Z" fill="black"/>
<path d="M146.944 71.28C147.085 71.0686 147.362 71.0198 147.567 71.1672L147.579 71.1764L150.47 73.3945C150.676 73.5527 150.726 73.855 150.581 74.0703L148.544 77.0922C148.402 77.3036 148.125 77.3525 147.92 77.205L147.908 77.1958L145.017 74.9777C144.811 74.8195 144.761 74.5172 144.906 74.3019L146.944 71.28ZM147.578 71.1753L147.579 71.1764C147.579 71.1764 147.579 71.1757 147.578 71.1753Z" fill="#C3F53A"/>
<path d="M147.579 71.1764L147.567 71.1672C147.362 71.0198 147.085 71.0686 146.944 71.28L144.906 74.3019C144.761 74.5172 144.811 74.8195 145.017 74.9777L147.908 77.1958L147.92 77.205C148.125 77.3525 148.402 77.3036 148.544 77.0922L150.581 74.0703C150.726 73.855 150.676 73.5527 150.47 73.3945L147.579 71.1764ZM147.579 71.1764L147.578 71.1753C147.579 71.1757 147.579 71.1764 147.579 71.1764Z" stroke="black" stroke-width="0.219031"/>
<path d="M145.089 74.9921L145.254 75.1211C147.469 76.7542 149.789 75.01 150.692 73.9044C150.089 74.8122 148.818 76.7188 148.563 77.0818C148.306 77.4449 148.025 77.3051 147.915 77.1899L145.254 75.1211C145.199 75.0802 145.144 75.0373 145.089 74.9921Z" fill="#FACC15"/>
<path fill-rule="evenodd" clip-rule="evenodd" d="M146.431 74.5725L147.914 75.2114L148.109 76.4078L146.431 74.5725Z" fill="#78A7FF"/>
<path fill-rule="evenodd" clip-rule="evenodd" d="M149.131 74.1327L147.916 75.2113L148.111 76.4077L149.131 74.1327Z" fill="#D1ADFF"/>
<path fill-rule="evenodd" clip-rule="evenodd" d="M146.384 74.2859L147.864 74.904L147.619 73.3998L146.384 74.2859Z" fill="#78A7FF"/>
<path fill-rule="evenodd" clip-rule="evenodd" d="M149.082 73.8458L147.864 74.9037L147.618 73.3995L149.082 73.8458Z" fill="#D1ADFF"/>
<path fill-rule="evenodd" clip-rule="evenodd" d="M146.384 74.281L147.619 73.3938L147.337 71.671L146.384 74.281Z" fill="#D1ADFF"/>
<path fill-rule="evenodd" clip-rule="evenodd" d="M149.083 73.8413L147.621 73.3938L147.339 71.671L149.083 73.8413Z" fill="#89FEF7"/>
<path d="M149.084 74.132C149.101 74.1163 149.127 74.1355 149.121 74.1574L149.12 74.1612L148.124 76.4066C148.119 76.4204 148.103 76.4242 148.09 76.4156L148.088 76.4127L146.431 74.5996C146.415 74.5819 146.43 74.5541 146.452 74.5593L146.455 74.5607L147.907 75.1864L149.084 74.132ZM149.033 74.2411L147.926 75.2329C147.921 75.2376 147.914 75.2394 147.907 75.2379L147.903 75.2366L146.538 74.648L148.097 76.3543L149.033 74.2411ZM147.318 71.6975C147.324 71.682 147.341 71.6779 147.353 71.6881L147.357 71.6912L149.066 73.8282C149.073 73.8364 149.073 73.8463 149.07 73.8541C149.077 73.8626 149.078 73.8765 149.071 73.886L149.067 73.8894L147.877 74.9313C147.871 74.9359 147.865 74.9376 147.858 74.9362L147.854 74.935L146.394 74.3255C146.381 74.32 146.375 74.3044 146.381 74.2926C146.377 74.288 146.374 74.2817 146.374 74.2749V74.2708L146.375 74.2669L147.318 71.6975ZM147.624 73.4552L146.45 74.2976L147.857 74.8848L149.005 73.8809L147.624 73.4552ZM147.347 71.753L146.446 74.2123L147.603 73.3822C147.606 73.3797 147.61 73.3784 147.614 73.3781L147.617 73.3782L147.622 73.3791L148.983 73.7984L147.347 71.753Z" fill="black"/>
<path d="M110.216 15.4919C110.613 14.9355 111.381 14.8009 111.944 15.1811L111.976 15.2048L119.919 20.9301C120.484 21.3385 120.613 22.1274 120.207 22.6941L114.495 30.6461C114.096 31.2027 113.328 31.3373 112.765 30.957L112.734 30.9334L104.79 25.208C104.225 24.7996 104.097 24.0108 104.502 23.4441L110.216 15.4919ZM112.734 30.9349C112.734 30.9349 112.734 30.9352 112.736 30.9362L112.734 30.9349ZM111.975 15.2019L111.976 15.2033L111.975 15.2019Z" fill="#C3F53A" stroke="black" stroke-width="0.219031"/>
<path d="M104.992 25.2434L105.447 25.5762C111.529 29.7893 117.995 25.1703 120.52 22.2568C118.828 24.6457 115.264 29.6626 114.548 30.6183C113.831 31.5738 113.054 31.2157 112.756 30.9171L105.447 25.5762C105.295 25.4708 105.143 25.3599 104.992 25.2434Z" fill="#FACC15"/>
<path fill-rule="evenodd" clip-rule="evenodd" d="M108.72 24.1126L112.807 25.7452L113.316 28.8679L108.72 24.1126Z" fill="#78A7FF"/>
<path fill-rule="evenodd" clip-rule="evenodd" d="M116.19 22.8945L112.805 25.7454L113.314 28.8681L116.19 22.8945Z" fill="#D1ADFF"/>
<path fill-rule="evenodd" clip-rule="evenodd" d="M108.598 23.3634L112.675 24.9416L112.035 21.0154L108.598 23.3634Z" fill="#78A7FF"/>
<path fill-rule="evenodd" clip-rule="evenodd" d="M116.068 22.145L112.674 24.9416L112.035 21.0154L116.068 22.145Z" fill="#D1ADFF"/>
<path fill-rule="evenodd" clip-rule="evenodd" d="M108.596 23.351L112.033 21L111.3 16.5032L108.596 23.351Z" fill="#D1ADFF"/>
<path fill-rule="evenodd" clip-rule="evenodd" d="M116.067 22.1326L112.033 21L111.299 16.5032L116.067 22.1326Z" fill="#89FEF7"/>
<path d="M116.063 22.8931C116.112 22.8517 116.181 22.9012 116.165 22.9585L116.16 22.9687L113.351 28.8643C113.334 28.9004 113.289 28.9107 113.258 28.8885L113.249 28.8809L108.712 24.1832C108.667 24.1371 108.712 24.0642 108.77 24.0774L108.78 24.0807L112.779 25.6796L116.063 22.8931ZM115.92 23.1795L112.832 25.8005C112.817 25.8131 112.798 25.8179 112.779 25.8142L112.768 25.8109L109.007 24.307L113.277 28.728L115.92 23.1795ZM111.24 16.5734C111.256 16.5329 111.306 16.5215 111.338 16.5479L111.346 16.5561L116.021 22.0995C116.039 22.1206 116.04 22.1463 116.03 22.1669C116.052 22.1889 116.054 22.2253 116.033 22.2505L116.024 22.2594L112.703 25.0133C112.689 25.0255 112.669 25.0302 112.651 25.0267L112.64 25.0235L108.616 23.4675C108.58 23.4535 108.566 23.4129 108.581 23.3816C108.57 23.3698 108.563 23.3536 108.563 23.3358L108.565 23.3248L108.569 23.3147L111.24 16.5734ZM112.042 21.1609L108.772 23.3931L112.651 24.8924L115.852 22.2387L112.042 21.1609ZM111.319 16.7177L108.761 23.1701L111.984 20.9704C111.994 20.9641 112.004 20.9605 112.015 20.9597L112.026 20.9598L112.037 20.9618L115.792 22.0236L111.319 16.7177Z" fill="black"/>
<path d="M57.1022 248.366C58.2455 215.542 83.3618 177.535 113.21 163.469C128.128 156.434 141.423 156.757 150.8 162.863L160.67 169.433C170.085 175.571 175.619 187.578 175.012 203.983C173.865 236.799 148.749 274.806 118.913 288.876C104.003 295.907 90.7081 295.583 81.3314 289.498L81.3094 289.457L71.4399 282.886C62.0446 276.748 56.5283 264.754 57.1022 248.366Z" fill="#E4C28A" stroke="black" stroke-width="0.536625" stroke-linecap="round" stroke-linejoin="round"/>
<path d="M163.484 210.664C164.429 206.307 164.988 201.874 165.154 197.417C166.301 164.601 143.038 149.404 113.21 163.469C83.3826 177.535 58.2455 215.543 57.1022 248.367C56.5283 264.755 62.0446 276.749 71.4443 282.917C79.4805 288.158 90.3423 289.124 102.633 284.907C104.81 284.154 106.945 283.282 109.026 282.295C113.521 280.153 117.802 277.587 121.81 274.632C129.564 268.886 136.489 262.097 142.386 254.457C144.641 251.576 146.759 248.579 148.737 245.498C153.2 238.569 156.89 231.172 159.744 223.439" stroke="black" stroke-width="0.536625" stroke-linecap="round" stroke-linejoin="round"/>
<path d="M113.598 164.761C142.662 151.064 165.278 165.88 164.206 197.833C164.045 202.175 163.5 206.495 162.575 210.741C162.575 210.741 159.848 220.173 158.316 224.123C155.459 231.619 151.866 238.812 147.587 245.598C145.68 248.602 143.618 251.514 141.401 254.331C135.648 261.78 128.895 268.398 121.334 274C117.428 276.884 113.253 279.385 108.869 281.471C106.843 282.43 104.767 283.277 102.649 284.011C90.6665 288.116 80.061 287.193 72.2614 282.076" stroke="#E0F9FF" stroke-width="0.536625" stroke-linecap="round" stroke-linejoin="round"/>
<path d="M108.426 270.131C131.914 258.405 152.198 227.739 153.676 201.653C155.155 175.568 137.358 163.94 113.843 175.638C90.3281 187.335 70.0711 218.03 68.5762 244.125C67.8457 257.194 71.9219 266.624 79.1039 271.301C86.3494 276.016 96.6373 276.012 108.426 270.131Z" stroke="black" stroke-width="0.536625" stroke-linecap="round" stroke-linejoin="round"/>
<path d="M82.375 271.938C75.3321 267.324 71.3414 258.112 72.0729 245.359C73.535 219.832 93.3539 189.837 116.355 178.363C130.905 171.093 143.223 173.02 149.937 181.877C143.617 170.589 130.088 167.528 113.835 175.639C90.3302 187.374 70.0633 218.031 68.5685 244.126C68.3757 247.157 68.4819 250.199 68.886 253.21C70.0579 261.581 73.7003 267.769 79.0962 271.302C81.8264 273.041 84.9191 274.13 88.1366 274.482C86.0876 273.95 84.1371 273.089 82.3619 271.935L82.375 271.938Z" fill="black" stroke="black" stroke-width="0.536625" stroke-linecap="round" stroke-linejoin="round"/>
<path fill-rule="evenodd" clip-rule="evenodd" d="M132.341 229.044L109.367 242.7L105.847 259.406L132.341 229.044Z" fill="white"/>
<path fill-rule="evenodd" clip-rule="evenodd" d="M91.6575 233.031L109.664 242.939L106.261 259.092L91.6575 233.031Z" fill="white"/>
<path fill-rule="evenodd" clip-rule="evenodd" d="M133.823 224.967L110.882 238.466L115.359 217.217L133.823 224.967Z" fill="white"/>
<path fill-rule="evenodd" clip-rule="evenodd" d="M93.1591 228.115L111.115 238.263L115.591 217.014L93.1591 228.115Z" fill="white"/>
<path fill-rule="evenodd" clip-rule="evenodd" d="M132.453 224.183L114.003 216.358L119.165 191.861L132.453 224.183Z" fill="white"/>
<path fill-rule="evenodd" clip-rule="evenodd" d="M92.7013 228.096L115.15 216.921L120.31 192.423L92.7013 228.096Z" fill="white"/>
<path fill-rule="evenodd" clip-rule="evenodd" d="M119.721 191.699C119.316 191.732 118.894 191.977 118.614 192.339L91.7386 227.023C91.5448 227.276 91.4375 227.555 91.4254 227.814C91.4101 227.858 91.3958 227.905 91.3827 227.951C91.2721 228.38 91.4079 228.762 91.7342 228.948L109.201 238.913C109.518 239.095 109.964 239.057 110.368 238.817L132.724 225.59C133.14 225.344 133.443 224.924 133.512 224.501C133.522 224.453 133.525 224.409 133.526 224.366C133.626 224.099 133.637 223.827 133.544 223.598L120.594 192.177C120.459 191.849 120.127 191.666 119.721 191.699ZM129.846 224.966L110.273 236.547L94.9781 227.823L114.117 218.302L129.846 224.966ZM96.0809 224.671L119.009 195.077L130.057 221.888L115.17 215.585C114.891 215.466 114.533 215.495 114.194 215.665L96.0809 224.671ZM132.528 227.727C132.24 227.363 131.657 227.33 131.131 227.647L109.383 240.777L92.4986 230.812C92.0902 230.572 91.4747 230.704 91.0202 231.128C90.5635 231.553 90.3938 232.156 90.6117 232.574L104.517 259.445C104.668 259.737 104.982 259.892 105.362 259.861C105.741 259.829 106.135 259.617 106.415 259.29L132.33 229.156C132.733 228.687 132.817 228.092 132.528 227.727ZM126.717 232.65L106.027 256.704L94.9255 235.255L108.297 243.147C108.618 243.336 109.075 243.299 109.489 243.049L126.717 232.65Z" fill="#2A2A2A"/>
<path d="M372.53 98.538L374.111 97.0533L371.601 92.6933L369.51 93.2963C368.673 92.2295 367.744 91.255 366.768 90.4204L366.396 87.22L362.817 85.1322L362.445 87.9153C361.47 87.6367 360.54 87.5444 359.703 87.6367L357.612 84.622L355.056 86.0603L356.636 89.4C356.125 90.0489 355.753 90.8841 355.521 91.8586L352.918 90.7913L352.871 94.9197L355.474 96.8217C355.706 98.0737 356.078 99.3727 356.589 100.625L355.009 102.11L357.565 106.47L359.657 105.867C360.493 106.934 361.423 107.908 362.399 108.743L362.724 111.944L366.349 114.031L366.721 111.248C367.697 111.573 368.627 111.665 369.463 111.526L371.555 114.541L374.064 113.103L372.53 109.763C373.042 109.114 373.413 108.279 373.646 107.305L376.249 108.372V104.243L373.692 102.342C373.46 101.089 373.042 99.7905 372.53 98.538ZM364.723 104.893C362.12 103.362 359.982 99.6977 359.982 96.6824C359.982 93.6672 362.12 92.4611 364.769 93.9458C367.418 95.4763 369.51 99.1411 369.51 102.156C369.51 105.217 367.372 106.423 364.723 104.893ZM611.655 236.81L611.7 218.568C611.7 218.563 611.7 218.559 611.7 218.554C611.7 218.55 611.695 218.542 611.695 218.537C611.695 218.535 611.696 218.534 611.696 218.531C611.694 217.535 611.367 216.586 610.822 215.696C614.372 215.334 615.992 212.319 616.003 208.742L616.312 102.062C616.33 95.6706 612.903 89.7046 607.366 86.4974L460.401 1.34375C453.89 -2.45291 445.668 2.24577 445.668 9.80113L445.605 111.924C445.592 115.793 447.494 120.221 450.262 123.524C446.191 122.938 441.756 123.555 438.52 125.428L344.575 179.918C342.044 181.388 340.651 183.409 340.63 185.608C340.629 185.624 340.613 185.633 340.613 185.649L340.567 203.868C340.567 206.097 342.038 208.212 344.597 209.662L496.16 297.022C501.067 299.831 508.777 299.855 513.734 297.017L607.675 242.508C610.239 241.023 611.655 238.993 611.655 236.81ZM447.928 111.928L447.992 9.80114C447.992 4.04812 454.222 0.459844 459.234 3.34598L606.195 88.4997C611.02 91.2946 614.006 96.4905 613.988 102.053L613.679 208.733C613.67 212.86 611.153 214.623 607.397 212.595L456.125 125.423C456.04 125.374 455.94 125.342 455.853 125.295L455.526 125.106C451.391 122.728 447.91 116.694 447.928 111.928ZM565.953 199.886L558.476 204.142C557.806 204.524 556.823 204.494 556.2 204.142L548.052 199.534C547.429 199.182 547.374 198.625 548.045 198.243L555.521 193.988C556.191 193.607 557.226 193.607 557.849 193.959L565.997 198.566C566.62 198.918 566.623 199.505 565.953 199.886ZM571.039 202.763C571.709 202.381 572.744 202.381 573.418 202.763L581.515 207.34C582.189 207.722 582.193 208.309 581.523 208.69L574.046 212.946C573.376 213.328 572.393 213.298 571.718 212.917L563.622 208.338C562.947 207.956 562.892 207.399 563.562 207.017L571.039 202.763ZM504.807 181.81L497.279 186.094C496.66 186.446 495.625 186.446 495.003 186.094L486.855 181.487C486.232 181.135 486.228 180.548 486.847 180.196L494.375 175.91C494.994 175.558 496.028 175.558 496.651 175.91L504.799 180.518C505.422 180.871 505.425 181.457 504.807 181.81ZM509.893 184.685C510.512 184.333 511.546 184.333 512.221 184.714L520.317 189.293C520.992 189.675 520.944 190.232 520.325 190.584L512.797 194.868C512.178 195.22 511.195 195.25 510.521 194.868L502.424 190.291C501.749 189.909 501.746 189.322 502.365 188.97L509.893 184.685ZM489.289 173.035L481.761 177.319C481.142 177.671 480.108 177.671 479.485 177.319L471.337 172.712C470.714 172.36 470.71 171.772 471.329 171.42L478.857 167.136C479.476 166.784 480.51 166.784 481.133 167.136L489.281 171.744C489.904 172.096 489.908 172.683 489.289 173.035ZM474.741 180.019C475.364 180.371 475.367 180.958 474.749 181.31L467.22 185.595C466.602 185.948 465.567 185.948 464.944 185.595L456.796 180.987C456.173 180.635 456.17 180.049 456.789 179.696L464.317 175.412C464.935 175.06 465.97 175.06 466.593 175.412L474.741 180.019ZM472.307 188.471L479.835 184.187C480.453 183.834 481.488 183.834 482.111 184.187L490.259 188.794C490.882 189.146 490.885 189.732 490.266 190.085L482.738 194.37C482.12 194.722 481.085 194.722 480.462 194.37L472.314 189.762C471.691 189.411 471.688 188.823 472.307 188.471ZM487.824 197.245L495.353 192.961C495.971 192.609 497.006 192.609 497.681 192.991L505.777 197.568C506.451 197.95 506.403 198.508 505.784 198.859L498.256 203.144C497.637 203.497 496.655 203.526 495.98 203.144L487.884 198.566C487.209 198.185 487.206 197.597 487.824 197.245ZM503.394 206.049L510.922 201.765C511.541 201.413 512.576 201.413 513.198 201.765L521.347 206.372C521.969 206.724 521.973 207.312 521.354 207.663L513.826 211.948C513.207 212.301 512.172 212.301 511.55 211.948L503.402 207.341C502.779 206.989 502.775 206.401 503.394 206.049ZM517.942 199.065C517.32 198.713 517.316 198.126 517.935 197.774L525.463 193.489C526.082 193.137 527.116 193.137 527.739 193.489L535.887 198.097C536.51 198.449 536.513 199.036 535.894 199.388L528.367 203.672C527.748 204.024 526.713 204.024 526.09 203.672L517.942 199.065ZM533.453 206.549L540.981 202.263C541.599 201.911 542.634 201.911 543.257 202.263L551.405 206.871C552.028 207.224 552.031 207.81 551.412 208.162L543.884 212.447C543.265 212.799 542.231 212.799 541.608 212.447L533.46 207.84C532.837 207.487 532.834 206.901 533.453 206.549ZM550.435 191.112L542.959 195.368C542.288 195.749 541.305 195.72 540.682 195.368L532.534 190.76C531.911 190.407 531.856 189.85 532.527 189.469L540.003 185.214C540.674 184.832 541.708 184.832 542.331 185.184L550.479 189.791C551.102 190.143 551.105 190.73 550.435 191.112ZM534.865 182.308L527.389 186.564C526.718 186.945 525.787 186.944 525.113 186.564L517.016 181.985C516.342 181.603 516.287 181.046 516.957 180.665L524.434 176.41C525.104 176.028 526.138 176.028 526.813 176.41L534.909 180.987C535.584 181.369 535.536 181.926 534.865 182.308ZM519.347 173.533L511.871 177.789C511.201 178.17 510.217 178.14 509.595 177.789L501.447 173.181C500.824 172.829 500.769 172.272 501.439 171.89L508.916 167.634C509.586 167.254 510.62 167.254 511.243 167.606L519.391 172.213C520.014 172.565 520.018 173.152 519.347 173.533ZM503.829 164.759L496.353 169.014C495.683 169.395 494.7 169.366 494.077 169.014L485.929 164.407C485.306 164.054 485.251 163.497 485.921 163.116L493.398 158.86C494.068 158.478 495.102 158.479 495.725 158.831L503.873 163.438C504.496 163.791 504.5 164.377 503.829 164.759ZM488.26 155.955L480.783 160.21C480.113 160.591 479.13 160.562 478.507 160.21L470.411 155.632C469.736 155.251 469.681 154.693 470.352 154.312L477.828 150.056C478.498 149.675 479.533 149.675 480.207 150.056L488.303 154.634C488.926 154.987 488.93 155.573 488.26 155.955ZM472.742 147.18L465.265 151.435C464.595 151.817 463.612 151.787 462.989 151.435L454.841 146.828C454.218 146.476 454.163 145.919 454.834 145.537L462.31 141.281C462.98 140.9 464.015 140.901 464.638 141.252L472.786 145.86C473.409 146.212 473.412 146.799 472.742 147.18ZM463.287 158.332C463.906 157.98 464.941 157.98 465.615 158.361L473.712 162.94C474.334 163.292 474.338 163.879 473.719 164.231L466.191 168.515C465.572 168.867 464.538 168.867 463.915 168.515L455.819 163.938C455.144 163.556 455.141 162.97 455.759 162.616L463.287 158.332ZM459.171 169.801C459.794 170.153 459.797 170.739 459.179 171.092L451.651 175.376C451.032 175.728 449.997 175.728 449.375 175.376L441.278 170.798C440.603 170.417 440.6 169.83 441.219 169.478L448.747 165.193C449.365 164.84 450.4 164.84 451.075 165.222L459.171 169.801ZM443.661 163.732L436.133 168.017C435.514 168.369 434.479 168.369 433.856 168.017L425.708 163.409C425.085 163.057 425.082 162.47 425.701 162.118L433.229 157.834C433.848 157.482 434.882 157.482 435.505 157.834L443.653 162.441C444.276 162.793 444.279 163.379 443.661 163.732ZM429.061 170.746C429.684 171.098 429.739 171.656 429.069 172.037L421.592 176.292C420.922 176.674 419.887 176.674 419.264 176.322L411.116 171.715C410.494 171.362 410.49 170.776 411.16 170.394L418.637 166.138C419.307 165.758 420.29 165.786 420.913 166.138L429.061 170.746ZM426.678 179.169L434.155 174.913C434.825 174.532 435.808 174.56 436.483 174.942L522.273 223.452C522.895 223.804 522.95 224.361 522.28 224.743L514.803 228.999C514.133 229.381 513.098 229.381 512.476 229.028L426.686 180.518C426.011 180.137 426.008 179.55 426.678 179.169ZM519.889 231.874L527.366 227.62C528.036 227.238 529.019 227.267 529.694 227.649L537.79 232.227C538.465 232.608 538.52 233.165 537.85 233.547L530.373 237.803C529.703 238.185 528.668 238.185 527.994 237.803L519.897 233.224C519.223 232.843 519.219 232.256 519.889 231.874ZM535.459 240.678L542.936 236.424C543.606 236.042 544.589 236.071 545.212 236.424L553.36 241.03C553.983 241.383 554.038 241.941 553.368 242.322L545.891 246.577C545.22 246.959 544.186 246.959 543.563 246.607L535.415 241.999C534.792 241.647 534.789 241.06 535.459 240.678ZM518.919 216.116C518.297 215.764 518.293 215.176 518.912 214.824L526.44 210.539C527.059 210.187 528.094 210.187 528.716 210.539L567.952 232.725C568.575 233.077 568.578 233.665 567.96 234.017L560.431 238.301C559.813 238.653 558.778 238.653 558.155 238.301L518.919 216.116ZM549.03 216.644C548.355 216.262 548.352 215.675 548.97 215.323L556.498 211.038C557.117 210.686 558.152 210.687 558.826 211.067L582.493 224.45C583.115 224.802 583.119 225.389 582.5 225.741L574.972 230.025C574.353 230.377 573.319 230.377 572.696 230.025L549.03 216.644ZM579.14 217.112C578.517 216.76 578.462 216.203 579.132 215.821L586.609 211.567C587.279 211.185 588.313 211.185 588.936 211.537L597.085 216.144C597.707 216.496 597.711 217.083 597.041 217.465L589.564 221.721C588.894 222.102 587.911 222.073 587.288 221.721L579.14 217.112ZM439.316 136.763L446.792 132.507C447.462 132.125 448.497 132.125 449.12 132.477L457.268 137.085C457.891 137.438 457.894 138.024 457.224 138.406L449.747 142.661C449.077 143.042 448.094 143.013 447.471 142.661L439.323 138.054C438.7 137.702 438.645 137.144 439.316 136.763ZM410.183 153.343L432.251 140.783C432.922 140.401 433.905 140.431 434.528 140.783L458.194 154.164C458.817 154.517 458.871 155.075 458.201 155.457L450.673 159.741C450.054 160.093 449.02 160.093 448.397 159.741L434.021 151.612L420.615 159.243C419.996 159.594 418.961 159.595 418.339 159.243L410.191 154.634C409.568 154.282 409.565 153.696 410.183 153.343ZM395.642 161.62L403.119 157.364C403.789 156.982 404.773 157.012 405.396 157.364L413.543 161.972C414.166 162.323 414.221 162.881 413.551 163.263L406.074 167.518C405.404 167.899 404.369 167.899 403.747 167.547L395.599 162.94C394.976 162.588 394.972 162.001 395.642 161.62ZM395.135 209.528L423.246 193.297C423.916 192.916 424.9 192.945 425.574 193.327L492.584 231.217C493.207 231.57 493.262 232.127 492.592 232.509L464.481 248.739C463.81 249.121 462.776 249.121 462.153 248.769L395.143 210.878C394.468 210.496 394.465 209.91 395.135 209.528ZM512.572 295.01C508.351 297.416 501.511 297.416 497.318 295.01L345.75 207.646C343.935 206.618 342.891 205.241 342.891 203.873L342.923 190.216C344.086 191.235 495.625 278.435 496.192 278.761C501.145 281.619 508.869 281.62 513.798 278.757L607.743 224.271C608.112 224.057 608.403 223.808 608.724 223.571C608.931 223.418 609.177 223.281 609.363 223.12L609.331 236.805C609.331 238.114 608.301 239.464 606.504 240.506L512.572 295.01Z" fill="#E4C28A"/>
<path d="M343.517 65.1072C343.15 65.3223 342.936 65.7102 342.936 66.1083L342.828 109.378C342.828 109.795 343.05 110.18 343.408 110.388L384.488 134.062C384.846 134.268 385.291 134.268 385.649 134.062C385.651 134.061 385.652 134.058 385.654 134.057L426.47 110.384C426.824 110.18 427.046 109.799 427.046 109.387L427.155 66.1173C427.155 65.7006 426.933 65.3155 426.574 65.1072L385.491 41.4337C385.128 41.2253 384.687 41.2299 384.324 41.4382L343.524 65.106C343.522 65.1072 343.519 65.106 343.517 65.1072ZM424.723 108.712L386.236 131.036C386.237 130.598 386.334 92.6322 386.339 90.4567L424.827 68.1332L424.723 108.712ZM384.91 43.7802L423.674 66.1173C422.905 66.5635 384.689 88.7291 385.177 88.4454L346.418 66.1083L384.91 43.7802ZM345.256 68.1207L384.014 90.4567C384.012 91.1141 383.905 133.244 383.911 131.049L345.151 108.712L345.256 68.1207ZM545.486 20.4148C548.33 20.4148 550.641 18.1261 550.641 15.3096C550.641 12.4931 548.33 10.2055 545.486 10.2055C542.667 10.2055 540.372 12.4931 540.372 15.3096C540.372 18.1261 542.667 20.4148 545.486 20.4148ZM351.785 286.176C348.716 286.176 346.217 288.667 346.217 291.733C346.217 294.799 348.716 297.29 351.785 297.29C354.882 297.29 357.397 294.799 357.397 291.733C357.397 288.667 354.882 286.176 351.785 286.176ZM397.196 35.1903C397.343 35.333 397.532 35.4123 397.734 35.4123C397.936 35.4123 398.127 35.3342 398.269 35.1903L401.499 31.9684C401.794 31.674 401.794 31.1949 401.499 30.9005L398.254 27.6627C398.11 27.52 397.92 27.4408 397.719 27.4408C397.517 27.4408 397.327 27.52 397.184 27.6638L393.956 30.8846C393.661 31.1791 393.661 31.6581 393.956 31.9526L397.196 35.1903ZM610.001 73.0413C610.147 73.184 610.336 73.2633 610.538 73.2633C610.74 73.2633 610.932 73.1852 611.073 73.0413L614.303 69.8183C614.598 69.525 614.598 69.0459 614.303 68.7515L611.058 65.5137C610.914 65.371 610.725 65.2917 610.523 65.2917C610.321 65.2917 610.132 65.371 609.988 65.5148L606.761 68.7356C606.465 69.0301 606.465 69.5091 606.761 69.8036L610.001 73.0413ZM622.475 9.34819L617.197 4.08101C616.963 3.84772 616.655 3.71862 616.326 3.71862C615.998 3.71862 615.69 3.84772 615.456 4.08101L610.199 9.32215C609.718 9.80345 609.718 10.5849 610.199 11.0616L615.48 16.3311C615.711 16.5655 616.023 16.6923 616.351 16.6923C616.68 16.6923 616.992 16.5655 617.222 16.3311L622.475 11.0866C622.955 10.6086 622.955 9.82837 622.475 9.34819ZM611.401 276.591C611.167 276.357 610.858 276.228 610.53 276.228C610.201 276.228 609.893 276.357 609.659 276.591L604.402 281.832C603.922 282.313 603.922 283.094 604.402 283.572L609.684 288.842C609.914 289.075 610.226 289.202 610.554 289.202C610.883 289.202 611.195 289.075 611.425 288.842L616.678 283.596C617.158 283.119 617.158 282.338 616.678 281.859L611.401 276.591ZM344.61 16.2495C344.994 16.2495 345.359 16.1012 345.628 15.8283L351.766 9.69926C352.328 9.14095 352.328 8.2293 351.766 7.66872L345.599 1.51367C345.325 1.24074 344.965 1.08899 344.582 1.08899C344.198 1.08899 343.838 1.24074 343.564 1.51367L337.421 7.63701C336.86 8.19985 336.86 9.11264 337.421 9.67095L343.593 15.8283C343.862 16.1012 344.227 16.2495 344.61 16.2495ZM369.04 245.897C368.806 245.664 368.498 245.534 368.17 245.534C367.841 245.534 367.533 245.664 367.299 245.897L362.042 251.138C361.561 251.619 361.561 252.4 362.042 252.877L367.323 258.147C367.553 258.38 367.865 258.508 368.194 258.508C368.523 258.508 368.835 258.38 369.065 258.147L374.318 252.902C374.798 252.424 374.798 251.644 374.318 251.164L369.04 245.897ZM477.312 95.6253L478.094 96.0772L478.038 113.06C478.038 115.797 479.897 118.998 482.313 120.389C484.783 121.931 487.751 120.76 487.751 117.328L487.793 101.608C488.399 101.891 488.998 102.071 489.557 102.071C491.257 102.071 492.663 100.756 492.67 98.4339L492.766 74.3392C492.77 71.6801 490.964 68.5544 488.649 67.2226L487.885 66.7832L487.937 47.4699C487.937 44.6862 486.078 41.4858 483.661 40.094C480.951 38.453 478.27 39.9411 478.27 43.2027L478.21 61.302C477.04 60.7516 475.862 60.6497 474.942 61.1797C473.917 61.7686 473.327 62.9645 473.322 64.4639L473.222 88.5586C473.218 91.2041 475.015 94.3071 477.312 95.6253ZM480.594 43.2027C480.594 41.6851 481.447 41.4337 482.499 42.0883C484.219 43.0634 485.613 45.522 485.613 47.4699L485.565 65.4446L480.529 62.5421L480.594 43.2027ZM480.413 97.4135L485.472 100.331L485.427 117.282C485.427 118.787 484.631 119.058 483.475 118.349C481.802 117.421 480.361 114.962 480.361 113.06L480.413 97.4135ZM509.304 99.2629L510.102 99.7226L510.013 131.475C510.013 134.212 511.872 137.459 514.288 138.805C516.835 140.394 519.726 139.142 519.726 135.744L519.815 105.255C520.397 105.52 520.978 105.691 521.527 105.691C523.445 105.691 524.625 104.121 524.631 102.053L524.727 77.9586C524.736 75.304 522.948 72.1829 520.646 70.8556L519.959 70.4593V65.8852C519.959 63.148 518.053 59.9011 515.683 58.5093C512.876 56.9646 510.297 58.3802 510.199 61.618V64.9339C507.345 63.5942 505.323 65.3076 505.315 68.1014L505.22 92.1962C505.215 94.8326 507.008 97.9356 509.304 99.2629ZM517.402 135.744C517.402 137.266 516.706 137.485 515.45 136.81C513.777 135.836 512.336 133.378 512.336 131.475L512.426 101.062L517.492 103.981L517.402 135.744ZM512.523 61.618C512.632 60.0823 513.284 59.8649 514.521 60.5512C516.194 61.4787 517.635 63.9837 517.635 65.8852V69.1207L512.523 66.1751V61.618ZM507.639 68.1105C507.648 66.7345 508.29 66.4129 509.422 67.0686L519.485 72.8669C521.073 73.782 522.412 76.1104 522.403 77.9495L522.308 102.044C522.308 103.309 521.737 103.738 520.528 103.05L510.466 97.2516C508.878 96.3365 507.539 94.0217 507.543 92.2052L507.639 68.1105ZM541.302 135.018L542.073 135.463L542.034 149.937C542.034 152.628 543.894 155.875 546.264 157.22C548.923 158.88 551.701 157.466 551.701 154.159L551.737 140.976C552.348 141.263 552.952 141.446 553.52 141.446C554.06 141.446 554.568 141.314 555.022 141.051C556.039 140.467 556.624 139.28 556.629 137.808L556.724 113.713C556.733 111.059 554.927 107.933 552.612 106.592L551.829 106.142L551.887 84.3005C551.887 84.2541 551.887 84.2541 551.887 84.2076C551.887 81.4715 549.982 78.3164 547.658 76.9246C544.83 75.3686 542.22 76.8182 542.22 80.0797L542.165 100.629C540.991 100.076 539.85 100.016 538.901 100.558C537.861 101.152 537.285 102.321 537.281 103.838L537.185 127.933C537.181 130.569 538.987 133.681 541.302 135.018ZM544.544 80.0797C544.544 78.5916 545.209 78.2542 546.496 78.9665C548.169 79.9404 549.61 82.399 549.563 84.3005L549.509 104.806L544.486 101.914L544.544 80.0797ZM544.393 136.8L549.416 139.696L549.378 154.159C549.378 155.644 548.624 155.962 547.425 155.226C545.752 154.252 544.358 151.84 544.358 149.937L544.393 136.8ZM573.266 136.95L574.056 137.413L573.963 168.353C573.963 171.089 575.868 174.29 578.239 175.682C581.31 177.306 583.627 175.708 583.723 172.621L583.816 142.934C585.93 144.164 588.603 142.896 588.603 139.732L588.696 115.658C588.696 113.013 586.883 109.86 584.606 108.561L583.909 108.144V102.762C583.909 99.9797 582.05 96.7782 579.633 95.3875C576.803 93.7307 574.195 95.2873 574.195 98.495V102.623C571.675 101.317 569.269 102.779 569.269 105.778L569.176 129.899C569.176 132.542 570.989 135.651 573.266 136.95ZM581.399 172.621C581.399 174.033 580.596 174.375 579.401 173.641C577.728 172.713 576.287 170.255 576.287 168.353L576.38 138.758L581.492 141.681L581.399 172.621ZM576.519 98.495C576.519 97.0211 577.339 96.6751 578.471 97.3818C580.144 98.3557 581.585 100.861 581.585 102.762V106.798L576.519 103.875V98.495ZM571.593 105.824C571.593 104.222 572.36 104.236 573.405 104.757C573.876 105.029 584.19 110.987 583.444 110.555C583.63 110.648 583.769 110.741 583.909 110.88C585.303 111.947 586.372 113.987 586.372 115.658L586.279 139.732C586.279 141.093 585.574 141.398 584.467 140.753C576.184 135.975 574.291 134.912 574.056 134.677C572.615 133.656 571.5 131.568 571.5 129.899L571.593 105.824ZM399.749 273.676C396.93 273.676 394.635 275.963 394.635 278.78C394.635 281.596 396.93 283.885 399.749 283.885C402.594 283.885 404.904 281.596 404.904 278.78C404.904 275.963 402.594 273.676 399.749 273.676Z" fill="#EDC240"/>
<defs>
<filter id="filter0_dd_337_11826" x="0.714542" y="263.359" width="616.571" height="236.553" filterUnits="userSpaceOnUse" color-interpolation-filters="sRGB">
<feFlood flood-opacity="0" result="BackgroundImageFix"/>
<feColorMatrix in="SourceAlpha" type="matrix" values="0 0 0 0 0 0 0 0 0 0 0 0 0 0 0 0 0 0 127 0" result="hardAlpha"/>
<feOffset dy="1.09515"/>
<feGaussianBlur stdDeviation="1.09515"/>
<feColorMatrix type="matrix" values="0 0 0 0 1 0 0 0 0 1 0 0 0 0 1 0 0 0 0.06 0"/>
<feBlend mode="normal" in2="BackgroundImageFix" result="effect1_dropShadow_337_11826"/>
<feColorMatrix in="SourceAlpha" type="matrix" values="0 0 0 0 0 0 0 0 0 0 0 0 0 0 0 0 0 0 127 0" result="hardAlpha"/>
<feOffset dy="1.09515"/>
<feGaussianBlur stdDeviation="1.64273"/>
<feColorMatrix type="matrix" values="0 0 0 0 1 0 0 0 0 1 0 0 0 0 1 0 0 0 0.1 0"/>
<feBlend mode="normal" in2="effect1_dropShadow_337_11826" result="effect2_dropShadow_337_11826"/>
<feBlend mode="normal" in="SourceGraphic" in2="effect2_dropShadow_337_11826" result="shape"/>
</filter>
<linearGradient id="paint0_linear_337_11826" x1="457.293" y1="326.591" x2="465.576" y2="346.928" gradientUnits="userSpaceOnUse">
<stop stop-color="#1C1C1E" stop-opacity="0"/>
<stop offset="1" stop-color="#1C1C1E"/>
</linearGradient>
<linearGradient id="paint1_linear_337_11826" x1="457.293" y1="326.591" x2="465.576" y2="346.928" gradientUnits="userSpaceOnUse">
<stop stop-color="#1C1C1E" stop-opacity="0"/>
<stop offset="1" stop-color="#1C1C1E"/>
</linearGradient>
<linearGradient id="paint2_linear_337_11826" x1="457.293" y1="326.591" x2="465.576" y2="346.928" gradientUnits="userSpaceOnUse">
<stop stop-color="#1C1C1E" stop-opacity="0"/>
<stop offset="1" stop-color="#1C1C1E"/>
</linearGradient>
<linearGradient id="paint3_linear_337_11826" x1="457.293" y1="326.591" x2="465.576" y2="346.928" gradientUnits="userSpaceOnUse">
<stop stop-color="#1C1C1E" stop-opacity="0"/>
<stop offset="1" stop-color="#1C1C1E"/>
</linearGradient>
</defs>
</svg>
