<svg width="131" height="45" viewBox="0 0 131 45" fill="none" xmlns="http://www.w3.org/2000/svg">
<g clip-path="url(#clip0_337_12014)">
<path d="M27.8101 11.1283V33.371L9.00378 44.4854L0.0864487 39.2237V5.27558L8.84857 0.0864291L8.98859 0.0138535V2.95639e-05H9.00378L27.8101 11.1283Z" fill="white"/>
<path d="M8.98916 1.52588e-05V0.0138392L8.84914 0.0864148L8.98916 1.52588e-05Z" fill="white"/>
<path opacity="0.8" d="M27.8086 11.1248V33.371L9.00222 44.4906L0.0865784 39.2202V27.5148L9.00222 32.7886L17.9111 27.5148V16.9758L9.00222 11.702L0.0865784 16.9758V5.2704L8.8487 0.0898841L9.00222 2.86102e-05L27.8086 11.1248Z" fill="#F7C132"/>
<path opacity="0.2" d="M8.99594 32.7886L0.0836716 27.5165V16.9741L8.99594 22.2479V32.7886Z" fill="#F7C132"/>
<path opacity="0.4" d="M8.9959 32.7886V22.2479L17.9132 16.9741V27.5165L8.9959 32.7886Z" fill="#F7C132"/>
<path d="M9.00279 11.702L0.0837784 16.9741L0.0854654 5.2704L8.99604 2.76566e-05L9.00279 11.702Z" fill="#F7C132"/>
<path d="M32.941 16.3209H38.2212C42.1248 16.3209 45.0551 19.2636 45.0551 23.181C45.0551 27.0983 42.1248 30.0411 38.2212 30.0411H32.941V16.3191V16.3209ZM35.9505 19.2239V27.1381H38.1436C40.3366 27.1381 41.9679 25.4291 41.9679 23.181C41.9679 20.9329 40.3383 19.2239 38.1436 19.2239H35.9505Z" fill="white"/>
<path d="M46.376 24.9711C46.376 21.9489 48.4341 19.661 51.1518 19.661C52.3546 19.661 53.3837 20.1172 54.1428 20.9138V19.8995H56.9769V30.0411H54.1428V29.0267C53.3854 29.8233 52.3563 30.2795 51.1518 30.2795C48.4341 30.2795 46.376 27.9934 46.376 24.9694V24.9711ZM54.1411 24.9711C54.1411 23.5386 53.1121 22.4655 51.7136 22.4655C50.3151 22.4655 49.3063 23.5386 49.3063 24.9711C49.3063 26.4036 50.3353 27.4767 51.7136 27.4767C53.0918 27.4767 54.1411 26.4019 54.1411 24.9711Z" fill="white"/>
<path d="M58.9964 17.2557C58.9964 16.3018 59.715 15.5847 60.6462 15.5847C61.5774 15.5847 62.2961 16.3001 62.2961 17.2557C62.2961 18.2113 61.5977 18.9457 60.6462 18.9457C59.6948 18.9457 58.9964 18.2303 58.9964 17.2557ZM59.2275 19.9012H62.0633V30.0428H59.2275V19.9012Z" fill="white"/>
<path d="M64.3543 15.7247H67.1901V30.0428H64.3543V15.7247Z" fill="white"/>
<path d="M72.3728 29.9236L68.3932 19.9012H71.6355L73.9264 26.3449L76.1971 19.9012H79.3619L73.8286 33.8202H70.8005L72.3728 29.9219V29.9236Z" fill="white"/>
<path d="M80.8579 16.3209H87.1486C89.1291 16.3209 90.6626 17.7931 90.6626 19.7803C90.6626 21.0936 89.9827 22.2271 89.0701 22.7438C90.45 23.181 91.42 24.6325 91.42 26.3242C91.42 28.4911 89.8089 30.0428 87.6918 30.0428H80.8579V16.3209ZM83.0897 18.4497V21.9489H86.5835C87.5164 21.9489 88.2721 21.1938 88.2721 20.1985C88.2721 19.2031 87.5535 18.448 86.5835 18.448H83.0897V18.4497ZM83.0897 23.9568V27.9139H87.1283C88.2148 27.9139 89.0498 27.0379 89.0498 25.925C89.0498 24.8122 88.2148 23.9568 87.1283 23.9568H83.0897Z" fill="white"/>
<path d="M93.2049 15.7247H95.3794V30.0428H93.2049V15.7247Z" fill="white"/>
<path d="M97.3982 24.9712C97.3982 21.9489 99.6706 19.661 102.699 19.661C105.727 19.661 107.999 21.9472 107.999 24.9712C107.999 27.9951 105.708 30.2813 102.699 30.2813C99.6891 30.2813 97.3982 27.9951 97.3982 24.9712ZM105.747 24.9712C105.747 23.181 104.446 21.8089 102.699 21.8089C100.951 21.8089 99.6318 23.181 99.6318 24.9712C99.6318 26.7614 100.953 28.1334 102.699 28.1334C104.445 28.1334 105.747 26.7614 105.747 24.9712Z" fill="white"/>
<path d="M109.359 24.9711C109.359 21.9489 111.631 19.661 114.659 19.661C117.242 19.661 119.28 21.3303 119.688 23.7183H117.377C117.028 22.5848 115.96 21.8089 114.659 21.8089C112.912 21.8089 111.593 23.1809 111.593 24.9711C111.593 26.7613 112.913 28.1334 114.659 28.1334C115.96 28.1334 117.03 27.3575 117.377 26.2239H119.688C119.28 28.6103 117.242 30.2813 114.659 30.2813C111.631 30.2813 109.359 27.9951 109.359 24.9711Z" fill="white"/>
<path d="M121.669 15.7247H123.844V24.553L128.174 19.8995H130.931L126.68 24.413L131.086 30.0411H128.291L125.165 26.0442L123.844 27.456V30.0411H121.669V15.723V15.7247Z" fill="white"/>
</g>
<defs>
<clipPath id="clip0_337_12014">
<rect width="131" height="44.4906" fill="white"/>
</clipPath>
</defs>
</svg>
