<svg width="14" height="9" viewBox="0 0 14 9" fill="none" xmlns="http://www.w3.org/2000/svg">
<path d="M13.9237 8.44104L7.27998 0.125874C7.24546 0.0864131 7.20254 0.0547212 7.1542 0.0329884C7.10586 0.0112556 7.05325 0 7 0C6.94675 0 6.89414 0.0112556 6.8458 0.0329884C6.79746 0.0547212 6.75454 0.0864131 6.72002 0.125874L0.0763471 8.44104C0.0349322 8.49196 0.00916686 8.55326 0.002029 8.61784C-0.00510886 8.68242 0.00667222 8.74764 0.0360106 8.80598C0.0655819 8.86412 0.111226 8.91308 0.167812 8.94736C0.224399 8.98163 0.289684 8.99986 0.35633 9H13.6437C13.7103 8.99986 13.7756 8.98163 13.8322 8.94736C13.8888 8.91308 13.9344 8.86412 13.964 8.80598C13.9933 8.74764 14.0051 8.68242 13.998 8.61784C13.9908 8.55326 13.9651 8.49196 13.9237 8.44104Z" fill="#94A3B8"/>
</svg>
