<svg width="166" height="166" viewBox="0 0 166 166" fill="none" xmlns="http://www.w3.org/2000/svg">
<path d="M0 0H166V166H0V0Z" fill="white"/>
<path d="M10.8853 10.8852H29.9344V13.6065H10.8853V10.8852ZM35.3771 10.8852H38.0984V13.6065H35.3771V10.8852ZM43.541 10.8852H54.4262V13.6065H43.541V10.8852ZM59.8689 10.8852H65.3115V13.6065H59.8689V10.8852ZM76.1967 10.8852H81.6394V13.6065H76.1967V10.8852ZM84.3607 10.8852H100.689V13.6065H84.3607V10.8852ZM106.131 10.8852H108.852V13.6065H106.131V10.8852ZM119.738 10.8852H127.902V13.6065H119.738V10.8852ZM136.066 10.8852H155.115V13.6065H136.066V10.8852ZM10.8853 13.6065H13.6066V16.3278H10.8853V13.6065ZM27.2131 13.6065H29.9344V16.3278H27.2131V13.6065ZM48.9836 13.6065H51.7049V16.3278H48.9836V13.6065ZM54.4262 13.6065H57.1476V16.3278H54.4262V13.6065ZM70.7541 13.6065H84.3607V16.3278H70.7541V13.6065ZM100.689 13.6065H108.852V16.3278H100.689V13.6065ZM111.574 13.6065H117.016V16.3278H111.574V13.6065ZM125.18 13.6065H130.623V16.3278H125.18V13.6065ZM136.066 13.6065H138.787V16.3278H136.066V13.6065ZM152.393 13.6065H155.115V16.3278H152.393V13.6065ZM10.8853 16.3278H13.6066V19.0492H10.8853V16.3278ZM16.3279 16.3278H24.4918V19.0492H16.3279V16.3278ZM27.2131 16.3278H29.9344V19.0492H27.2131V16.3278ZM32.6557 16.3278H46.2623V19.0492H32.6557V16.3278ZM51.7049 16.3278H54.4262V19.0492H51.7049V16.3278ZM70.7541 16.3278H73.4754V19.0492H70.7541V16.3278ZM76.1967 16.3278H81.6394V19.0492H76.1967V16.3278ZM92.5246 16.3278H95.2459V19.0492H92.5246V16.3278ZM97.9672 16.3278H100.689V19.0492H97.9672V16.3278ZM106.131 16.3278H108.852V19.0492H106.131V16.3278ZM111.574 16.3278H119.738V19.0492H111.574V16.3278ZM127.902 16.3278H130.623V19.0492H127.902V16.3278ZM136.066 16.3278H138.787V19.0492H136.066V16.3278ZM141.508 16.3278H149.672V19.0492H141.508V16.3278ZM152.393 16.3278H155.115V19.0492H152.393V16.3278ZM10.8853 19.0492H13.6066V21.7705H10.8853V19.0492ZM16.3279 19.0492H24.4918V21.7705H16.3279V19.0492ZM27.2131 19.0492H29.9344V21.7705H27.2131V19.0492ZM32.6557 19.0492H43.541V21.7705H32.6557V19.0492ZM46.2623 19.0492H54.4262V21.7705H46.2623V19.0492ZM62.5902 19.0492H68.0328V21.7705H62.5902V19.0492ZM76.1967 19.0492H78.918V21.7705H76.1967V19.0492ZM81.6394 19.0492H87.082V21.7705H81.6394V19.0492ZM92.5246 19.0492H97.9672V21.7705H92.5246V19.0492ZM103.41 19.0492H106.131V21.7705H103.41V19.0492ZM108.852 19.0492H117.016V21.7705H108.852V19.0492ZM122.459 19.0492H127.902V21.7705H122.459V19.0492ZM130.623 19.0492H133.344V21.7705H130.623V19.0492ZM136.066 19.0492H138.787V21.7705H136.066V19.0492ZM141.508 19.0492H149.672V21.7705H141.508V19.0492ZM152.393 19.0492H155.115V21.7705H152.393V19.0492ZM10.8853 21.7705H13.6066V24.4918H10.8853V21.7705ZM16.3279 21.7705H24.4918V24.4918H16.3279V21.7705ZM27.2131 21.7705H29.9344V24.4918H27.2131V21.7705ZM32.6557 21.7705H38.0984V24.4918H32.6557V21.7705ZM43.541 21.7705H46.2623V24.4918H43.541V21.7705ZM51.7049 21.7705H59.8689V24.4918H51.7049V21.7705ZM65.3115 21.7705H95.2459V24.4918H65.3115V21.7705ZM108.852 21.7705H111.574V24.4918H108.852V21.7705ZM117.016 21.7705H127.902V24.4918H117.016V21.7705ZM136.066 21.7705H138.787V24.4918H136.066V21.7705ZM141.508 21.7705H149.672V24.4918H141.508V21.7705ZM152.393 21.7705H155.115V24.4918H152.393V21.7705ZM10.8853 24.4918H13.6066V27.2131H10.8853V24.4918ZM27.2131 24.4918H29.9344V27.2131H27.2131V24.4918ZM32.6557 24.4918H38.0984V27.2131H32.6557V24.4918ZM46.2623 24.4918H48.9836V27.2131H46.2623V24.4918ZM57.1476 24.4918H59.8689V27.2131H57.1476V24.4918ZM76.1967 24.4918H78.918V27.2131H76.1967V24.4918ZM87.082 24.4918H92.5246V27.2131H87.082V24.4918ZM95.2459 24.4918H103.41V27.2131H95.2459V24.4918ZM108.852 24.4918H111.574V27.2131H108.852V24.4918ZM114.295 24.4918H119.738V27.2131H114.295V24.4918ZM122.459 24.4918H127.902V27.2131H122.459V24.4918ZM136.066 24.4918H138.787V27.2131H136.066V24.4918ZM152.393 24.4918H155.115V27.2131H152.393V24.4918ZM10.8853 27.2131H29.9344V29.9344H10.8853V27.2131ZM32.6557 27.2131H35.3771V29.9344H32.6557V27.2131ZM38.0984 27.2131H40.8197V29.9344H38.0984V27.2131ZM43.541 27.2131H46.2623V29.9344H43.541V27.2131ZM48.9836 27.2131H51.7049V29.9344H48.9836V27.2131ZM54.4262 27.2131H57.1476V29.9344H54.4262V27.2131ZM59.8689 27.2131H62.5902V29.9344H59.8689V27.2131ZM65.3115 27.2131H68.0328V29.9344H65.3115V27.2131ZM70.7541 27.2131H73.4754V29.9344H70.7541V27.2131ZM76.1967 27.2131H78.918V29.9344H76.1967V27.2131ZM81.6394 27.2131H84.3607V29.9344H81.6394V27.2131ZM87.082 27.2131H89.8033V29.9344H87.082V27.2131ZM92.5246 27.2131H95.2459V29.9344H92.5246V27.2131ZM97.9672 27.2131H100.689V29.9344H97.9672V27.2131ZM103.41 27.2131H106.131V29.9344H103.41V27.2131ZM108.852 27.2131H111.574V29.9344H108.852V27.2131ZM114.295 27.2131H117.016V29.9344H114.295V27.2131ZM119.738 27.2131H122.459V29.9344H119.738V27.2131ZM125.18 27.2131H127.902V29.9344H125.18V27.2131ZM130.623 27.2131H133.344V29.9344H130.623V27.2131ZM136.066 27.2131H155.115V29.9344H136.066V27.2131ZM32.6557 29.9344H46.2623V32.6557H32.6557V29.9344ZM51.7049 29.9344H54.4262V32.6557H51.7049V29.9344ZM59.8689 29.9344H65.3115V32.6557H59.8689V29.9344ZM73.4754 29.9344H78.918V32.6557H73.4754V29.9344ZM87.082 29.9344H95.2459V32.6557H87.082V29.9344ZM108.852 29.9344H114.295V32.6557H108.852V29.9344ZM117.016 29.9344H122.459V32.6557H117.016V29.9344ZM125.18 29.9344H133.344V32.6557H125.18V29.9344ZM10.8853 32.6557H13.6066V35.377H10.8853V32.6557ZM16.3279 32.6557H29.9344V35.377H16.3279V32.6557ZM40.8197 32.6557H43.541V35.377H40.8197V32.6557ZM46.2623 32.6557H51.7049V35.377H46.2623V32.6557ZM54.4262 32.6557H57.1476V35.377H54.4262V32.6557ZM59.8689 32.6557H65.3115V35.377H59.8689V32.6557ZM68.0328 32.6557H70.7541V35.377H68.0328V32.6557ZM76.1967 32.6557H97.9672V35.377H76.1967V32.6557ZM100.689 32.6557H114.295V35.377H100.689V32.6557ZM122.459 32.6557H125.18V35.377H122.459V32.6557ZM127.902 32.6557H130.623V35.377H127.902V32.6557ZM136.066 32.6557H149.672V35.377H136.066V32.6557ZM10.8853 35.377H13.6066V38.0983H10.8853V35.377ZM19.0492 35.377H21.7705V38.0983H19.0492V35.377ZM43.541 35.377H48.9836V38.0983H43.541V35.377ZM51.7049 35.377H54.4262V38.0983H51.7049V35.377ZM70.7541 35.377H73.4754V38.0983H70.7541V35.377ZM76.1967 35.377H97.9672V38.0983H76.1967V35.377ZM100.689 35.377H103.41V38.0983H100.689V35.377ZM106.131 35.377H108.852V38.0983H106.131V35.377ZM119.738 35.377H130.623V38.0983H119.738V35.377ZM133.344 35.377H136.066V38.0983H133.344V35.377ZM138.787 35.377H141.508V38.0983H138.787V35.377ZM144.23 35.377H149.672V38.0983H144.23V35.377ZM152.393 35.377H155.115V38.0983H152.393V35.377ZM10.8853 38.0983H21.7705V40.8197H10.8853V38.0983ZM27.2131 38.0983H32.6557V40.8197H27.2131V38.0983ZM35.3771 38.0983H40.8197V40.8197H35.3771V38.0983ZM46.2623 38.0983H48.9836V40.8197H46.2623V38.0983ZM57.1476 38.0983H70.7541V40.8197H57.1476V38.0983ZM73.4754 38.0983H76.1967V40.8197H73.4754V38.0983ZM78.918 38.0983H84.3607V40.8197H78.918V38.0983ZM89.8033 38.0983H95.2459V40.8197H89.8033V38.0983ZM103.41 38.0983H106.131V40.8197H103.41V38.0983ZM111.574 38.0983H119.738V40.8197H111.574V38.0983ZM122.459 38.0983H125.18V40.8197H122.459V38.0983ZM127.902 38.0983H133.344V40.8197H127.902V38.0983ZM136.066 38.0983H138.787V40.8197H136.066V38.0983ZM141.508 38.0983H144.23V40.8197H141.508V38.0983ZM13.6066 40.8197H19.0492V43.541H13.6066V40.8197ZM21.7705 40.8197H24.4918V43.541H21.7705V40.8197ZM32.6557 40.8197H38.0984V43.541H32.6557V40.8197ZM40.8197 40.8197H43.541V43.541H40.8197V40.8197ZM62.5902 40.8197H65.3115V43.541H62.5902V40.8197ZM70.7541 40.8197H81.6394V43.541H70.7541V40.8197ZM89.8033 40.8197H92.5246V43.541H89.8033V40.8197ZM100.689 40.8197H108.852V43.541H100.689V40.8197ZM111.574 40.8197H125.18V43.541H111.574V40.8197ZM127.902 40.8197H130.623V43.541H127.902V40.8197ZM136.066 40.8197H138.787V43.541H136.066V40.8197ZM141.508 40.8197H146.951V43.541H141.508V40.8197ZM149.672 40.8197H152.393V43.541H149.672V40.8197ZM16.3279 43.541H19.0492V46.2623H16.3279V43.541ZM27.2131 43.541H29.9344V46.2623H27.2131V43.541ZM35.3771 43.541H38.0984V46.2623H35.3771V43.541ZM40.8197 43.541H43.541V46.2623H40.8197V43.541ZM46.2623 43.541H48.9836V46.2623H46.2623V43.541ZM51.7049 43.541H65.3115V46.2623H51.7049V43.541ZM78.918 43.541H89.8033V46.2623H78.918V43.541ZM95.2459 43.541H97.9672V46.2623H95.2459V43.541ZM103.41 43.541H119.738V46.2623H103.41V43.541ZM125.18 43.541H144.23V46.2623H125.18V43.541ZM146.951 43.541H155.115V46.2623H146.951V43.541ZM10.8853 46.2623H16.3279V48.9836H10.8853V46.2623ZM21.7705 46.2623H27.2131V48.9836H21.7705V46.2623ZM29.9344 46.2623H32.6557V48.9836H29.9344V46.2623ZM35.3771 46.2623H38.0984V48.9836H35.3771V46.2623ZM43.541 46.2623H46.2623V48.9836H43.541V46.2623ZM48.9836 46.2623H54.4262V48.9836H48.9836V46.2623ZM59.8689 46.2623H65.3115V48.9836H59.8689V46.2623ZM68.0328 46.2623H78.918V48.9836H68.0328V46.2623ZM87.082 46.2623H103.41V48.9836H87.082V46.2623ZM111.574 46.2623H114.295V48.9836H111.574V46.2623ZM117.016 46.2623H130.623V48.9836H117.016V46.2623ZM138.787 46.2623H144.23V48.9836H138.787V46.2623ZM10.8853 48.9836H13.6066V51.7049H10.8853V48.9836ZM24.4918 48.9836H29.9344V51.7049H24.4918V48.9836ZM43.541 48.9836H48.9836V51.7049H43.541V48.9836ZM54.4262 48.9836H59.8689V51.7049H54.4262V48.9836ZM65.3115 48.9836H68.0328V51.7049H65.3115V48.9836ZM70.7541 48.9836H73.4754V51.7049H70.7541V48.9836ZM78.918 48.9836H84.3607V51.7049H78.918V48.9836ZM92.5246 48.9836H95.2459V51.7049H92.5246V48.9836ZM103.41 48.9836H111.574V51.7049H103.41V48.9836ZM114.295 48.9836H117.016V51.7049H114.295V48.9836ZM119.738 48.9836H122.459V51.7049H119.738V48.9836ZM127.902 48.9836H130.623V51.7049H127.902V48.9836ZM133.344 48.9836H141.508V51.7049H133.344V48.9836ZM146.951 48.9836H149.672V51.7049H146.951V48.9836ZM13.6066 51.7049H27.2131V54.4262H13.6066V51.7049ZM32.6557 51.7049H35.3771V54.4262H32.6557V51.7049ZM38.0984 51.7049H40.8197V54.4262H38.0984V51.7049ZM43.541 51.7049H48.9836V54.4262H43.541V51.7049ZM54.4262 51.7049H57.1476V54.4262H54.4262V51.7049ZM59.8689 51.7049H65.3115V54.4262H59.8689V51.7049ZM68.0328 51.7049H73.4754V54.4262H68.0328V51.7049ZM76.1967 51.7049H78.918V54.4262H76.1967V51.7049ZM84.3607 51.7049H87.082V54.4262H84.3607V51.7049ZM89.8033 51.7049H92.5246V54.4262H89.8033V51.7049ZM95.2459 51.7049H100.689V54.4262H95.2459V51.7049ZM106.131 51.7049H108.852V54.4262H106.131V51.7049ZM111.574 51.7049H122.459V54.4262H111.574V51.7049ZM125.18 51.7049H127.902V54.4262H125.18V51.7049ZM130.623 51.7049H133.344V54.4262H130.623V51.7049ZM136.066 51.7049H138.787V54.4262H136.066V51.7049ZM141.508 51.7049H146.951V54.4262H141.508V51.7049ZM13.6066 54.4262H16.3279V57.1475H13.6066V54.4262ZM19.0492 54.4262H24.4918V57.1475H19.0492V54.4262ZM27.2131 54.4262H29.9344V57.1475H27.2131V54.4262ZM32.6557 54.4262H38.0984V57.1475H32.6557V54.4262ZM43.541 54.4262H48.9836V57.1475H43.541V54.4262ZM51.7049 54.4262H54.4262V57.1475H51.7049V54.4262ZM62.5902 54.4262H65.3115V57.1475H62.5902V54.4262ZM73.4754 54.4262H78.918V57.1475H73.4754V54.4262ZM81.6394 54.4262H87.082V57.1475H81.6394V54.4262ZM89.8033 54.4262H92.5246V57.1475H89.8033V54.4262ZM95.2459 54.4262H97.9672V57.1475H95.2459V54.4262ZM100.689 54.4262H106.131V57.1475H100.689V54.4262ZM108.852 54.4262H111.574V57.1475H108.852V54.4262ZM125.18 54.4262H127.902V57.1475H125.18V54.4262ZM130.623 54.4262H144.23V57.1475H130.623V54.4262ZM149.672 54.4262H155.115V57.1475H149.672V54.4262ZM10.8853 57.1475H16.3279V59.8688H10.8853V57.1475ZM24.4918 57.1475H27.2131V59.8688H24.4918V57.1475ZM29.9344 57.1475H48.9836V59.8688H29.9344V57.1475ZM54.4262 57.1475H57.1476V59.8688H54.4262V57.1475ZM62.5902 57.1475H73.4754V59.8688H62.5902V57.1475ZM76.1967 57.1475H78.918V59.8688H76.1967V57.1475ZM87.082 57.1475H95.2459V59.8688H87.082V57.1475ZM97.9672 57.1475H103.41V59.8688H97.9672V57.1475ZM106.131 57.1475H114.295V59.8688H106.131V57.1475ZM117.016 57.1475H119.738V59.8688H117.016V57.1475ZM122.459 57.1475H130.623V59.8688H122.459V57.1475ZM138.787 57.1475H146.951V59.8688H138.787V57.1475ZM149.672 57.1475H155.115V59.8688H149.672V57.1475ZM16.3279 59.8688H32.6557V62.5901H16.3279V59.8688ZM35.3771 59.8688H40.8197V62.5901H35.3771V59.8688ZM43.541 59.8688H46.2623V62.5901H43.541V59.8688ZM48.9836 59.8688H51.7049V62.5901H48.9836V59.8688ZM62.5902 59.8688H68.0328V62.5901H62.5902V59.8688ZM70.7541 59.8688H73.4754V62.5901H70.7541V59.8688ZM78.918 59.8688H87.082V62.5901H78.918V59.8688ZM95.2459 59.8688H97.9672V62.5901H95.2459V59.8688ZM103.41 59.8688H117.016V62.5901H103.41V59.8688ZM122.459 59.8688H125.18V62.5901H122.459V59.8688ZM127.902 59.8688H130.623V62.5901H127.902V59.8688ZM133.344 59.8688H146.951V62.5901H133.344V59.8688ZM149.672 59.8688H152.393V62.5901H149.672V59.8688ZM10.8853 62.5901H16.3279V65.3115H10.8853V62.5901ZM32.6557 62.5901H38.0984V65.3115H32.6557V62.5901ZM40.8197 62.5901H48.9836V65.3115H40.8197V62.5901ZM59.8689 62.5901H78.918V65.3115H59.8689V62.5901ZM84.3607 62.5901H89.8033V65.3115H84.3607V62.5901ZM100.689 62.5901H103.41V65.3115H100.689V62.5901ZM119.738 62.5901H122.459V65.3115H119.738V62.5901ZM127.902 62.5901H133.344V65.3115H127.902V62.5901ZM136.066 62.5901H138.787V65.3115H136.066V62.5901ZM149.672 62.5901H155.115V65.3115H149.672V62.5901ZM10.8853 65.3115H19.0492V68.0328H10.8853V65.3115ZM21.7705 65.3115H32.6557V68.0328H21.7705V65.3115ZM38.0984 65.3115H43.541V68.0328H38.0984V65.3115ZM46.2623 65.3115H48.9836V68.0328H46.2623V65.3115ZM57.1476 65.3115H62.5902V68.0328H57.1476V65.3115ZM70.7541 65.3115H76.1967V68.0328H70.7541V65.3115ZM81.6394 65.3115H84.3607V68.0328H81.6394V65.3115ZM87.082 65.3115H89.8033V68.0328H87.082V65.3115ZM92.5246 65.3115H97.9672V68.0328H92.5246V65.3115ZM108.852 65.3115H117.016V68.0328H108.852V65.3115ZM125.18 65.3115H127.902V68.0328H125.18V65.3115ZM130.623 65.3115H136.066V68.0328H130.623V65.3115ZM141.508 65.3115H149.672V68.0328H141.508V65.3115ZM152.393 65.3115H155.115V68.0328H152.393V65.3115ZM16.3279 68.0328H19.0492V70.7541H16.3279V68.0328ZM21.7705 68.0328H27.2131V70.7541H21.7705V68.0328ZM29.9344 68.0328H32.6557V70.7541H29.9344V68.0328ZM35.3771 68.0328H40.8197V70.7541H35.3771V68.0328ZM43.541 68.0328H46.2623V70.7541H43.541V68.0328ZM48.9836 68.0328H51.7049V70.7541H48.9836V68.0328ZM57.1476 68.0328H59.8689V70.7541H57.1476V68.0328ZM62.5902 68.0328H70.7541V70.7541H62.5902V68.0328ZM76.1967 68.0328H84.3607V70.7541H76.1967V68.0328ZM87.082 68.0328H100.689V70.7541H87.082V68.0328ZM106.131 68.0328H114.295V70.7541H106.131V68.0328ZM117.016 68.0328H130.623V70.7541H117.016V68.0328ZM138.787 68.0328H141.508V70.7541H138.787V68.0328ZM152.393 68.0328H155.115V70.7541H152.393V68.0328ZM19.0492 70.7541H24.4918V73.4754H19.0492V70.7541ZM27.2131 70.7541H32.6557V73.4754H27.2131V70.7541ZM35.3771 70.7541H38.0984V73.4754H35.3771V70.7541ZM46.2623 70.7541H48.9836V73.4754H46.2623V70.7541ZM54.4262 70.7541H57.1476V73.4754H54.4262V70.7541ZM76.1967 70.7541H78.918V73.4754H76.1967V70.7541ZM81.6394 70.7541H87.082V73.4754H81.6394V70.7541ZM89.8033 70.7541H92.5246V73.4754H89.8033V70.7541ZM95.2459 70.7541H97.9672V73.4754H95.2459V70.7541ZM103.41 70.7541H108.852V73.4754H103.41V70.7541ZM111.574 70.7541H114.295V73.4754H111.574V70.7541ZM117.016 70.7541H119.738V73.4754H117.016V70.7541ZM122.459 70.7541H125.18V73.4754H122.459V70.7541ZM127.902 70.7541H133.344V73.4754H127.902V70.7541ZM136.066 70.7541H138.787V73.4754H136.066V70.7541ZM141.508 70.7541H144.23V73.4754H141.508V70.7541ZM149.672 70.7541H152.393V73.4754H149.672V70.7541ZM10.8853 73.4754H21.7705V76.1967H10.8853V73.4754ZM24.4918 73.4754H27.2131V76.1967H24.4918V73.4754ZM32.6557 73.4754H35.3771V76.1967H32.6557V73.4754ZM38.0984 73.4754H40.8197V76.1967H38.0984V73.4754ZM43.541 73.4754H48.9836V76.1967H43.541V73.4754ZM65.3115 73.4754H70.7541V76.1967H65.3115V73.4754ZM73.4754 73.4754H76.1967V76.1967H73.4754V73.4754ZM78.918 73.4754H81.6394V76.1967H78.918V73.4754ZM89.8033 73.4754H95.2459V76.1967H89.8033V73.4754ZM97.9672 73.4754H103.41V76.1967H97.9672V73.4754ZM106.131 73.4754H108.852V76.1967H106.131V73.4754ZM111.574 73.4754H119.738V76.1967H111.574V73.4754ZM122.459 73.4754H136.066V76.1967H122.459V73.4754ZM144.23 73.4754H146.951V76.1967H144.23V73.4754ZM13.6066 76.1967H40.8197V78.918H13.6066V76.1967ZM46.2623 76.1967H51.7049V78.918H46.2623V76.1967ZM57.1476 76.1967H62.5902V78.918H57.1476V76.1967ZM76.1967 76.1967H97.9672V78.918H76.1967V76.1967ZM103.41 76.1967H106.131V78.918H103.41V76.1967ZM108.852 76.1967H111.574V78.918H108.852V76.1967ZM114.295 76.1967H117.016V78.918H114.295V76.1967ZM125.18 76.1967H127.902V78.918H125.18V76.1967ZM130.623 76.1967H144.23V78.918H130.623V76.1967ZM146.951 76.1967H149.672V78.918H146.951V76.1967ZM10.8853 78.918H13.6066V81.6393H10.8853V78.918ZM16.3279 78.918H19.0492V81.6393H16.3279V78.918ZM21.7705 78.918H24.4918V81.6393H21.7705V78.918ZM32.6557 78.918H35.3771V81.6393H32.6557V78.918ZM38.0984 78.918H40.8197V81.6393H38.0984V78.918ZM43.541 78.918H54.4262V81.6393H43.541V78.918ZM57.1476 78.918H62.5902V81.6393H57.1476V78.918ZM65.3115 78.918H78.918V81.6393H65.3115V78.918ZM87.082 78.918H103.41V81.6393H87.082V78.918ZM106.131 78.918H114.295V81.6393H106.131V78.918ZM117.016 78.918H119.738V81.6393H117.016V78.918ZM122.459 78.918H133.344V81.6393H122.459V78.918ZM141.508 78.918H146.951V81.6393H141.508V78.918ZM149.672 78.918H155.115V81.6393H149.672V78.918ZM10.8853 81.6393H24.4918V84.3606H10.8853V81.6393ZM27.2131 81.6393H29.9344V84.3606H27.2131V81.6393ZM32.6557 81.6393H38.0984V84.3606H32.6557V81.6393ZM40.8197 81.6393H43.541V84.3606H40.8197V81.6393ZM46.2623 81.6393H54.4262V84.3606H46.2623V81.6393ZM57.1476 81.6393H59.8689V84.3606H57.1476V81.6393ZM65.3115 81.6393H70.7541V84.3606H65.3115V81.6393ZM73.4754 81.6393H78.918V84.3606H73.4754V81.6393ZM81.6394 81.6393H84.3607V84.3606H81.6394V81.6393ZM87.082 81.6393H89.8033V84.3606H87.082V81.6393ZM95.2459 81.6393H100.689V84.3606H95.2459V81.6393ZM103.41 81.6393H106.131V84.3606H103.41V81.6393ZM114.295 81.6393H122.459V84.3606H114.295V81.6393ZM125.18 81.6393H133.344V84.3606H125.18V81.6393ZM136.066 81.6393H138.787V84.3606H136.066V81.6393ZM141.508 81.6393H144.23V84.3606H141.508V81.6393ZM13.6066 84.3606H16.3279V87.0819H13.6066V84.3606ZM21.7705 84.3606H24.4918V87.0819H21.7705V84.3606ZM32.6557 84.3606H35.3771V87.0819H32.6557V84.3606ZM43.541 84.3606H46.2623V87.0819H43.541V84.3606ZM48.9836 84.3606H54.4262V87.0819H48.9836V84.3606ZM57.1476 84.3606H62.5902V87.0819H57.1476V84.3606ZM65.3115 84.3606H78.918V87.0819H65.3115V84.3606ZM87.082 84.3606H89.8033V87.0819H87.082V84.3606ZM92.5246 84.3606H103.41V87.0819H92.5246V84.3606ZM108.852 84.3606H114.295V87.0819H108.852V84.3606ZM117.016 84.3606H122.459V87.0819H117.016V84.3606ZM125.18 84.3606H127.902V87.0819H125.18V84.3606ZM130.623 84.3606H133.344V87.0819H130.623V84.3606ZM141.508 84.3606H146.951V87.0819H141.508V84.3606ZM10.8853 87.0819H13.6066V89.8033H10.8853V87.0819ZM19.0492 87.0819H35.3771V89.8033H19.0492V87.0819ZM38.0984 87.0819H43.541V89.8033H38.0984V87.0819ZM46.2623 87.0819H48.9836V89.8033H46.2623V87.0819ZM51.7049 87.0819H59.8689V89.8033H51.7049V87.0819ZM73.4754 87.0819H97.9672V89.8033H73.4754V87.0819ZM106.131 87.0819H117.016V89.8033H106.131V87.0819ZM130.623 87.0819H149.672V89.8033H130.623V87.0819ZM152.393 87.0819H155.115V89.8033H152.393V87.0819ZM10.8853 89.8033H13.6066V92.5246H10.8853V89.8033ZM16.3279 89.8033H19.0492V92.5246H16.3279V89.8033ZM21.7705 89.8033H27.2131V92.5246H21.7705V89.8033ZM29.9344 89.8033H35.3771V92.5246H29.9344V89.8033ZM40.8197 89.8033H48.9836V92.5246H40.8197V89.8033ZM51.7049 89.8033H54.4262V92.5246H51.7049V89.8033ZM65.3115 89.8033H70.7541V92.5246H65.3115V89.8033ZM84.3607 89.8033H89.8033V92.5246H84.3607V89.8033ZM92.5246 89.8033H95.2459V92.5246H92.5246V89.8033ZM100.689 89.8033H103.41V92.5246H100.689V89.8033ZM111.574 89.8033H114.295V92.5246H111.574V89.8033ZM117.016 89.8033H127.902V92.5246H117.016V89.8033ZM136.066 89.8033H155.115V92.5246H136.066V89.8033ZM10.8853 92.5246H16.3279V95.2459H10.8853V92.5246ZM24.4918 92.5246H38.0984V95.2459H24.4918V92.5246ZM40.8197 92.5246H46.2623V95.2459H40.8197V92.5246ZM48.9836 92.5246H57.1476V95.2459H48.9836V92.5246ZM68.0328 92.5246H70.7541V95.2459H68.0328V92.5246ZM76.1967 92.5246H78.918V95.2459H76.1967V92.5246ZM81.6394 92.5246H84.3607V95.2459H81.6394V92.5246ZM87.082 92.5246H92.5246V95.2459H87.082V92.5246ZM95.2459 92.5246H97.9672V95.2459H95.2459V92.5246ZM100.689 92.5246H111.574V95.2459H100.689V92.5246ZM119.738 92.5246H125.18V95.2459H119.738V92.5246ZM127.902 92.5246H130.623V95.2459H127.902V92.5246ZM138.787 92.5246H149.672V95.2459H138.787V92.5246ZM10.8853 95.2459H19.0492V97.9672H10.8853V95.2459ZM21.7705 95.2459H27.2131V97.9672H21.7705V95.2459ZM32.6557 95.2459H35.3771V97.9672H32.6557V95.2459ZM43.541 95.2459H46.2623V97.9672H43.541V95.2459ZM48.9836 95.2459H51.7049V97.9672H48.9836V95.2459ZM54.4262 95.2459H59.8689V97.9672H54.4262V95.2459ZM62.5902 95.2459H65.3115V97.9672H62.5902V95.2459ZM70.7541 95.2459H81.6394V97.9672H70.7541V95.2459ZM92.5246 95.2459H97.9672V97.9672H92.5246V95.2459ZM108.852 95.2459H125.18V97.9672H108.852V95.2459ZM127.902 95.2459H138.787V97.9672H127.902V95.2459ZM144.23 95.2459H146.951V97.9672H144.23V95.2459ZM152.393 95.2459H155.115V97.9672H152.393V95.2459ZM16.3279 97.9672H19.0492V100.689H16.3279V97.9672ZM21.7705 97.9672H29.9344V100.689H21.7705V97.9672ZM32.6557 97.9672H35.3771V100.689H32.6557V97.9672ZM40.8197 97.9672H46.2623V100.689H40.8197V97.9672ZM48.9836 97.9672H54.4262V100.689H48.9836V97.9672ZM73.4754 97.9672H78.918V100.689H73.4754V97.9672ZM87.082 97.9672H97.9672V100.689H87.082V97.9672ZM100.689 97.9672H103.41V100.689H100.689V97.9672ZM106.131 97.9672H114.295V100.689H106.131V97.9672ZM122.459 97.9672H125.18V100.689H122.459V97.9672ZM130.623 97.9672H141.508V100.689H130.623V97.9672ZM146.951 97.9672H149.672V100.689H146.951V97.9672ZM152.393 97.9672H155.115V100.689H152.393V97.9672ZM13.6066 100.689H19.0492V103.41H13.6066V100.689ZM21.7705 100.689H24.4918V103.41H21.7705V100.689ZM29.9344 100.689H38.0984V103.41H29.9344V100.689ZM46.2623 100.689H48.9836V103.41H46.2623V100.689ZM54.4262 100.689H57.1476V103.41H54.4262V100.689ZM62.5902 100.689H65.3115V103.41H62.5902V100.689ZM68.0328 100.689H73.4754V103.41H68.0328V100.689ZM78.918 100.689H84.3607V103.41H78.918V100.689ZM89.8033 100.689H97.9672V103.41H89.8033V100.689ZM122.459 100.689H127.902V103.41H122.459V100.689ZM133.344 100.689H146.951V103.41H133.344V100.689ZM149.672 100.689H152.393V103.41H149.672V100.689ZM19.0492 103.41H21.7705V106.131H19.0492V103.41ZM24.4918 103.41H29.9344V106.131H24.4918V103.41ZM43.541 103.41H46.2623V106.131H43.541V103.41ZM51.7049 103.41H54.4262V106.131H51.7049V103.41ZM57.1476 103.41H59.8689V106.131H57.1476V103.41ZM62.5902 103.41H65.3115V106.131H62.5902V103.41ZM68.0328 103.41H70.7541V106.131H68.0328V103.41ZM76.1967 103.41H78.918V106.131H76.1967V103.41ZM84.3607 103.41H89.8033V106.131H84.3607V103.41ZM92.5246 103.41H95.2459V106.131H92.5246V103.41ZM108.852 103.41H111.574V106.131H108.852V103.41ZM114.295 103.41H122.459V106.131H114.295V103.41ZM130.623 103.41H136.066V106.131H130.623V103.41ZM141.508 103.41H144.23V106.131H141.508V103.41ZM146.951 103.41H149.672V106.131H146.951V103.41ZM10.8853 106.131H16.3279V108.852H10.8853V106.131ZM29.9344 106.131H32.6557V108.852H29.9344V106.131ZM38.0984 106.131H46.2623V108.852H38.0984V106.131ZM48.9836 106.131H54.4262V108.852H48.9836V106.131ZM57.1476 106.131H62.5902V108.852H57.1476V106.131ZM65.3115 106.131H68.0328V108.852H65.3115V106.131ZM70.7541 106.131H81.6394V108.852H70.7541V106.131ZM89.8033 106.131H95.2459V108.852H89.8033V106.131ZM119.738 106.131H138.787V108.852H119.738V106.131ZM141.508 106.131H146.951V108.852H141.508V106.131ZM152.393 106.131H155.115V108.852H152.393V106.131ZM16.3279 108.852H19.0492V111.574H16.3279V108.852ZM24.4918 108.852H29.9344V111.574H24.4918V108.852ZM32.6557 108.852H38.0984V111.574H32.6557V108.852ZM46.2623 108.852H51.7049V111.574H46.2623V108.852ZM57.1476 108.852H59.8689V111.574H57.1476V108.852ZM62.5902 108.852H68.0328V111.574H62.5902V108.852ZM76.1967 108.852H81.6394V111.574H76.1967V108.852ZM84.3607 108.852H87.082V111.574H84.3607V108.852ZM89.8033 108.852H92.5246V111.574H89.8033V108.852ZM95.2459 108.852H97.9672V111.574H95.2459V108.852ZM108.852 108.852H111.574V111.574H108.852V108.852ZM114.295 108.852H117.016V111.574H114.295V108.852ZM125.18 108.852H127.902V111.574H125.18V108.852ZM133.344 108.852H136.066V111.574H133.344V108.852ZM144.23 108.852H149.672V111.574H144.23V108.852ZM10.8853 111.574H21.7705V114.295H10.8853V111.574ZM24.4918 111.574H27.2131V114.295H24.4918V111.574ZM29.9344 111.574H35.3771V114.295H29.9344V111.574ZM43.541 111.574H59.8689V114.295H43.541V111.574ZM65.3115 111.574H68.0328V114.295H65.3115V111.574ZM78.918 111.574H84.3607V114.295H78.918V111.574ZM87.082 111.574H95.2459V114.295H87.082V111.574ZM97.9672 111.574H100.689V114.295H97.9672V111.574ZM106.131 111.574H114.295V114.295H106.131V111.574ZM117.016 111.574H119.738V114.295H117.016V111.574ZM122.459 111.574H130.623V114.295H122.459V111.574ZM133.344 111.574H138.787V114.295H133.344V111.574ZM141.508 111.574H146.951V114.295H141.508V111.574ZM149.672 111.574H155.115V114.295H149.672V111.574ZM10.8853 114.295H13.6066V117.016H10.8853V114.295ZM19.0492 114.295H24.4918V117.016H19.0492V114.295ZM27.2131 114.295H29.9344V117.016H27.2131V114.295ZM32.6557 114.295H38.0984V117.016H32.6557V114.295ZM40.8197 114.295H48.9836V117.016H40.8197V114.295ZM51.7049 114.295H54.4262V117.016H51.7049V114.295ZM62.5902 114.295H70.7541V117.016H62.5902V114.295ZM78.918 114.295H81.6394V117.016H78.918V114.295ZM87.082 114.295H89.8033V117.016H87.082V114.295ZM103.41 114.295H106.131V117.016H103.41V114.295ZM108.852 114.295H114.295V117.016H108.852V114.295ZM117.016 114.295H119.738V117.016H117.016V114.295ZM138.787 114.295H141.508V117.016H138.787V114.295ZM144.23 114.295H149.672V117.016H144.23V114.295ZM10.8853 117.016H16.3279V119.738H10.8853V117.016ZM21.7705 117.016H27.2131V119.738H21.7705V117.016ZM29.9344 117.016H40.8197V119.738H29.9344V117.016ZM46.2623 117.016H62.5902V119.738H46.2623V117.016ZM73.4754 117.016H81.6394V119.738H73.4754V117.016ZM89.8033 117.016H103.41V119.738H89.8033V117.016ZM114.295 117.016H122.459V119.738H114.295V117.016ZM125.18 117.016H130.623V119.738H125.18V117.016ZM133.344 117.016H141.508V119.738H133.344V117.016ZM144.23 117.016H146.951V119.738H144.23V117.016ZM16.3279 119.738H21.7705V122.459H16.3279V119.738ZM24.4918 119.738H29.9344V122.459H24.4918V119.738ZM35.3771 119.738H38.0984V122.459H35.3771V119.738ZM46.2623 119.738H54.4262V122.459H46.2623V119.738ZM62.5902 119.738H65.3115V122.459H62.5902V119.738ZM68.0328 119.738H70.7541V122.459H68.0328V119.738ZM76.1967 119.738H78.918V122.459H76.1967V119.738ZM84.3607 119.738H87.082V122.459H84.3607V119.738ZM92.5246 119.738H95.2459V122.459H92.5246V119.738ZM100.689 119.738H103.41V122.459H100.689V119.738ZM106.131 119.738H111.574V122.459H106.131V119.738ZM130.623 119.738H136.066V122.459H130.623V119.738ZM138.787 119.738H144.23V122.459H138.787V119.738ZM149.672 119.738H152.393V122.459H149.672V119.738ZM29.9344 122.459H32.6557V125.18H29.9344V122.459ZM35.3771 122.459H38.0984V125.18H35.3771V122.459ZM40.8197 122.459H48.9836V125.18H40.8197V122.459ZM51.7049 122.459H57.1476V125.18H51.7049V122.459ZM65.3115 122.459H68.0328V125.18H65.3115V122.459ZM73.4754 122.459H76.1967V125.18H73.4754V122.459ZM78.918 122.459H84.3607V125.18H78.918V122.459ZM89.8033 122.459H97.9672V125.18H89.8033V122.459ZM106.131 122.459H108.852V125.18H106.131V122.459ZM111.574 122.459H114.295V125.18H111.574V122.459ZM119.738 122.459H127.902V125.18H119.738V122.459ZM130.623 122.459H133.344V125.18H130.623V122.459ZM136.066 122.459H146.951V125.18H136.066V122.459ZM149.672 122.459H155.115V125.18H149.672V122.459ZM10.8853 125.18H16.3279V127.902H10.8853V125.18ZM19.0492 125.18H29.9344V127.902H19.0492V125.18ZM32.6557 125.18H35.3771V127.902H32.6557V125.18ZM43.541 125.18H48.9836V127.902H43.541V125.18ZM51.7049 125.18H57.1476V127.902H51.7049V125.18ZM59.8689 125.18H65.3115V127.902H59.8689V125.18ZM76.1967 125.18H81.6394V127.902H76.1967V125.18ZM84.3607 125.18H92.5246V127.902H84.3607V125.18ZM95.2459 125.18H97.9672V127.902H95.2459V125.18ZM103.41 125.18H108.852V127.902H103.41V125.18ZM111.574 125.18H114.295V127.902H111.574V125.18ZM125.18 125.18H127.902V127.902H125.18V125.18ZM138.787 125.18H141.508V127.902H138.787V125.18ZM149.672 125.18H152.393V127.902H149.672V125.18ZM13.6066 127.902H19.0492V130.623H13.6066V127.902ZM40.8197 127.902H43.541V130.623H40.8197V127.902ZM54.4262 127.902H57.1476V130.623H54.4262V127.902ZM59.8689 127.902H70.7541V130.623H59.8689V127.902ZM73.4754 127.902H81.6394V130.623H73.4754V127.902ZM92.5246 127.902H95.2459V130.623H92.5246V127.902ZM97.9672 127.902H103.41V130.623H97.9672V127.902ZM117.016 127.902H119.738V130.623H117.016V127.902ZM122.459 127.902H125.18V130.623H122.459V127.902ZM127.902 127.902H130.623V130.623H127.902V127.902ZM136.066 127.902H138.787V130.623H136.066V127.902ZM141.508 127.902H146.951V130.623H141.508V127.902ZM149.672 127.902H155.115V130.623H149.672V127.902ZM19.0492 130.623H21.7705V133.344H19.0492V130.623ZM27.2131 130.623H29.9344V133.344H27.2131V130.623ZM35.3771 130.623H38.0984V133.344H35.3771V130.623ZM48.9836 130.623H51.7049V133.344H48.9836V130.623ZM57.1476 130.623H59.8689V133.344H57.1476V130.623ZM62.5902 130.623H65.3115V133.344H62.5902V130.623ZM68.0328 130.623H70.7541V133.344H68.0328V130.623ZM76.1967 130.623H89.8033V133.344H76.1967V130.623ZM100.689 130.623H103.41V133.344H100.689V130.623ZM106.131 130.623H117.016V133.344H106.131V130.623ZM130.623 130.623H146.951V133.344H130.623V130.623ZM32.6557 133.344H35.3771V136.066H32.6557V133.344ZM46.2623 133.344H48.9836V136.066H46.2623V133.344ZM51.7049 133.344H57.1476V136.066H51.7049V133.344ZM59.8689 133.344H62.5902V136.066H59.8689V133.344ZM65.3115 133.344H68.0328V136.066H65.3115V133.344ZM70.7541 133.344H73.4754V136.066H70.7541V133.344ZM76.1967 133.344H78.918V136.066H76.1967V133.344ZM87.082 133.344H95.2459V136.066H87.082V133.344ZM100.689 133.344H103.41V136.066H100.689V133.344ZM106.131 133.344H108.852V136.066H106.131V133.344ZM111.574 133.344H114.295V136.066H111.574V133.344ZM117.016 133.344H133.344V136.066H117.016V133.344ZM141.508 133.344H146.951V136.066H141.508V133.344ZM152.393 133.344H155.115V136.066H152.393V133.344ZM10.8853 136.066H29.9344V138.787H10.8853V136.066ZM35.3771 136.066H46.2623V138.787H35.3771V136.066ZM48.9836 136.066H57.1476V138.787H48.9836V136.066ZM65.3115 136.066H68.0328V138.787H65.3115V136.066ZM70.7541 136.066H73.4754V138.787H70.7541V136.066ZM76.1967 136.066H78.918V138.787H76.1967V136.066ZM81.6394 136.066H84.3607V138.787H81.6394V136.066ZM87.082 136.066H89.8033V138.787H87.082V136.066ZM100.689 136.066H106.131V138.787H100.689V136.066ZM108.852 136.066H111.574V138.787H108.852V136.066ZM114.295 136.066H117.016V138.787H114.295V136.066ZM119.738 136.066H122.459V138.787H119.738V136.066ZM125.18 136.066H133.344V138.787H125.18V136.066ZM136.066 136.066H138.787V138.787H136.066V136.066ZM141.508 136.066H144.23V138.787H141.508V136.066ZM149.672 136.066H152.393V138.787H149.672V136.066ZM10.8853 138.787H13.6066V141.508H10.8853V138.787ZM27.2131 138.787H29.9344V141.508H27.2131V138.787ZM32.6557 138.787H38.0984V141.508H32.6557V138.787ZM40.8197 138.787H51.7049V141.508H40.8197V138.787ZM57.1476 138.787H73.4754V141.508H57.1476V138.787ZM76.1967 138.787H78.918V141.508H76.1967V138.787ZM87.082 138.787H89.8033V141.508H87.082V138.787ZM92.5246 138.787H95.2459V141.508H92.5246V138.787ZM97.9672 138.787H100.689V141.508H97.9672V138.787ZM106.131 138.787H108.852V141.508H106.131V138.787ZM117.016 138.787H122.459V141.508H117.016V138.787ZM127.902 138.787H133.344V141.508H127.902V138.787ZM141.508 138.787H146.951V141.508H141.508V138.787ZM10.8853 141.508H13.6066V144.229H10.8853V141.508ZM16.3279 141.508H24.4918V144.229H16.3279V141.508ZM27.2131 141.508H29.9344V144.229H27.2131V141.508ZM32.6557 141.508H35.3771V144.229H32.6557V141.508ZM38.0984 141.508H46.2623V144.229H38.0984V141.508ZM48.9836 141.508H51.7049V144.229H48.9836V141.508ZM54.4262 141.508H59.8689V144.229H54.4262V141.508ZM65.3115 141.508H68.0328V144.229H65.3115V141.508ZM70.7541 141.508H73.4754V144.229H70.7541V141.508ZM76.1967 141.508H89.8033V144.229H76.1967V141.508ZM92.5246 141.508H97.9672V144.229H92.5246V141.508ZM108.852 141.508H119.738V144.229H108.852V141.508ZM122.459 141.508H149.672V144.229H122.459V141.508ZM10.8853 144.229H13.6066V146.951H10.8853V144.229ZM16.3279 144.229H24.4918V146.951H16.3279V144.229ZM27.2131 144.229H29.9344V146.951H27.2131V144.229ZM32.6557 144.229H35.3771V146.951H32.6557V144.229ZM38.0984 144.229H43.541V146.951H38.0984V144.229ZM46.2623 144.229H51.7049V146.951H46.2623V144.229ZM54.4262 144.229H70.7541V146.951H54.4262V144.229ZM92.5246 144.229H103.41V146.951H92.5246V144.229ZM108.852 144.229H111.574V146.951H108.852V144.229ZM119.738 144.229H127.902V146.951H119.738V144.229ZM130.623 144.229H136.066V146.951H130.623V144.229ZM144.23 144.229H146.951V146.951H144.23V144.229ZM149.672 144.229H155.115V146.951H149.672V144.229ZM10.8853 146.951H13.6066V149.672H10.8853V146.951ZM16.3279 146.951H24.4918V149.672H16.3279V146.951ZM27.2131 146.951H29.9344V149.672H27.2131V146.951ZM32.6557 146.951H38.0984V149.672H32.6557V146.951ZM43.541 146.951H51.7049V149.672H43.541V146.951ZM62.5902 146.951H68.0328V149.672H62.5902V146.951ZM70.7541 146.951H73.4754V149.672H70.7541V146.951ZM76.1967 146.951H92.5246V149.672H76.1967V146.951ZM95.2459 146.951H97.9672V149.672H95.2459V146.951ZM103.41 146.951H106.131V149.672H103.41V146.951ZM111.574 146.951H117.016V149.672H111.574V146.951ZM119.738 146.951H125.18V149.672H119.738V146.951ZM127.902 146.951H130.623V149.672H127.902V146.951ZM138.787 146.951H155.115V149.672H138.787V146.951ZM10.8853 149.672H13.6066V152.393H10.8853V149.672ZM27.2131 149.672H29.9344V152.393H27.2131V149.672ZM35.3771 149.672H38.0984V152.393H35.3771V149.672ZM40.8197 149.672H51.7049V152.393H40.8197V149.672ZM54.4262 149.672H57.1476V152.393H54.4262V149.672ZM65.3115 149.672H68.0328V152.393H65.3115V149.672ZM87.082 149.672H89.8033V152.393H87.082V149.672ZM92.5246 149.672H97.9672V152.393H92.5246V149.672ZM100.689 149.672H103.41V152.393H100.689V149.672ZM106.131 149.672H108.852V152.393H106.131V149.672ZM111.574 149.672H114.295V152.393H111.574V149.672ZM117.016 149.672H127.902V152.393H117.016V149.672ZM138.787 149.672H146.951V152.393H138.787V149.672ZM149.672 149.672H152.393V152.393H149.672V149.672ZM10.8853 152.393H29.9344V155.115H10.8853V152.393ZM32.6557 152.393H40.8197V155.115H32.6557V152.393ZM43.541 152.393H54.4262V155.115H43.541V152.393ZM62.5902 152.393H70.7541V155.115H62.5902V152.393ZM73.4754 152.393H78.918V155.115H73.4754V152.393ZM81.6394 152.393H87.082V155.115H81.6394V152.393ZM95.2459 152.393H97.9672V155.115H95.2459V152.393ZM103.41 152.393H106.131V155.115H103.41V152.393ZM108.852 152.393H114.295V155.115H108.852V152.393ZM122.459 152.393H125.18V155.115H122.459V152.393ZM130.623 152.393H133.344V155.115H130.623V152.393ZM138.787 152.393H144.23V155.115H138.787V152.393ZM146.951 152.393H149.672V155.115H146.951V152.393Z" fill="black"/>
</svg>
