<svg width="25" height="24" viewBox="0 0 25 24" fill="none" xmlns="http://www.w3.org/2000/svg">
<path d="M16.6667 21V19C16.6667 17.9391 16.2453 16.9217 15.4951 16.1716C14.745 15.4214 13.7276 15 12.6667 15H6.66669C5.60582 15 4.58841 15.4214 3.83826 16.1716C3.08811 16.9217 2.66669 17.9391 2.66669 19V21" stroke="#FFC61A" stroke-width="2" stroke-linecap="round" stroke-linejoin="round"/>
<path d="M9.66669 11C11.8758 11 13.6667 9.20914 13.6667 7C13.6667 4.79086 11.8758 3 9.66669 3C7.45755 3 5.66669 4.79086 5.66669 7C5.66669 9.20914 7.45755 11 9.66669 11Z" stroke="#FFC61A" stroke-width="2" stroke-linecap="round" stroke-linejoin="round"/>
<path d="M22.6667 20.9999V18.9999C22.666 18.1136 22.371 17.2527 21.8281 16.5522C21.2851 15.8517 20.5248 15.3515 19.6667 15.1299" stroke="#FFC61A" stroke-width="2" stroke-linecap="round" stroke-linejoin="round"/>
<path d="M16.6667 3.12988C17.5271 3.35018 18.2897 3.85058 18.8343 4.55219C19.3789 5.2538 19.6745 6.11671 19.6745 7.00488C19.6745 7.89305 19.3789 8.75596 18.8343 9.45757C18.2897 10.1592 17.5271 10.6596 16.6667 10.8799" stroke="#FFC61A" stroke-width="2" stroke-linecap="round" stroke-linejoin="round"/>
</svg>
