<svg width="23" height="23" viewBox="0 0 23 23" fill="none" xmlns="http://www.w3.org/2000/svg">
<path d="M11.525 2.40179L14.6416 4.13226L18.069 5.11237L19.049 8.53974L20.7795 11.6563L19.049 14.7728L18.069 18.2002L14.6416 19.1803L11.525 20.9108L8.40845 19.1803L4.98109 18.2002L4.00097 14.7728L2.27051 11.6563L4.00097 8.53974L4.98109 5.11237L8.40845 4.13226L11.525 2.40179Z" fill="#EDC240"/>
<path fill-rule="evenodd" clip-rule="evenodd" d="M15.8365 8.18061C16.2228 8.51536 16.2645 9.09983 15.9298 9.48607L11.1175 15.0388C10.9416 15.2416 10.6865 15.3581 10.4181 15.3581C10.1497 15.3581 9.89457 15.2416 9.71873 15.0388L7.12748 12.0489C6.79274 11.6626 6.83448 11.0782 7.22073 10.7434C7.60697 10.4087 8.19144 10.4504 8.52619 10.8366L10.4181 13.0197L14.5311 8.27386C14.8658 7.88761 15.4503 7.84587 15.8365 8.18061Z" fill="#0D0D0D"/>
</svg>
