<svg width="25" height="19" viewBox="0 0 25 19" fill="none" xmlns="http://www.w3.org/2000/svg">
<path d="M21.3121 2.63742C19.059 1.51141 15.929 0.890625 12.5 0.890625C9.07098 0.890625 5.94102 1.51141 3.68785 2.63742C1.51172 3.72266 0.265625 5.23496 0.265625 6.78125V12.2188C0.265625 13.765 1.51172 15.2773 3.68785 16.3626C5.94102 17.4886 9.07098 18.1094 12.5 18.1094C15.929 18.1094 19.059 17.4886 21.3121 16.3626C23.4883 15.2773 24.7344 13.765 24.7344 12.2188V6.78125C24.7344 5.23496 23.4883 3.72266 21.3121 2.63742ZM12.5 1.79688C19.4974 1.79688 23.8281 4.38422 23.8281 6.78125C23.8281 9.17828 19.4974 11.7656 12.5 11.7656C5.50262 11.7656 1.17188 9.17828 1.17188 6.78125C1.17188 4.38422 5.50262 1.79688 12.5 1.79688ZM12.0469 12.6719V17.2031C9.55469 17.1635 7.40914 16.7896 5.70312 16.2164V11.726C7.54168 12.3037 9.71781 12.6288 12.0469 12.6719ZM12.9531 12.6719C15.2822 12.6345 17.4583 12.3094 19.2969 11.7316V16.2164C17.5909 16.7896 15.451 17.1635 12.9531 17.2031V12.6719ZM1.17188 12.2188V9.03781C1.75527 9.73902 2.60715 10.3847 3.68785 10.9251C4.03676 11.0995 4.40832 11.2593 4.79688 11.4099V15.8709C2.47348 14.9001 1.17188 13.5317 1.17188 12.2188ZM23.8281 12.2188C23.8281 13.5317 22.5265 14.9001 20.2031 15.8709V11.4099C20.5917 11.2593 20.9632 11.0995 21.3121 10.9251C22.3929 10.3847 23.2447 9.73902 23.8281 9.03781V12.2188Z" fill="black"/>
</svg>
