<svg width="25" height="24" viewBox="0 0 25 24" fill="none" xmlns="http://www.w3.org/2000/svg">
<path d="M8.33337 14C11.6471 14 14.3334 11.3137 14.3334 8C14.3334 4.68629 11.6471 2 8.33337 2C5.01967 2 2.33337 4.68629 2.33337 8C2.33337 11.3137 5.01967 14 8.33337 14Z" stroke="#FFC61A" stroke-width="2" stroke-linecap="round" stroke-linejoin="round"/>
<path d="M18.4234 10.3701C19.3687 10.7225 20.2099 11.3076 20.8692 12.0713C21.5284 12.835 21.9845 13.7526 22.1951 14.7392C22.4058 15.7258 22.3643 16.7496 22.0744 17.716C21.7846 18.6823 21.2558 19.5599 20.5368 20.2677C19.8179 20.9755 18.9321 21.4906 17.9614 21.7653C16.9906 22.0401 15.9663 22.0656 14.9831 21.8396C13.9999 21.6135 13.0895 21.1432 12.3362 20.4721C11.5829 19.801 11.011 18.9508 10.6734 18.0001" stroke="#FFC61A" stroke-width="2" stroke-linecap="round" stroke-linejoin="round"/>
<path d="M7.33337 6H8.33337V10" stroke="#FFC61A" stroke-width="2" stroke-linecap="round" stroke-linejoin="round"/>
<path d="M17.0434 13.8799L17.7434 14.5899L14.9234 17.4099" stroke="#FFC61A" stroke-width="2" stroke-linecap="round" stroke-linejoin="round"/>
</svg>
