<svg width="17" height="16" viewBox="0 0 17 16" fill="none" xmlns="http://www.w3.org/2000/svg">
<path d="M13.8433 4.94362L10.6273 1.72765C10.3777 1.47796 10.0381 1.33813 9.68852 1.33813H4.24533C3.8758 1.33813 3.57617 1.63776 3.57617 2.0073V13.9923C3.57617 14.3619 3.8758 14.6615 4.24533 14.6615H13.5637C13.9332 14.6615 14.2328 14.3619 14.2328 13.9923V5.89243C14.2328 5.54287 14.093 5.2033 13.8433 4.95361V4.94362ZM10.2378 3.22577L12.3452 5.33313H10.2378V3.22577ZM4.9145 2.67646H8.9095V5.34312C8.9095 6.0822 9.50875 6.67146 10.2378 6.67146H12.9045V13.3332H4.9145V2.67646Z" fill="#808A9D"/>
<path d="M10.9083 9.3288H6.9133C6.54377 9.3288 6.24414 9.02918 6.24414 8.65964C6.24414 8.2901 6.54377 7.99048 6.9133 7.99048H10.9083C11.2779 7.99048 11.5775 8.2901 11.5775 8.65964C11.5775 9.02918 11.2779 9.3288 10.9083 9.3288Z" fill="#808A9D"/>
<path d="M10.9083 11.9968H6.9133C6.54377 11.9968 6.24414 11.6971 6.24414 11.3276C6.24414 10.9581 6.54377 10.6584 6.9133 10.6584H10.9083C11.2779 10.6584 11.5775 10.9581 11.5775 11.3276C11.5775 11.6971 11.2779 11.9968 10.9083 11.9968Z" fill="#808A9D"/>
</svg>
