<svg width="13" height="13" viewBox="0 0 13 13" fill="none" xmlns="http://www.w3.org/2000/svg">
<path d="M6.6499 11.5C3.8949 11.5 1.6499 9.255 1.6499 6.5C1.6499 3.745 3.8949 1.5 6.6499 1.5C9.4049 1.5 11.6499 3.745 11.6499 6.5C11.6499 9.255 9.4049 11.5 6.6499 11.5ZM6.6499 2.5C4.4449 2.5 2.6499 4.295 2.6499 6.5C2.6499 8.705 4.4449 10.5 6.6499 10.5C8.8549 10.5 10.6499 8.705 10.6499 6.5C10.6499 4.295 8.8549 2.5 6.6499 2.5Z" fill="#A6B0C3"/>
<path d="M6.6485 4.68469C7.0296 4.68469 7.3385 4.37576 7.3385 3.99469C7.3385 3.61361 7.0296 3.30469 6.6485 3.30469C6.26745 3.30469 5.9585 3.61361 5.9585 3.99469C5.9585 4.37576 6.26745 4.68469 6.6485 4.68469Z" fill="#A6B0C3"/>
<path d="M6.6499 9.50001C6.3749 9.50001 6.1499 9.27501 6.1499 9.00001V6.00001C6.1499 5.72501 6.3749 5.5 6.6499 5.5C6.9249 5.5 7.1499 5.72501 7.1499 6.00001V9.00001C7.1499 9.27501 6.9249 9.50001 6.6499 9.50001Z" fill="#A6B0C3"/>
</svg>
