<svg width="17" height="17" viewBox="0 0 17 17" fill="none" xmlns="http://www.w3.org/2000/svg">
<path d="M1.67172 11.1837C2.84642 10.1224 4.65977 10.1577 5.79199 11.2895L5.8986 11.4018C6.92562 12.5387 6.92569 14.2738 5.8986 15.4106L5.79199 15.5221C5.20185 16.1122 4.39865 16.4024 3.62077 16.5556C2.83331 16.7107 1.97095 16.7444 1.17122 16.7444C0.950232 16.7444 0.738307 16.6565 0.582032 16.5003C0.425774 16.344 0.337916 16.1321 0.337891 15.9111C0.337891 15.1113 0.371649 14.249 0.526691 13.4615C0.679882 12.6836 0.970057 11.8797 1.56022 11.2895L1.67172 11.1837ZM14.5233 0.0801773C15.1614 0.100002 15.8534 0.261194 16.3372 0.745052C16.8211 1.22891 16.9823 1.92093 17.0021 2.55902C17.0226 3.21931 16.8978 3.96227 16.6644 4.71071C16.2303 6.10241 15.3827 7.63159 14.1782 8.84967L14.2556 11.3855C14.3159 11.8686 14.1476 12.5921 13.5231 13.2166L13.5223 13.2158L10.9328 15.8598C10.7378 16.0588 10.4561 16.1468 10.1825 16.095C9.90881 16.0431 9.67922 15.8583 9.57047 15.6018C8.95081 14.1403 8.46556 13.2271 7.86639 12.2945L7.60189 11.8917C7.26797 11.3938 6.95266 11.0168 6.72298 10.7663L6.52442 10.5579C6.33109 10.3647 5.96286 10.0256 5.42904 9.64559L5.19059 9.48042C4.10519 8.75259 3.15079 8.22009 1.48047 7.51184C1.22407 7.40309 1.03918 7.1735 0.987307 6.89984C0.935491 6.62614 1.02355 6.34449 1.22249 6.14951L3.86572 3.55918L3.99187 3.44037C4.58525 2.91351 5.24507 2.76991 5.69597 2.82594L8.23181 2.90325C9.44989 1.69879 10.9799 0.851994 12.3716 0.417902C13.1201 0.184494 13.863 0.059719 14.5233 0.0801773ZM4.61361 12.4687C4.12813 11.9832 3.36038 11.9528 2.83952 12.3775L2.73861 12.4687C2.48552 12.7218 2.28657 13.1492 2.16162 13.7838C2.08515 14.1723 2.04578 14.6021 2.0249 15.0566C2.47967 15.0357 2.90982 14.9972 3.2985 14.9207C3.93311 14.7958 4.36048 14.5968 4.61361 14.3437L4.70475 14.2428C5.10122 13.7566 5.10142 13.0549 4.70475 12.5688L4.61361 12.4687ZM12.2356 10.518C11.5323 11.0275 10.6129 11.5975 9.61281 11.9519C9.95164 12.5175 10.2673 13.1073 10.6 13.8172L12.3391 12.0439L12.3447 12.0373L12.4391 11.9324C12.5194 11.8305 12.5596 11.7411 12.5799 11.6777C12.5939 11.6339 12.5989 11.6013 12.6002 11.5841L12.606 11.6174C12.5972 11.5728 12.5919 11.527 12.5905 11.4815L12.5539 10.2796C12.452 10.3576 12.3461 10.438 12.2356 10.518ZM14.472 1.74603C14.0454 1.73278 13.4916 1.81413 12.8672 2.00889C11.6172 2.39882 10.2208 3.1975 9.18314 4.31439L9.15872 4.33962L9.15547 4.34369C9.15189 4.34725 9.14547 4.35267 9.13756 4.36078C9.12139 4.37722 9.09681 4.40319 9.06431 4.43727C8.99906 4.50563 8.90331 4.60811 8.78681 4.73919C8.55314 5.00198 8.23822 5.37698 7.91439 5.82399C7.35031 6.6027 6.813 7.52784 6.57731 8.42084C7.10147 8.80917 7.47889 9.15575 7.70281 9.3795L7.95097 9.63908C8.15131 9.85758 8.39589 10.147 8.66064 10.5042C9.55381 10.2686 10.4794 9.73217 11.2583 9.16792C11.7053 8.84408 12.0803 8.52917 12.3431 8.2955C12.4742 8.17892 12.5766 8.08325 12.6451 8.018C12.6791 7.9855 12.7051 7.96092 12.7216 7.94475C12.7296 7.93675 12.7351 7.93042 12.7386 7.92684L12.7426 7.92358C12.7509 7.91525 12.7593 7.90717 12.7679 7.89917L12.9738 7.69984C13.9831 6.68686 14.7079 5.38685 15.0734 4.2151C15.2681 3.5907 15.3496 3.03689 15.3362 2.61029C15.3223 2.16134 15.2093 1.97549 15.1581 1.92425C15.1068 1.87302 14.921 1.75999 14.472 1.74603ZM5.49821 4.48204C5.48107 4.48343 5.44835 4.48837 5.40462 4.50238C5.34123 4.52272 5.25179 4.56289 5.1499 4.64316L5.04492 4.73757L3.28874 6.49294C3.98782 6.82134 4.57052 7.13375 5.12956 7.46867C5.48395 6.4688 6.05486 5.54985 6.56429 4.84662C6.64433 4.73613 6.72388 4.62958 6.80192 4.5276L5.60075 4.49179C5.55529 4.49043 5.50947 4.48509 5.46484 4.47634L5.49821 4.48204Z" fill="#EDC240"/>
</svg>
