<svg width="17" height="16" viewBox="0 0 17 16" fill="none" xmlns="http://www.w3.org/2000/svg">
<path d="M8.58879 1.33203C4.90701 1.33203 1.92212 4.31692 1.92212 7.9987C1.92212 9.83983 2.66847 11.5065 3.87473 12.7128L2.60493 13.9826C2.35285 14.2346 2.53149 14.6654 2.88775 14.6654H8.58879C12.2706 14.6654 15.2555 11.6805 15.2555 7.9987C15.2555 4.31692 12.2706 1.33203 8.58879 1.33203Z" fill="#DC7C3D"/>
<path d="M9.94688 4.47604C10.0625 4.96615 10.5026 5.33125 11.0281 5.33125C11.6417 5.33125 12.1391 4.83386 12.1391 4.22031C12.1391 3.60677 11.6417 3.10938 11.0281 3.10938C10.4917 3.10938 10.0443 3.48959 9.94008 3.99532C9.04168 4.09167 8.34008 4.85365 8.34008 5.77709C8.34008 5.77917 8.34008 5.78074 8.34008 5.78282C7.36301 5.82396 6.47082 6.10209 5.76248 6.54115C5.49946 6.3375 5.16926 6.21615 4.81092 6.21615C3.95102 6.21615 3.25415 6.91303 3.25415 7.7729C3.25415 8.3969 3.62082 8.93436 4.1505 9.18283C4.20207 10.9901 6.17134 12.4438 8.59374 12.4438C11.0161 12.4438 12.988 10.9886 13.0369 9.1797C13.5625 8.9297 13.926 8.39376 13.926 7.77343C13.926 6.91356 13.2291 6.21667 12.3693 6.21667C12.0125 6.21667 11.6838 6.33698 11.4213 6.53907C10.7067 6.09688 9.80468 5.81876 8.81768 5.78178V5.77761C8.81768 5.11615 9.30934 4.56719 9.94688 4.47709V4.47604ZM5.69998 8.76096C5.72602 8.19636 6.10102 7.76303 6.53696 7.76303C6.9729 7.76303 7.30621 8.22083 7.28021 8.78543C7.25415 9.35003 6.92863 9.55523 6.49217 9.55523C6.05572 9.55523 5.67394 9.32549 5.69998 8.76096ZM10.651 7.76303C11.0875 7.76303 11.4625 8.19636 11.488 8.76096C11.5141 9.32549 11.1317 9.55523 10.6958 9.55523C10.2599 9.55523 9.93381 9.3505 9.90781 8.78543C9.88174 8.22083 10.2145 7.76303 10.651 7.76303ZM10.1323 10.0672C10.2141 10.0755 10.2661 10.1604 10.2343 10.2365C9.96614 10.8776 9.33281 11.3281 8.59374 11.3281C7.85468 11.3281 7.22186 10.8776 6.95311 10.2365C6.92134 10.1604 6.97342 10.0755 7.05519 10.0672C7.53434 10.0188 8.05261 9.99216 8.59374 9.99216C9.13488 9.99216 9.65261 10.0188 10.1323 10.0672Z" fill="#0D0D0D"/>
</svg>
