<svg width="28" height="28" viewBox="0 0 28 28" fill="none" xmlns="http://www.w3.org/2000/svg">
<path d="M25.6161 13.5796C25.6161 20.0773 20.3485 25.3508 13.8449 25.3508C7.34129 25.3508 2.07367 20.0773 2.07367 13.5796C2.07367 7.07597 7.34129 1.80835 13.8449 1.80835C20.3485 1.80835 25.6161 7.07597 25.6161 13.5796Z" fill="#333333"/>
<path d="M19.3623 10.601C19.2981 10.6384 17.769 11.4292 17.769 13.1826C17.8411 15.1823 19.6987 15.8835 19.7305 15.8835C19.6987 15.921 19.4501 16.8388 18.7137 17.8009C18.1293 18.6296 17.4807 19.4652 16.4958 19.4652C15.5589 19.4652 15.2226 18.9129 14.1415 18.9129C12.9806 18.9129 12.6521 19.4652 11.7632 19.4652C10.7783 19.4652 10.0816 18.5849 9.4654 17.7639C8.6648 16.6894 7.98433 15.0032 7.9603 13.3841C7.94411 12.5261 8.12063 11.6828 8.56871 10.9664C9.20114 9.96639 10.3302 9.28751 11.5632 9.26513C12.508 9.23544 13.3488 9.86954 13.9253 9.86954C14.4778 9.86954 15.5108 9.26513 16.6796 9.26513C17.1841 9.26562 18.5294 9.40723 19.3623 10.601ZM13.8454 9.09383C13.6772 8.31033 14.1415 7.52683 14.5739 7.02705C15.1265 6.42263 15.9991 6.01239 16.7517 6.01239C16.7997 6.79589 16.4952 7.5643 15.9511 8.12395C15.4628 8.72836 14.622 9.18337 13.8454 9.09383Z" fill="white"/>
</svg>
