<svg width="22" height="21" viewBox="0 0 22 21" fill="none" xmlns="http://www.w3.org/2000/svg">
<path d="M19.8723 10.7757C19.8723 10.0498 19.8122 9.52008 19.6821 8.97076H11.2241V12.2471H16.1888C16.0887 13.0613 15.5482 14.2874 14.347 15.1114L14.3302 15.2211L17.0045 17.2514L17.1898 17.2695C18.8914 15.7294 19.8723 13.4634 19.8723 10.7757" fill="#4285F4"/>
<path d="M11.223 19.408C13.6552 19.408 15.6972 18.6233 17.1886 17.2696L14.3459 15.1115C13.5852 15.6314 12.5642 15.9943 11.223 15.9943C8.84071 15.9943 6.81881 14.4543 6.09805 12.3256L5.99241 12.3344L3.21166 14.4435L3.17529 14.5425C4.65668 17.4265 7.69958 19.408 11.223 19.408Z" fill="#34A853"/>
<path d="M6.09951 12.3257C5.90933 11.7764 5.79927 11.1878 5.79927 10.5796C5.79927 9.97141 5.90933 9.38287 6.08951 8.83356L6.08447 8.71656L3.26886 6.57367L3.17674 6.61661C2.56619 7.81337 2.21585 9.15728 2.21585 10.5796C2.21585 12.002 2.56619 13.3458 3.17674 14.5426L6.09951 12.3257" fill="#FBBC05"/>
<path d="M11.223 5.16485C12.9146 5.16485 14.0557 5.88093 14.7063 6.47934L17.2487 4.04661C15.6873 2.62426 13.6553 1.75122 11.223 1.75122C7.69961 1.75122 4.65669 3.73269 3.17529 6.61662L6.08806 8.83357C6.81883 6.70494 8.84074 5.16485 11.223 5.16485" fill="#EB4335"/>
</svg>
