<svg width="16" height="16" viewBox="0 0 16 16" fill="none" xmlns="http://www.w3.org/2000/svg">
<path d="M7.76319 1.90076C4.37921 1.90076 1.63574 4.64423 1.63574 8.02821C1.63574 9.72043 2.32173 11.2523 3.43042 12.361L2.26333 13.5281C2.03163 13.7598 2.19583 14.1557 2.52327 14.1557H7.76319C11.1472 14.1557 13.8906 11.4122 13.8906 8.02821C13.8906 4.64423 11.1472 1.90076 7.76319 1.90076Z" fill="black" fill-opacity="0.4"/>
<path d="M9.01176 4.79049C9.11801 5.24096 9.52254 5.57653 10.0056 5.57653C10.5695 5.57653 11.0266 5.11936 11.0266 4.55545C11.0266 3.99153 10.5695 3.53436 10.0056 3.53436C9.51249 3.53436 9.10128 3.88382 9.00551 4.34865C8.17977 4.43721 7.53492 5.13756 7.53492 5.98631C7.53492 5.98822 7.53492 5.98966 7.53492 5.99157C6.63688 6.02939 5.81685 6.28502 5.16581 6.68857C4.92406 6.50139 4.62056 6.38985 4.29121 6.38985C3.50086 6.38985 2.86035 7.03037 2.86035 7.82069C2.86035 8.39422 3.19736 8.88821 3.68421 9.11658C3.7316 10.7777 5.54159 12.1138 7.76807 12.1138C9.99454 12.1138 11.8069 10.7763 11.8519 9.1137C12.3349 8.88392 12.669 8.39134 12.669 7.82118C12.669 7.03086 12.0285 6.39033 11.2382 6.39033C10.9103 6.39033 10.6082 6.50091 10.367 6.68665C9.71016 6.28023 8.88106 6.0246 7.97389 5.99061V5.98678C7.97389 5.37882 8.42579 4.87426 9.01176 4.79145V4.79049ZM5.10836 8.72884C5.13229 8.2099 5.47696 7.81162 5.87764 7.81162C6.27832 7.81162 6.58467 8.23239 6.56077 8.75132C6.53682 9.27026 6.23763 9.45886 5.83647 9.45886C5.43532 9.45886 5.08443 9.24771 5.10836 8.72884ZM9.65894 7.81162C10.0601 7.81162 10.4048 8.2099 10.4282 8.72884C10.4522 9.24771 10.1008 9.45886 9.70011 9.45886C9.29944 9.45886 8.99974 9.27069 8.97585 8.75132C8.95189 8.23239 9.25777 7.81162 9.65894 7.81162ZM9.18216 9.92939C9.25734 9.93705 9.3052 10.0151 9.27597 10.085C9.02946 10.6743 8.44736 11.0883 7.76807 11.0883C7.08878 11.0883 6.50714 10.6743 6.26013 10.085C6.23093 10.0151 6.2788 9.93705 6.35395 9.92939C6.79435 9.8849 7.2707 9.86045 7.76807 9.86045C8.26543 9.86045 8.74129 9.8849 9.18216 9.92939Z" fill="white"/>
</svg>
