<svg width="20" height="20" viewBox="0 0 20 20" fill="none" xmlns="http://www.w3.org/2000/svg">
<path d="M11.867 8.79979C11.6087 9.83312 10.0003 9.30812 9.50033 9.16646L9.95866 7.34979C10.4753 7.49979 12.1337 7.71646 11.867 8.79979ZM9.27533 10.0998L8.77533 12.1081C9.39199 12.2665 11.3003 12.8748 11.5837 11.7415C11.8837 10.5581 9.89199 10.2498 9.27533 10.0998ZM18.0837 12.0165C16.967 16.4831 12.4503 19.1998 7.98366 18.0831C3.51699 16.9665 0.802827 12.4498 1.91699 7.98312C2.1817 6.92153 2.65294 5.92248 3.3038 5.04304C3.95467 4.16359 4.7724 3.42098 5.71031 2.85762C6.64822 2.29426 7.68792 1.92118 8.77003 1.75969C9.85214 1.59821 10.9555 1.65147 12.017 1.91646C16.4753 3.03312 19.192 7.54979 18.0837 12.0165ZM11.842 6.70812L12.217 5.20812L11.3003 4.99979L10.9337 6.44146C10.692 6.38312 10.4503 6.32479 10.2003 6.27479L10.567 4.79979L9.65866 4.58312L9.28366 6.07479C9.08366 6.02479 8.88366 5.98312 8.70033 5.93312L7.44199 5.61646L7.19199 6.59146C7.19199 6.59146 7.87533 6.74979 7.85866 6.75812C8.23366 6.84979 8.30033 7.08312 8.28366 7.29146L7.25866 11.3998C7.21699 11.5165 7.08366 11.6665 6.84199 11.6248C6.85033 11.6331 6.17533 11.4581 6.17533 11.4581L5.72533 12.4998L6.90866 12.7998C7.13366 12.8581 7.35033 12.9165 7.56699 12.9665L7.18366 14.4831L8.10033 14.7165L8.47533 13.2081C8.72533 13.2748 8.96699 13.3331 9.20033 13.3998L8.82533 14.8915L9.74199 15.1248L10.1253 13.6081C11.667 13.8998 12.8503 13.7831 13.3337 12.3748C13.7503 11.2498 13.3337 10.5831 12.5003 10.1581C13.1003 9.99979 13.5503 9.62479 13.6753 8.80812C13.842 7.69979 12.992 7.10812 11.842 6.70812Z" fill="#BCBCBC"/>
</svg>
